<svg width="560" height="401" viewBox="0 0 560 401" fill="none" xmlns="http://www.w3.org/2000/svg">
<rect y="400.045" width="399.091" height="27.2727" rx="4" transform="rotate(-90 0 400.045)" fill="#CE95EC"/>
<rect x="41.8184" y="400.045" width="399.091" height="27.2727" rx="4" transform="rotate(-90 41.8184 400.045)" fill="#F2DAFD"/>
<rect x="98.1816" y="400.045" width="399.091" height="27.2727" rx="4" transform="rotate(-90 98.1816 400.045)" fill="#F9EDFE"/>
<rect x="140" y="400.045" width="399.091" height="27.2727" rx="4" transform="rotate(-90 140 400.045)" fill="#FBEFDA"/>
<rect x="196.364" y="400.045" width="399.091" height="27.2727" rx="4" transform="rotate(-90 196.364 400.045)" fill="#F5E0B6"/>
<rect x="238.182" y="400.045" width="399.091" height="27.2727" rx="4" transform="rotate(-90 238.182 400.045)" fill="#EFDEE5"/>
<rect x="294.545" y="400.045" width="399.091" height="27.2727" rx="4" transform="rotate(-90 294.545 400.045)" fill="#DEBECB"/>
<rect x="336.364" y="400.045" width="399.091" height="27.2727" rx="4" transform="rotate(-90 336.364 400.045)" fill="#CAA0B1"/>
<rect x="392.727" y="400.045" width="399.091" height="27.2727" rx="4" transform="rotate(-90 392.727 400.045)" fill="#89B2B9"/>
<rect x="434.545" y="400.045" width="399.091" height="27.2727" rx="4" transform="rotate(-90 434.545 400.045)" fill="#AECCD1"/>
<rect x="490.909" y="400.045" width="399.091" height="27.2727" rx="4" transform="rotate(-90 490.909 400.045)" fill="#D6E5E8"/>
<rect x="532.727" y="400.045" width="399.091" height="27.2727" rx="4" transform="rotate(-90 532.727 400.045)" fill="#FBEFDA"/>
<path d="M259.5 185.499C259.5 189.24 256.467 192.272 252.727 192.272C248.986 192.272 245.954 189.24 245.954 185.499C245.954 181.759 248.986 178.727 252.727 178.727C256.467 178.727 259.5 181.759 259.5 185.499Z" fill="#AECCD1" stroke="#F5E0B6"/>
<path d="M254.546 221.378L254.546 189.897C254.546 189.537 254.914 189.295 255.245 189.438L283.42 201.633C284.124 201.938 284.237 202.89 283.622 203.351L274.091 210.499L292.833 229.241C293.259 229.667 293.214 230.371 292.736 230.74L278.754 241.526C278.235 241.926 277.478 241.728 277.222 241.124L266.364 215.499L256.093 222.215C255.428 222.65 254.546 222.173 254.546 221.378Z" fill="#25152E" stroke="#F5E0B6" stroke-width="1.6"/>
</svg>
