<svg width="524" height="318" viewBox="0 0 524 318" fill="none" xmlns="http://www.w3.org/2000/svg">
<rect y="0.5" width="524" height="317" rx="4" fill="#B38397"/>
<path d="M13.585 260.044C13.585 260.044 50.9128 187.329 101.414 176.251C165.979 162.087 157.589 260.437 224.971 254.996C292.354 249.555 297.914 187.356 297.914 187.356C297.914 187.356 320.244 106.592 354.483 85.3909C388.721 64.1902 421.471 146.974 449.755 126.783C478.039 106.592 476.723 50.9093 510.789 39.9609" stroke="#F7EEF2" stroke-width="2"/>
<path d="M20.5372 54.5V42.932H22.9532L26.2092 52.132L29.5132 42.932H31.9132V54.5H30.1612V45.284L26.9612 54.5H25.4652L22.2812 45.356V54.5H20.5372ZM37.7495 54.66C36.9762 54.66 36.2988 54.4947 35.7175 54.164C35.1415 53.828 34.6935 53.3427 34.3735 52.708C34.0588 52.0733 33.9015 51.3053 33.9015 50.404C33.9015 49.5347 34.0508 48.7747 34.3495 48.124C34.6535 47.4733 35.0935 46.9693 35.6695 46.612C36.2455 46.2493 36.9415 46.068 37.7575 46.068C38.5362 46.068 39.2108 46.2387 39.7815 46.58C40.3522 46.916 40.7948 47.4093 41.1095 48.06C41.4242 48.7053 41.5815 49.4867 41.5815 50.404C41.5815 51.2413 41.4322 51.98 41.1335 52.62C40.8402 53.26 40.4082 53.7613 39.8375 54.124C39.2722 54.4813 38.5762 54.66 37.7495 54.66ZM37.7575 53.34C38.2268 53.34 38.6188 53.2173 38.9335 52.972C39.2535 52.7213 39.4935 52.372 39.6535 51.924C39.8135 51.4707 39.8935 50.948 39.8935 50.356C39.8935 49.8067 39.8215 49.308 39.6775 48.86C39.5388 48.4067 39.3122 48.0467 38.9975 47.78C38.6828 47.5133 38.2695 47.38 37.7575 47.38C37.2775 47.38 36.8775 47.5027 36.5575 47.748C36.2375 47.988 35.9948 48.332 35.8295 48.78C35.6695 49.2227 35.5895 49.748 35.5895 50.356C35.5895 50.8947 35.6615 51.3907 35.8055 51.844C35.9495 52.2973 36.1815 52.66 36.5015 52.932C36.8215 53.204 37.2402 53.34 37.7575 53.34ZM47.6527 54.66C47.1887 54.66 46.7941 54.5987 46.4687 54.476C46.1434 54.3533 45.8741 54.196 45.6607 54.004C45.4527 53.812 45.2874 53.6093 45.1647 53.396C45.0474 53.1827 44.9567 52.9853 44.8927 52.804L44.7087 54.5H43.4207V42.612H45.1487V47.484C45.2234 47.34 45.3327 47.1853 45.4767 47.02C45.6261 46.8547 45.8101 46.7 46.0287 46.556C46.2527 46.412 46.5114 46.2947 46.8047 46.204C47.0981 46.1133 47.4287 46.068 47.7967 46.068C48.8261 46.068 49.6421 46.4307 50.2447 47.156C50.8527 47.8813 51.1567 48.9373 51.1567 50.324C51.1567 51.1987 51.0261 51.9613 50.7647 52.612C50.5034 53.2573 50.1114 53.7613 49.5887 54.124C49.0714 54.4813 48.4261 54.66 47.6527 54.66ZM47.3167 53.372C47.9461 53.372 48.4581 53.1267 48.8527 52.636C49.2527 52.1453 49.4527 51.356 49.4527 50.268C49.4527 49.3293 49.2661 48.612 48.8927 48.116C48.5247 47.62 47.9914 47.372 47.2927 47.372C46.7914 47.372 46.3834 47.484 46.0687 47.708C45.7541 47.9267 45.5221 48.252 45.3727 48.684C45.2287 49.116 45.1541 49.644 45.1487 50.268C45.1487 51.372 45.3194 52.1667 45.6607 52.652C46.0021 53.132 46.5541 53.372 47.3167 53.372ZM54.7912 46.228V54.5H53.1432V46.228H54.7912ZM54.8232 42.94V44.628H53.1032V42.94H54.8232ZM59.5826 54.612C59.092 54.612 58.6973 54.548 58.3986 54.42C58.1053 54.292 57.8813 54.1213 57.7266 53.908C57.572 53.6893 57.468 53.444 57.4146 53.172C57.3666 52.8947 57.3426 52.6093 57.3426 52.316V42.612H59.0306V52.14C59.0306 52.524 59.1053 52.8173 59.2546 53.02C59.4093 53.2227 59.644 53.3373 59.9586 53.364L60.3906 53.38V54.468C60.2573 54.5107 60.1186 54.5453 59.9746 54.572C59.836 54.5987 59.7053 54.612 59.5826 54.612ZM63.3886 50.764C63.3886 51.26 63.4686 51.7053 63.6286 52.1C63.794 52.4893 64.042 52.7987 64.3726 53.028C64.7033 53.252 65.114 53.364 65.6046 53.364C66.0953 53.364 66.5193 53.252 66.8766 53.028C67.2393 52.804 67.4766 52.4707 67.5886 52.028H69.1726C69.0766 52.5933 68.85 53.0733 68.4926 53.468C68.1406 53.8627 67.714 54.1613 67.2126 54.364C66.7113 54.5613 66.186 54.66 65.6366 54.66C64.8526 54.66 64.162 54.492 63.5646 54.156C62.9673 53.8147 62.5006 53.3293 62.1646 52.7C61.834 52.0707 61.6686 51.3213 61.6686 50.452C61.6686 49.5933 61.8206 48.836 62.1246 48.18C62.4286 47.5187 62.8686 47.0013 63.4446 46.628C64.0206 46.2547 64.714 46.068 65.5246 46.068C66.3246 46.068 66.9966 46.2387 67.5406 46.58C68.09 46.9213 68.506 47.4013 68.7886 48.02C69.0713 48.6333 69.2126 49.3587 69.2126 50.196V50.764H63.3886ZM63.3886 49.652H67.5806C67.5806 49.22 67.506 48.828 67.3566 48.476C67.2073 48.1187 66.978 47.8387 66.6686 47.636C66.3646 47.428 65.9806 47.324 65.5166 47.324C65.042 47.324 64.6473 47.4387 64.3326 47.668C64.018 47.8973 63.7806 48.1907 63.6206 48.548C63.466 48.9053 63.3886 49.2733 63.3886 49.652ZM76.9595 54.66C76.4262 54.66 75.9515 54.564 75.5355 54.372C75.1248 54.18 74.8022 53.9027 74.5675 53.54C74.3328 53.1773 74.2155 52.74 74.2155 52.228C74.2155 51.3107 74.5408 50.6253 75.1915 50.172C75.8422 49.7187 76.8795 49.4787 78.3035 49.452L79.6635 49.412V48.812C79.6635 48.3373 79.5222 47.964 79.2395 47.692C78.9568 47.42 78.5222 47.2867 77.9355 47.292C77.4928 47.292 77.0982 47.3933 76.7515 47.596C76.4102 47.7987 76.1862 48.132 76.0795 48.596H74.5915C74.6235 48.0467 74.7808 47.5853 75.0635 47.212C75.3515 46.8333 75.7462 46.548 76.2475 46.356C76.7488 46.164 77.3382 46.068 78.0155 46.068C78.7675 46.068 79.3862 46.172 79.8715 46.38C80.3568 46.5827 80.7168 46.8813 80.9515 47.276C81.1915 47.6707 81.3115 48.1507 81.3115 48.716V54.5H79.8635L79.7275 52.98C79.4182 53.6147 79.0262 54.0547 78.5515 54.3C78.0822 54.54 77.5515 54.66 76.9595 54.66ZM77.4955 53.468C77.7568 53.468 78.0155 53.4227 78.2715 53.332C78.5275 53.236 78.7595 53.108 78.9675 52.948C79.1755 52.7827 79.3408 52.5987 79.4635 52.396C79.5915 52.1933 79.6582 51.9853 79.6635 51.772V50.404L78.5435 50.428C77.9728 50.4333 77.4875 50.492 77.0875 50.604C76.6928 50.716 76.3888 50.8893 76.1755 51.124C75.9675 51.3587 75.8635 51.6707 75.8635 52.06C75.8635 52.5027 76.0182 52.8493 76.3275 53.1C76.6368 53.3453 77.0262 53.468 77.4955 53.468ZM83.7176 54.5V46.228H85.3896V47.42C85.523 47.196 85.7016 46.9853 85.9256 46.788C86.155 46.5907 86.435 46.4307 86.7656 46.308C87.1016 46.1853 87.4883 46.124 87.9256 46.124C88.443 46.124 88.9203 46.228 89.3576 46.436C89.8003 46.6387 90.155 46.9587 90.4216 47.396C90.6883 47.828 90.8216 48.388 90.8216 49.076V54.5H89.1096V49.26C89.1096 48.668 88.9496 48.228 88.6296 47.94C88.315 47.652 87.907 47.508 87.4056 47.508C87.0696 47.508 86.7496 47.564 86.4456 47.676C86.1416 47.788 85.8963 47.9587 85.7096 48.188C85.523 48.412 85.4296 48.6947 85.4296 49.036V54.5H83.7176ZM96.0305 54.66C94.9425 54.66 94.0865 54.2893 93.4625 53.548C92.8385 52.8013 92.5265 51.7267 92.5265 50.324C92.5265 49.4653 92.6518 48.7187 92.9025 48.084C93.1532 47.444 93.5265 46.948 94.0225 46.596C94.5238 46.244 95.1425 46.068 95.8785 46.068C96.2518 46.068 96.5825 46.1133 96.8705 46.204C97.1638 46.2947 97.4198 46.412 97.6385 46.556C97.8625 46.7 98.0465 46.8547 98.1905 47.02C98.3398 47.1853 98.4545 47.34 98.5345 47.484V42.612H100.254V54.5H98.9745L98.7825 52.804C98.7238 52.9853 98.6332 53.1827 98.5105 53.396C98.3878 53.6093 98.2198 53.812 98.0065 54.004C97.7985 54.196 97.5318 54.3533 97.2065 54.476C96.8812 54.5987 96.4892 54.66 96.0305 54.66ZM96.3585 53.372C97.1265 53.372 97.6812 53.132 98.0225 52.652C98.3638 52.1667 98.5345 51.372 98.5345 50.268C98.5292 49.644 98.4518 49.116 98.3025 48.684C98.1532 48.252 97.9212 47.9267 97.6065 47.708C97.2972 47.484 96.8892 47.372 96.3825 47.372C95.7478 47.372 95.2305 47.6013 94.8305 48.06C94.4305 48.5133 94.2305 49.2493 94.2305 50.268C94.2305 51.2707 94.4118 52.0387 94.7745 52.572C95.1425 53.1053 95.6705 53.372 96.3585 53.372ZM110.866 42.772C111.698 42.772 112.437 42.9427 113.082 43.284C113.728 43.6253 114.245 44.084 114.634 44.66C115.029 45.236 115.264 45.8733 115.338 46.572H113.514C113.434 46.1347 113.28 45.74 113.05 45.388C112.826 45.0307 112.528 44.7507 112.154 44.548C111.781 44.34 111.338 44.236 110.826 44.236C110.17 44.236 109.613 44.3907 109.154 44.7C108.696 45.0093 108.346 45.492 108.106 46.148C107.872 46.804 107.754 47.6493 107.754 48.684C107.754 50.2467 108.018 51.3907 108.546 52.116C109.074 52.836 109.834 53.196 110.826 53.196C111.338 53.196 111.781 53.0867 112.154 52.868C112.528 52.644 112.826 52.348 113.05 51.98C113.28 51.6067 113.434 51.2013 113.514 50.764H115.338C115.274 51.2707 115.141 51.7587 114.938 52.228C114.736 52.692 114.453 53.108 114.09 53.476C113.733 53.844 113.288 54.1347 112.754 54.348C112.221 54.556 111.592 54.66 110.866 54.66C109.821 54.66 108.925 54.42 108.178 53.94C107.432 53.4547 106.858 52.7667 106.458 51.876C106.064 50.98 105.866 49.908 105.866 48.66C105.866 47.4173 106.064 46.3587 106.458 45.484C106.853 44.604 107.424 43.932 108.17 43.468C108.917 43.004 109.816 42.772 110.866 42.772ZM120.671 54.66C119.898 54.66 119.221 54.4947 118.639 54.164C118.063 53.828 117.615 53.3427 117.295 52.708C116.981 52.0733 116.823 51.3053 116.823 50.404C116.823 49.5347 116.973 48.7747 117.271 48.124C117.575 47.4733 118.015 46.9693 118.591 46.612C119.167 46.2493 119.863 46.068 120.679 46.068C121.458 46.068 122.133 46.2387 122.703 46.58C123.274 46.916 123.717 47.4093 124.031 48.06C124.346 48.7053 124.503 49.4867 124.503 50.404C124.503 51.2413 124.354 51.98 124.055 52.62C123.762 53.26 123.33 53.7613 122.759 54.124C122.194 54.4813 121.498 54.66 120.671 54.66ZM120.679 53.34C121.149 53.34 121.541 53.2173 121.855 52.972C122.175 52.7213 122.415 52.372 122.575 51.924C122.735 51.4707 122.815 50.948 122.815 50.356C122.815 49.8067 122.743 49.308 122.599 48.86C122.461 48.4067 122.234 48.0467 121.919 47.78C121.605 47.5133 121.191 47.38 120.679 47.38C120.199 47.38 119.799 47.5027 119.479 47.748C119.159 47.988 118.917 48.332 118.751 48.78C118.591 49.2227 118.511 49.748 118.511 50.356C118.511 50.8947 118.583 51.3907 118.727 51.844C118.871 52.2973 119.103 52.66 119.423 52.932C119.743 53.204 120.162 53.34 120.679 53.34ZM128.583 54.612C128.092 54.612 127.697 54.548 127.399 54.42C127.105 54.292 126.881 54.1213 126.727 53.908C126.572 53.6893 126.468 53.444 126.415 53.172C126.367 52.8947 126.343 52.6093 126.343 52.316V42.612H128.031V52.14C128.031 52.524 128.105 52.8173 128.255 53.02C128.409 53.2227 128.644 53.3373 128.959 53.364L129.391 53.38V54.468C129.257 54.5107 129.119 54.5453 128.975 54.572C128.836 54.5987 128.705 54.612 128.583 54.612ZM134.453 54.66C133.679 54.66 133.002 54.4947 132.421 54.164C131.845 53.828 131.397 53.3427 131.077 52.708C130.762 52.0733 130.605 51.3053 130.605 50.404C130.605 49.5347 130.754 48.7747 131.053 48.124C131.357 47.4733 131.797 46.9693 132.373 46.612C132.949 46.2493 133.645 46.068 134.461 46.068C135.239 46.068 135.914 46.2387 136.485 46.58C137.055 46.916 137.498 47.4093 137.813 48.06C138.127 48.7053 138.285 49.4867 138.285 50.404C138.285 51.2413 138.135 51.98 137.837 52.62C137.543 53.26 137.111 53.7613 136.541 54.124C135.975 54.4813 135.279 54.66 134.453 54.66ZM134.461 53.34C134.93 53.34 135.322 53.2173 135.637 52.972C135.957 52.7213 136.197 52.372 136.357 51.924C136.517 51.4707 136.597 50.948 136.597 50.356C136.597 49.8067 136.525 49.308 136.381 48.86C136.242 48.4067 136.015 48.0467 135.701 47.78C135.386 47.5133 134.973 47.38 134.461 47.38C133.981 47.38 133.581 47.5027 133.261 47.748C132.941 47.988 132.698 48.332 132.533 48.78C132.373 49.2227 132.293 49.748 132.293 50.356C132.293 50.8947 132.365 51.3907 132.509 51.844C132.653 52.2973 132.885 52.66 133.205 52.932C133.525 53.204 133.943 53.34 134.461 53.34ZM140.124 54.5V46.228H141.764V47.924C141.903 47.5187 142.095 47.18 142.34 46.908C142.591 46.6307 142.881 46.4227 143.212 46.284C143.543 46.14 143.892 46.068 144.26 46.068C144.372 46.068 144.479 46.076 144.58 46.092C144.681 46.1027 144.761 46.124 144.82 46.156V47.804C144.751 47.772 144.66 47.7507 144.548 47.74C144.441 47.7293 144.348 47.7213 144.268 47.716C143.905 47.6893 143.575 47.708 143.276 47.772C142.977 47.836 142.719 47.9427 142.5 48.092C142.287 48.2413 142.121 48.436 142.004 48.676C141.892 48.916 141.836 49.1987 141.836 49.524V54.5H140.124ZM149.686 49.716V51.02L145.542 51.036V49.724L149.686 49.716ZM152.131 54.5V42.932H155.979C157.414 42.932 158.494 43.1907 159.219 43.708C159.95 44.2253 160.315 44.972 160.315 45.948C160.315 46.5507 160.158 47.0707 159.843 47.508C159.534 47.94 158.99 48.3027 158.211 48.596C158.67 48.6973 159.054 48.844 159.363 49.036C159.672 49.2227 159.915 49.4387 160.091 49.684C160.272 49.9293 160.4 50.196 160.475 50.484C160.555 50.772 160.595 51.0707 160.595 51.38C160.595 52.4307 160.224 53.2147 159.483 53.732C158.747 54.244 157.624 54.5 156.115 54.5H152.131ZM153.843 53.108H156.123C157.019 53.108 157.699 52.956 158.163 52.652C158.627 52.3427 158.859 51.8813 158.859 51.268C158.859 50.8253 158.744 50.4627 158.515 50.18C158.286 49.8973 157.976 49.6893 157.587 49.556C157.198 49.4227 156.763 49.356 156.283 49.356H153.843V53.108ZM153.843 47.94H156.283C156.571 47.94 156.854 47.9107 157.131 47.852C157.408 47.7933 157.662 47.6973 157.891 47.564C158.12 47.4253 158.304 47.2413 158.443 47.012C158.582 46.7827 158.651 46.5027 158.651 46.172C158.651 45.5427 158.414 45.076 157.939 44.772C157.464 44.468 156.848 44.316 156.091 44.316H153.843V47.94ZM164.848 54.612C164.358 54.612 163.963 54.548 163.664 54.42C163.371 54.292 163.147 54.1213 162.992 53.908C162.838 53.6893 162.734 53.444 162.68 53.172C162.632 52.8947 162.608 52.6093 162.608 52.316V42.612H164.296V52.14C164.296 52.524 164.371 52.8173 164.52 53.02C164.675 53.2227 164.91 53.3373 165.224 53.364L165.656 53.38V54.468C165.523 54.5107 165.384 54.5453 165.24 54.572C165.102 54.5987 164.971 54.612 164.848 54.612ZM169.26 46.228V54.5H167.612V46.228H169.26ZM169.292 42.94V44.628H167.572V42.94H169.292ZM171.811 54.5V46.228H173.483V47.42C173.617 47.196 173.795 46.9853 174.019 46.788C174.249 46.5907 174.529 46.4307 174.859 46.308C175.195 46.1853 175.582 46.124 176.019 46.124C176.537 46.124 177.014 46.228 177.451 46.436C177.894 46.6387 178.249 46.9587 178.515 47.396C178.782 47.828 178.915 48.388 178.915 49.076V54.5H177.203V49.26C177.203 48.668 177.043 48.228 176.723 47.94C176.409 47.652 176.001 47.508 175.499 47.508C175.163 47.508 174.843 47.564 174.539 47.676C174.235 47.788 173.99 47.9587 173.803 48.188C173.617 48.412 173.523 48.6947 173.523 49.036V54.5H171.811ZM184.124 54.66C183.036 54.66 182.18 54.2893 181.556 53.548C180.932 52.8013 180.62 51.7267 180.62 50.324C180.62 49.4653 180.746 48.7187 180.996 48.084C181.247 47.444 181.62 46.948 182.116 46.596C182.618 46.244 183.236 46.068 183.972 46.068C184.346 46.068 184.676 46.1133 184.964 46.204C185.258 46.2947 185.514 46.412 185.732 46.556C185.956 46.7 186.14 46.8547 186.284 47.02C186.434 47.1853 186.548 47.34 186.628 47.484V42.612H188.348V54.5H187.068L186.876 52.804C186.818 52.9853 186.727 53.1827 186.604 53.396C186.482 53.6093 186.314 53.812 186.1 54.004C185.892 54.196 185.626 54.3533 185.3 54.476C184.975 54.5987 184.583 54.66 184.124 54.66ZM184.452 53.372C185.22 53.372 185.775 53.132 186.116 52.652C186.458 52.1667 186.628 51.372 186.628 50.268C186.623 49.644 186.546 49.116 186.396 48.684C186.247 48.252 186.015 47.9267 185.7 47.708C185.391 47.484 184.983 47.372 184.476 47.372C183.842 47.372 183.324 47.6013 182.924 48.06C182.524 48.5133 182.324 49.2493 182.324 50.268C182.324 51.2707 182.506 52.0387 182.868 52.572C183.236 53.1053 183.764 53.372 184.452 53.372ZM19.6732 73.5L23.8492 61.932H25.7372L29.9052 73.5H28.1772L27.0892 70.468H22.5212L21.4092 73.5H19.6732ZM22.9292 68.916H26.6492L24.8012 63.612L22.9292 68.916ZM34.82 65.068C35.4387 65.068 35.988 65.1907 36.468 65.436C36.9533 65.676 37.3453 66.012 37.644 66.444C37.9427 66.876 38.124 67.38 38.188 67.956H36.708C36.66 67.684 36.556 67.4307 36.396 67.196C36.2413 66.9613 36.0307 66.7747 35.764 66.636C35.5027 66.492 35.1907 66.42 34.828 66.42C34.1667 66.42 33.628 66.6627 33.212 67.148C32.796 67.6333 32.588 68.3773 32.588 69.38C32.588 70.2973 32.78 71.028 33.164 71.572C33.5533 72.116 34.1187 72.388 34.86 72.388C35.2173 72.388 35.5267 72.3133 35.788 72.164C36.0547 72.0147 36.2653 71.8227 36.42 71.588C36.5747 71.3533 36.6733 71.1107 36.716 70.86H38.172C38.1133 71.4147 37.932 71.9027 37.628 72.324C37.3293 72.7453 36.9373 73.0733 36.452 73.308C35.972 73.5427 35.428 73.66 34.82 73.66C34.068 73.66 33.4013 73.4973 32.82 73.172C32.2387 72.8413 31.7827 72.3587 31.452 71.724C31.1267 71.084 30.964 70.308 30.964 69.396C30.964 68.5373 31.116 67.7827 31.42 67.132C31.724 66.4813 32.164 65.9747 32.74 65.612C33.3213 65.2493 34.0147 65.068 34.82 65.068ZM43.445 65.068C44.0637 65.068 44.613 65.1907 45.093 65.436C45.5783 65.676 45.9703 66.012 46.269 66.444C46.5677 66.876 46.749 67.38 46.813 67.956H45.333C45.285 67.684 45.181 67.4307 45.021 67.196C44.8663 66.9613 44.6557 66.7747 44.389 66.636C44.1277 66.492 43.8157 66.42 43.453 66.42C42.7917 66.42 42.253 66.6627 41.837 67.148C41.421 67.6333 41.213 68.3773 41.213 69.38C41.213 70.2973 41.405 71.028 41.789 71.572C42.1783 72.116 42.7437 72.388 43.485 72.388C43.8423 72.388 44.1517 72.3133 44.413 72.164C44.6797 72.0147 44.8903 71.8227 45.045 71.588C45.1997 71.3533 45.2983 71.1107 45.341 70.86H46.797C46.7383 71.4147 46.557 71.9027 46.253 72.324C45.9543 72.7453 45.5623 73.0733 45.077 73.308C44.597 73.5427 44.053 73.66 43.445 73.66C42.693 73.66 42.0263 73.4973 41.445 73.172C40.8637 72.8413 40.4077 72.3587 40.077 71.724C39.7517 71.084 39.589 70.308 39.589 69.396C39.589 68.5373 39.741 67.7827 40.045 67.132C40.349 66.4813 40.789 65.9747 41.365 65.612C41.9463 65.2493 42.6397 65.068 43.445 65.068ZM49.998 69.764C49.998 70.26 50.078 70.7053 50.238 71.1C50.4033 71.4893 50.6513 71.7987 50.982 72.028C51.3127 72.252 51.7233 72.364 52.214 72.364C52.7047 72.364 53.1287 72.252 53.486 72.028C53.8487 71.804 54.086 71.4707 54.198 71.028H55.782C55.686 71.5933 55.4593 72.0733 55.102 72.468C54.75 72.8627 54.3233 73.1613 53.822 73.364C53.3207 73.5613 52.7953 73.66 52.246 73.66C51.462 73.66 50.7713 73.492 50.174 73.156C49.5767 72.8147 49.11 72.3293 48.774 71.7C48.4433 71.0707 48.278 70.3213 48.278 69.452C48.278 68.5933 48.43 67.836 48.734 67.18C49.038 66.5187 49.478 66.0013 50.054 65.628C50.63 65.2547 51.3233 65.068 52.134 65.068C52.934 65.068 53.606 65.2387 54.15 65.58C54.6993 65.9213 55.1153 66.4013 55.398 67.02C55.6807 67.6333 55.822 68.3587 55.822 69.196V69.764H49.998ZM49.998 68.652H54.19C54.19 68.22 54.1153 67.828 53.966 67.476C53.8167 67.1187 53.5873 66.8387 53.278 66.636C52.974 66.428 52.59 66.324 52.126 66.324C51.6513 66.324 51.2567 66.4387 50.942 66.668C50.6273 66.8973 50.39 67.1907 50.23 67.548C50.0753 67.9053 49.998 68.2733 49.998 68.652ZM60.7184 73.66C60.1424 73.66 59.601 73.5693 59.0944 73.388C58.593 73.2067 58.1717 72.9213 57.8304 72.532C57.4944 72.1427 57.2837 71.644 57.1984 71.036H58.7264C58.7957 71.3507 58.9264 71.612 59.1184 71.82C59.3157 72.0227 59.5504 72.1747 59.8224 72.276C60.0997 72.372 60.3957 72.42 60.7104 72.42C61.233 72.42 61.6544 72.3267 61.9744 72.14C62.2997 71.948 62.4624 71.6547 62.4624 71.26C62.4624 70.9773 62.3744 70.7507 62.1984 70.58C62.0277 70.4093 61.7557 70.284 61.3824 70.204L59.7344 69.812C59.0517 69.652 58.505 69.3987 58.0944 69.052C57.6837 68.7 57.4757 68.2093 57.4704 67.58C57.4704 67.0947 57.5904 66.6627 57.8304 66.284C58.0757 65.9053 58.4384 65.6093 58.9184 65.396C59.3984 65.1773 59.9957 65.068 60.7104 65.068C61.6437 65.068 62.393 65.276 62.9584 65.692C63.5237 66.108 63.817 66.7107 63.8384 67.5H62.3584C62.305 67.1213 62.1317 66.8253 61.8384 66.612C61.5504 66.3933 61.169 66.284 60.6944 66.284C60.2037 66.284 59.801 66.3827 59.4864 66.58C59.1717 66.772 59.0144 67.068 59.0144 67.468C59.0144 67.74 59.129 67.956 59.3584 68.116C59.5877 68.2707 59.9317 68.3987 60.3904 68.5L61.9584 68.892C62.3637 68.9987 62.697 69.14 62.9584 69.316C63.2197 69.4867 63.425 69.676 63.5744 69.884C63.7237 70.092 63.8277 70.308 63.8864 70.532C63.9504 70.756 63.9824 70.9667 63.9824 71.164C63.9824 71.6867 63.849 72.1347 63.5824 72.508C63.321 72.876 62.945 73.1613 62.4544 73.364C61.969 73.5613 61.3904 73.66 60.7184 73.66ZM68.8277 73.66C68.2517 73.66 67.7104 73.5693 67.2037 73.388C66.7024 73.2067 66.2811 72.9213 65.9397 72.532C65.6037 72.1427 65.3931 71.644 65.3077 71.036H66.8357C66.9051 71.3507 67.0357 71.612 67.2277 71.82C67.4251 72.0227 67.6597 72.1747 67.9317 72.276C68.2091 72.372 68.5051 72.42 68.8197 72.42C69.3424 72.42 69.7637 72.3267 70.0837 72.14C70.4091 71.948 70.5717 71.6547 70.5717 71.26C70.5717 70.9773 70.4837 70.7507 70.3077 70.58C70.1371 70.4093 69.8651 70.284 69.4917 70.204L67.8437 69.812C67.1611 69.652 66.6144 69.3987 66.2037 69.052C65.7931 68.7 65.5851 68.2093 65.5797 67.58C65.5797 67.0947 65.6997 66.6627 65.9397 66.284C66.1851 65.9053 66.5477 65.6093 67.0277 65.396C67.5077 65.1773 68.1051 65.068 68.8197 65.068C69.7531 65.068 70.5024 65.276 71.0677 65.692C71.6331 66.108 71.9264 66.7107 71.9477 67.5H70.4677C70.4144 67.1213 70.2411 66.8253 69.9477 66.612C69.6597 66.3933 69.2784 66.284 68.8037 66.284C68.3131 66.284 67.9104 66.3827 67.5957 66.58C67.2811 66.772 67.1237 67.068 67.1237 67.468C67.1237 67.74 67.2384 67.956 67.4677 68.116C67.6971 68.2707 68.0411 68.3987 68.4997 68.5L70.0677 68.892C70.4731 68.9987 70.8064 69.14 71.0677 69.316C71.3291 69.4867 71.5344 69.676 71.6837 69.884C71.8331 70.092 71.9371 70.308 71.9957 70.532C72.0597 70.756 72.0917 70.9667 72.0917 71.164C72.0917 71.6867 71.9584 72.1347 71.6917 72.508C71.4304 72.876 71.0544 73.1613 70.5637 73.364C70.0784 73.5613 69.4997 73.66 68.8277 73.66ZM75.8381 65.228V73.5H74.1901V65.228H75.8381ZM75.8701 61.94V63.628H74.1501V61.94H75.8701ZM82.6215 73.66C82.1575 73.66 81.7628 73.5987 81.4375 73.476C81.1122 73.3533 80.8428 73.196 80.6295 73.004C80.4215 72.812 80.2562 72.6093 80.1335 72.396C80.0162 72.1827 79.9255 71.9853 79.8615 71.804L79.6775 73.5H78.3895V61.612H80.1175V66.484C80.1922 66.34 80.3015 66.1853 80.4455 66.02C80.5948 65.8547 80.7788 65.7 80.9975 65.556C81.2215 65.412 81.4802 65.2947 81.7735 65.204C82.0668 65.1133 82.3975 65.068 82.7655 65.068C83.7948 65.068 84.6108 65.4307 85.2135 66.156C85.8215 66.8813 86.1255 67.9373 86.1255 69.324C86.1255 70.1987 85.9948 70.9613 85.7335 71.612C85.4722 72.2573 85.0802 72.7613 84.5575 73.124C84.0402 73.4813 83.3948 73.66 82.6215 73.66ZM82.2855 72.372C82.9148 72.372 83.4268 72.1267 83.8215 71.636C84.2215 71.1453 84.4215 70.356 84.4215 69.268C84.4215 68.3293 84.2348 67.612 83.8615 67.116C83.4935 66.62 82.9602 66.372 82.2615 66.372C81.7602 66.372 81.3522 66.484 81.0375 66.708C80.7228 66.9267 80.4908 67.252 80.3415 67.684C80.1975 68.116 80.1228 68.644 80.1175 69.268C80.1175 70.372 80.2882 71.1667 80.6295 71.652C80.9708 72.132 81.5228 72.372 82.2855 72.372ZM89.76 65.228V73.5H88.112V65.228H89.76ZM89.792 61.94V63.628H88.072V61.94H89.792ZM94.5514 73.612C94.0607 73.612 93.666 73.548 93.3674 73.42C93.074 73.292 92.85 73.1213 92.6954 72.908C92.5407 72.6893 92.4367 72.444 92.3834 72.172C92.3354 71.8947 92.3114 71.6093 92.3114 71.316V61.612H93.9994V71.14C93.9994 71.524 94.074 71.8173 94.2234 72.02C94.378 72.2227 94.6127 72.3373 94.9274 72.364L95.3594 72.38V73.468C95.226 73.5107 95.0874 73.5453 94.9434 73.572C94.8047 73.5987 94.674 73.612 94.5514 73.612ZM98.9631 65.228V73.5H97.3151V65.228H98.9631ZM98.9951 61.94V63.628H97.2751V61.94H98.9951ZM105.933 66.46H104.077L104.085 71.396C104.085 71.668 104.111 71.868 104.165 71.996C104.223 72.1187 104.319 72.1987 104.453 72.236C104.591 72.268 104.778 72.284 105.013 72.284H105.981V73.396C105.874 73.4387 105.714 73.476 105.501 73.508C105.293 73.54 105.023 73.556 104.693 73.556C104.079 73.556 103.602 73.4733 103.261 73.308C102.925 73.1427 102.69 72.9053 102.557 72.596C102.429 72.2813 102.365 71.9027 102.365 71.46V66.46H101.021V65.228H102.413L102.837 62.796H104.077V65.22H105.933V66.46ZM108.943 76.14C108.436 76.14 108.084 76.1027 107.887 76.028C107.695 75.9533 107.599 75.916 107.599 75.916V74.812L108.439 74.828C108.759 74.844 109.02 74.8253 109.223 74.772C109.431 74.7187 109.594 74.644 109.711 74.548C109.834 74.4573 109.927 74.3587 109.991 74.252C110.055 74.1453 110.103 74.0467 110.135 73.956L110.391 73.26L107.167 65.228H108.879L111.199 71.34L113.503 65.228H115.183L111.735 73.964C111.5 74.54 111.242 74.9853 110.959 75.3C110.682 75.6147 110.375 75.8333 110.039 75.956C109.703 76.0787 109.338 76.14 108.943 76.14Z" fill="white"/>
</svg>
