<svg width="259" height="295" viewBox="0 0 259 295" fill="none" xmlns="http://www.w3.org/2000/svg">
<g clip-path="url(#clip0_331_14466)">
<rect y="0.5" width="259" height="294" rx="4" fill="#E2B7F7"/>
<circle cx="194" cy="69.5" r="75" fill="#F9EDFE"/>
<path d="M110.751 296.783L-0.454494 296.783L-0.454553 95.4997L110.751 296.783Z" fill="#C0F6FF"/>
<path d="M82.464 171.932H89.856L89.848 173.404H84.208V176.98H89.224V178.436H84.208V183.5H82.464V171.932ZM91.7381 183.5V175.228H93.3781V176.924C93.5168 176.519 93.7088 176.18 93.9541 175.908C94.2048 175.631 94.4955 175.423 94.8261 175.284C95.1568 175.14 95.5061 175.068 95.8741 175.068C95.9861 175.068 96.0928 175.076 96.1941 175.092C96.2955 175.103 96.3755 175.124 96.4341 175.156V176.804C96.3648 176.772 96.2741 176.751 96.1621 176.74C96.0555 176.729 95.9621 176.721 95.8821 176.716C95.5195 176.689 95.1888 176.708 94.8901 176.772C94.5915 176.836 94.3328 176.943 94.1141 177.092C93.9008 177.241 93.7355 177.436 93.6181 177.676C93.5061 177.916 93.4501 178.199 93.4501 178.524V183.5H91.7381ZM99.1748 179.764C99.1748 180.26 99.2548 180.705 99.4148 181.1C99.5801 181.489 99.8281 181.799 100.159 182.028C100.489 182.252 100.9 182.364 101.391 182.364C101.881 182.364 102.305 182.252 102.663 182.028C103.025 181.804 103.263 181.471 103.375 181.028H104.959C104.863 181.593 104.636 182.073 104.279 182.468C103.927 182.863 103.5 183.161 102.999 183.364C102.497 183.561 101.972 183.66 101.423 183.66C100.639 183.66 99.9481 183.492 99.3508 183.156C98.7534 182.815 98.2868 182.329 97.9508 181.7C97.6201 181.071 97.4548 180.321 97.4548 179.452C97.4548 178.593 97.6068 177.836 97.9108 177.18C98.2148 176.519 98.6548 176.001 99.2308 175.628C99.8068 175.255 100.5 175.068 101.311 175.068C102.111 175.068 102.783 175.239 103.327 175.58C103.876 175.921 104.292 176.401 104.575 177.02C104.857 177.633 104.999 178.359 104.999 179.196V179.764H99.1748ZM99.1748 178.652H103.367C103.367 178.22 103.292 177.828 103.143 177.476C102.993 177.119 102.764 176.839 102.455 176.636C102.151 176.428 101.767 176.324 101.303 176.324C100.828 176.324 100.433 176.439 100.119 176.668C99.8041 176.897 99.5668 177.191 99.4068 177.548C99.2521 177.905 99.1748 178.273 99.1748 178.652ZM109.895 183.66C109.319 183.66 108.778 183.569 108.271 183.388C107.77 183.207 107.348 182.921 107.007 182.532C106.671 182.143 106.46 181.644 106.375 181.036H107.903C107.972 181.351 108.103 181.612 108.295 181.82C108.492 182.023 108.727 182.175 108.999 182.276C109.276 182.372 109.572 182.42 109.887 182.42C110.41 182.42 110.831 182.327 111.151 182.14C111.476 181.948 111.639 181.655 111.639 181.26C111.639 180.977 111.551 180.751 111.375 180.58C111.204 180.409 110.932 180.284 110.559 180.204L108.911 179.812C108.228 179.652 107.682 179.399 107.271 179.052C106.86 178.7 106.652 178.209 106.647 177.58C106.647 177.095 106.767 176.663 107.007 176.284C107.252 175.905 107.615 175.609 108.095 175.396C108.575 175.177 109.172 175.068 109.887 175.068C110.82 175.068 111.57 175.276 112.135 175.692C112.7 176.108 112.994 176.711 113.015 177.5H111.535C111.482 177.121 111.308 176.825 111.015 176.612C110.727 176.393 110.346 176.284 109.871 176.284C109.38 176.284 108.978 176.383 108.663 176.58C108.348 176.772 108.191 177.068 108.191 177.468C108.191 177.74 108.306 177.956 108.535 178.116C108.764 178.271 109.108 178.399 109.567 178.5L111.135 178.892C111.54 178.999 111.874 179.14 112.135 179.316C112.396 179.487 112.602 179.676 112.751 179.884C112.9 180.092 113.004 180.308 113.063 180.532C113.127 180.756 113.159 180.967 113.159 181.164C113.159 181.687 113.026 182.135 112.759 182.508C112.498 182.876 112.122 183.161 111.631 183.364C111.146 183.561 110.567 183.66 109.895 183.66ZM115.098 183.5V171.612H116.786V176.436C116.919 176.217 117.098 176.009 117.322 175.812C117.551 175.615 117.828 175.455 118.154 175.332C118.484 175.204 118.868 175.14 119.306 175.14C119.844 175.14 120.33 175.241 120.762 175.444C121.199 175.641 121.546 175.929 121.802 176.308C122.063 176.681 122.194 177.127 122.194 177.644V183.5H120.482V177.956C120.482 177.492 120.322 177.135 120.002 176.884C119.682 176.633 119.271 176.508 118.77 176.508C118.434 176.508 118.114 176.567 117.81 176.684C117.511 176.796 117.268 176.967 117.082 177.196C116.9 177.42 116.81 177.703 116.81 178.044V183.5H115.098ZM130.324 183.66C129.79 183.66 129.316 183.564 128.9 183.372C128.489 183.18 128.166 182.903 127.932 182.54C127.697 182.177 127.58 181.74 127.58 181.228C127.58 180.311 127.905 179.625 128.556 179.172C129.206 178.719 130.244 178.479 131.668 178.452L133.028 178.412V177.812C133.028 177.337 132.886 176.964 132.604 176.692C132.321 176.42 131.886 176.287 131.3 176.292C130.857 176.292 130.462 176.393 130.116 176.596C129.774 176.799 129.55 177.132 129.444 177.596H127.956C127.988 177.047 128.145 176.585 128.428 176.212C128.716 175.833 129.11 175.548 129.612 175.356C130.113 175.164 130.702 175.068 131.38 175.068C132.132 175.068 132.75 175.172 133.236 175.38C133.721 175.583 134.081 175.881 134.316 176.276C134.556 176.671 134.676 177.151 134.676 177.716V183.5H133.228L133.092 181.98C132.782 182.615 132.39 183.055 131.916 183.3C131.446 183.54 130.916 183.66 130.324 183.66ZM130.86 182.468C131.121 182.468 131.38 182.423 131.636 182.332C131.892 182.236 132.124 182.108 132.332 181.948C132.54 181.783 132.705 181.599 132.828 181.396C132.956 181.193 133.022 180.985 133.028 180.772V179.404L131.908 179.428C131.337 179.433 130.852 179.492 130.452 179.604C130.057 179.716 129.753 179.889 129.54 180.124C129.332 180.359 129.228 180.671 129.228 181.06C129.228 181.503 129.382 181.849 129.692 182.1C130.001 182.345 130.39 182.468 130.86 182.468ZM137.082 183.5V175.228H138.754V176.42C138.887 176.196 139.066 175.985 139.29 175.788C139.519 175.591 139.799 175.431 140.13 175.308C140.466 175.185 140.853 175.124 141.29 175.124C141.807 175.124 142.285 175.228 142.722 175.436C143.165 175.639 143.519 175.959 143.786 176.396C144.053 176.828 144.186 177.388 144.186 178.076V183.5H142.474V178.26C142.474 177.668 142.314 177.228 141.994 176.94C141.679 176.652 141.271 176.508 140.77 176.508C140.434 176.508 140.114 176.564 139.81 176.676C139.506 176.788 139.261 176.959 139.074 177.188C138.887 177.412 138.794 177.695 138.794 178.036V183.5H137.082ZM149.395 183.66C148.307 183.66 147.451 183.289 146.827 182.548C146.203 181.801 145.891 180.727 145.891 179.324C145.891 178.465 146.016 177.719 146.267 177.084C146.517 176.444 146.891 175.948 147.387 175.596C147.888 175.244 148.507 175.068 149.243 175.068C149.616 175.068 149.947 175.113 150.235 175.204C150.528 175.295 150.784 175.412 151.003 175.556C151.227 175.7 151.411 175.855 151.555 176.02C151.704 176.185 151.819 176.34 151.899 176.484V171.612H153.619V183.5H152.339L152.147 181.804C152.088 181.985 151.997 182.183 151.875 182.396C151.752 182.609 151.584 182.812 151.371 183.004C151.163 183.196 150.896 183.353 150.571 183.476C150.245 183.599 149.853 183.66 149.395 183.66ZM149.723 182.372C150.491 182.372 151.045 182.132 151.387 181.652C151.728 181.167 151.899 180.372 151.899 179.268C151.893 178.644 151.816 178.116 151.667 177.684C151.517 177.252 151.285 176.927 150.971 176.708C150.661 176.484 150.253 176.372 149.747 176.372C149.112 176.372 148.595 176.601 148.195 177.06C147.795 177.513 147.595 178.249 147.595 179.268C147.595 180.271 147.776 181.039 148.139 181.572C148.507 182.105 149.035 182.372 149.723 182.372ZM81.6 202.5L85.776 190.932H87.664L91.832 202.5H90.104L89.016 199.468H84.448L83.336 202.5H81.6ZM84.856 197.916H88.576L86.728 192.612L84.856 197.916ZM94.6748 198.764C94.6748 199.26 94.7548 199.705 94.9148 200.1C95.0801 200.489 95.3281 200.799 95.6588 201.028C95.9894 201.252 96.4001 201.364 96.8908 201.364C97.3814 201.364 97.8054 201.252 98.1628 201.028C98.5254 200.804 98.7628 200.471 98.8748 200.028H100.459C100.363 200.593 100.136 201.073 99.7788 201.468C99.4268 201.863 99.0001 202.161 98.4988 202.364C97.9974 202.561 97.4721 202.66 96.9227 202.66C96.1388 202.66 95.4481 202.492 94.8508 202.156C94.2534 201.815 93.7868 201.329 93.4508 200.7C93.1201 200.071 92.9548 199.321 92.9548 198.452C92.9548 197.593 93.1068 196.836 93.4108 196.18C93.7148 195.519 94.1548 195.001 94.7308 194.628C95.3068 194.255 96.0001 194.068 96.8108 194.068C97.6108 194.068 98.2828 194.239 98.8268 194.58C99.3761 194.921 99.7921 195.401 100.075 196.02C100.357 196.633 100.499 197.359 100.499 198.196V198.764H94.6748ZM94.6748 197.652H98.8668C98.8668 197.22 98.7921 196.828 98.6428 196.476C98.4934 196.119 98.2641 195.839 97.9548 195.636C97.6508 195.428 97.2668 195.324 96.8028 195.324C96.3281 195.324 95.9334 195.439 95.6188 195.668C95.3041 195.897 95.0668 196.191 94.9068 196.548C94.7521 196.905 94.6748 197.273 94.6748 197.652ZM105.395 202.66C104.819 202.66 104.278 202.569 103.771 202.388C103.27 202.207 102.848 201.921 102.507 201.532C102.171 201.143 101.96 200.644 101.875 200.036H103.403C103.472 200.351 103.603 200.612 103.795 200.82C103.992 201.023 104.227 201.175 104.499 201.276C104.776 201.372 105.072 201.42 105.387 201.42C105.91 201.42 106.331 201.327 106.651 201.14C106.976 200.948 107.139 200.655 107.139 200.26C107.139 199.977 107.051 199.751 106.875 199.58C106.704 199.409 106.432 199.284 106.059 199.204L104.411 198.812C103.728 198.652 103.182 198.399 102.771 198.052C102.36 197.7 102.152 197.209 102.147 196.58C102.147 196.095 102.267 195.663 102.507 195.284C102.752 194.905 103.115 194.609 103.595 194.396C104.075 194.177 104.672 194.068 105.387 194.068C106.32 194.068 107.07 194.276 107.635 194.692C108.2 195.108 108.494 195.711 108.515 196.5H107.035C106.982 196.121 106.808 195.825 106.515 195.612C106.227 195.393 105.846 195.284 105.371 195.284C104.88 195.284 104.478 195.383 104.163 195.58C103.848 195.772 103.691 196.068 103.691 196.468C103.691 196.74 103.806 196.956 104.035 197.116C104.264 197.271 104.608 197.399 105.067 197.5L106.635 197.892C107.04 197.999 107.374 198.14 107.635 198.316C107.896 198.487 108.102 198.676 108.251 198.884C108.4 199.092 108.504 199.308 108.563 199.532C108.627 199.756 108.659 199.967 108.659 200.164C108.659 200.687 108.526 201.135 108.259 201.508C107.998 201.876 107.622 202.161 107.131 202.364C106.646 202.561 106.067 202.66 105.395 202.66ZM114.875 195.46H113.019L113.027 200.396C113.027 200.668 113.054 200.868 113.107 200.996C113.166 201.119 113.262 201.199 113.395 201.236C113.534 201.268 113.72 201.284 113.955 201.284H114.923V202.396C114.816 202.439 114.656 202.476 114.443 202.508C114.235 202.54 113.966 202.556 113.635 202.556C113.022 202.556 112.544 202.473 112.203 202.308C111.867 202.143 111.632 201.905 111.499 201.596C111.371 201.281 111.307 200.903 111.307 200.46V195.46H109.963V194.228H111.355L111.779 191.796H113.019V194.22H114.875V195.46ZM116.894 202.5V190.612H118.582V195.436C118.716 195.217 118.894 195.009 119.118 194.812C119.348 194.615 119.625 194.455 119.95 194.332C120.281 194.204 120.665 194.14 121.102 194.14C121.641 194.14 122.126 194.241 122.558 194.444C122.996 194.641 123.342 194.929 123.598 195.308C123.86 195.681 123.99 196.127 123.99 196.644V202.5H122.278V196.956C122.278 196.492 122.118 196.135 121.798 195.884C121.478 195.633 121.068 195.508 120.566 195.508C120.23 195.508 119.91 195.567 119.606 195.684C119.308 195.796 119.065 195.967 118.878 196.196C118.697 196.42 118.606 196.703 118.606 197.044V202.5H116.894ZM127.487 198.764C127.487 199.26 127.567 199.705 127.727 200.1C127.893 200.489 128.141 200.799 128.471 201.028C128.802 201.252 129.213 201.364 129.703 201.364C130.194 201.364 130.618 201.252 130.975 201.028C131.338 200.804 131.575 200.471 131.687 200.028H133.271C133.175 200.593 132.949 201.073 132.591 201.468C132.239 201.863 131.813 202.161 131.311 202.364C130.81 202.561 130.285 202.66 129.735 202.66C128.951 202.66 128.261 202.492 127.663 202.156C127.066 201.815 126.599 201.329 126.263 200.7C125.933 200.071 125.767 199.321 125.767 198.452C125.767 197.593 125.919 196.836 126.223 196.18C126.527 195.519 126.967 195.001 127.543 194.628C128.119 194.255 128.813 194.068 129.623 194.068C130.423 194.068 131.095 194.239 131.639 194.58C132.189 194.921 132.605 195.401 132.887 196.02C133.17 196.633 133.311 197.359 133.311 198.196V198.764H127.487ZM127.487 197.652H131.679C131.679 197.22 131.605 196.828 131.455 196.476C131.306 196.119 131.077 195.839 130.767 195.636C130.463 195.428 130.079 195.324 129.615 195.324C129.141 195.324 128.746 195.439 128.431 195.668C128.117 195.897 127.879 196.191 127.719 196.548C127.565 196.905 127.487 197.273 127.487 197.652ZM139.391 195.46H137.535L137.543 200.396C137.543 200.668 137.569 200.868 137.623 200.996C137.681 201.119 137.777 201.199 137.911 201.236C138.049 201.268 138.236 201.284 138.471 201.284H139.439V202.396C139.332 202.439 139.172 202.476 138.959 202.508C138.751 202.54 138.481 202.556 138.151 202.556C137.537 202.556 137.06 202.473 136.719 202.308C136.383 202.143 136.148 201.905 136.015 201.596C135.887 201.281 135.823 200.903 135.823 200.46V195.46H134.479V194.228H135.871L136.295 191.796H137.535V194.22H139.391V195.46ZM143.218 194.228V202.5H141.57V194.228H143.218ZM143.25 190.94V192.628H141.53V190.94H143.25ZM149.044 194.068C149.662 194.068 150.212 194.191 150.692 194.436C151.177 194.676 151.569 195.012 151.868 195.444C152.166 195.876 152.348 196.38 152.412 196.956H150.932C150.884 196.684 150.78 196.431 150.62 196.196C150.465 195.961 150.254 195.775 149.988 195.636C149.726 195.492 149.414 195.42 149.052 195.42C148.39 195.42 147.852 195.663 147.436 196.148C147.02 196.633 146.812 197.377 146.812 198.38C146.812 199.297 147.004 200.028 147.388 200.572C147.777 201.116 148.342 201.388 149.084 201.388C149.441 201.388 149.75 201.313 150.012 201.164C150.278 201.015 150.489 200.823 150.644 200.588C150.798 200.353 150.897 200.111 150.94 199.86H152.396C152.337 200.415 152.156 200.903 151.852 201.324C151.553 201.745 151.161 202.073 150.676 202.308C150.196 202.543 149.652 202.66 149.044 202.66C148.292 202.66 147.625 202.497 147.044 202.172C146.462 201.841 146.006 201.359 145.676 200.724C145.35 200.084 145.188 199.308 145.188 198.396C145.188 197.537 145.34 196.783 145.644 196.132C145.948 195.481 146.388 194.975 146.964 194.612C147.545 194.249 148.238 194.068 149.044 194.068ZM156.527 202.66C155.994 202.66 155.519 202.564 155.103 202.372C154.692 202.18 154.37 201.903 154.135 201.54C153.9 201.177 153.783 200.74 153.783 200.228C153.783 199.311 154.108 198.625 154.759 198.172C155.41 197.719 156.447 197.479 157.871 197.452L159.231 197.412V196.812C159.231 196.337 159.09 195.964 158.807 195.692C158.524 195.42 158.09 195.287 157.503 195.292C157.06 195.292 156.666 195.393 156.319 195.596C155.978 195.799 155.754 196.132 155.647 196.596H154.159C154.191 196.047 154.348 195.585 154.631 195.212C154.919 194.833 155.314 194.548 155.815 194.356C156.316 194.164 156.906 194.068 157.583 194.068C158.335 194.068 158.954 194.172 159.439 194.38C159.924 194.583 160.284 194.881 160.519 195.276C160.759 195.671 160.879 196.151 160.879 196.716V202.5H159.431L159.295 200.98C158.986 201.615 158.594 202.055 158.119 202.3C157.65 202.54 157.119 202.66 156.527 202.66ZM157.063 201.468C157.324 201.468 157.583 201.423 157.839 201.332C158.095 201.236 158.327 201.108 158.535 200.948C158.743 200.783 158.908 200.599 159.031 200.396C159.159 200.193 159.226 199.985 159.231 199.772V198.404L158.111 198.428C157.54 198.433 157.055 198.492 156.655 198.604C156.26 198.716 155.956 198.889 155.743 199.124C155.535 199.359 155.431 199.671 155.431 200.06C155.431 200.503 155.586 200.849 155.895 201.1C156.204 201.345 156.594 201.468 157.063 201.468ZM165.525 202.612C165.034 202.612 164.64 202.548 164.341 202.42C164.048 202.292 163.824 202.121 163.669 201.908C163.514 201.689 163.41 201.444 163.357 201.172C163.309 200.895 163.285 200.609 163.285 200.316V190.612H164.973V200.14C164.973 200.524 165.048 200.817 165.197 201.02C165.352 201.223 165.586 201.337 165.901 201.364L166.333 201.38V202.468C166.2 202.511 166.061 202.545 165.917 202.572C165.778 202.599 165.648 202.612 165.525 202.612ZM170.166 202.612C169.675 202.612 169.28 202.548 168.982 202.42C168.688 202.292 168.464 202.121 168.31 201.908C168.155 201.689 168.051 201.444 167.998 201.172C167.95 200.895 167.926 200.609 167.926 200.316V190.612H169.614V200.14C169.614 200.524 169.688 200.817 169.838 201.02C169.992 201.223 170.227 201.337 170.542 201.364L170.974 201.38V202.468C170.84 202.511 170.702 202.545 170.558 202.572C170.419 202.599 170.288 202.612 170.166 202.612ZM173.401 205.14C172.894 205.14 172.542 205.103 172.345 205.028C172.153 204.953 172.057 204.916 172.057 204.916V203.812L172.897 203.828C173.217 203.844 173.478 203.825 173.681 203.772C173.889 203.719 174.052 203.644 174.169 203.548C174.292 203.457 174.385 203.359 174.449 203.252C174.513 203.145 174.561 203.047 174.593 202.956L174.849 202.26L171.625 194.228H173.337L175.657 200.34L177.961 194.228H179.641L176.193 202.964C175.958 203.54 175.7 203.985 175.417 204.3C175.14 204.615 174.833 204.833 174.497 204.956C174.161 205.079 173.796 205.14 173.401 205.14ZM185.003 197.716V199.02L180.859 199.036V197.724L185.003 197.716ZM188.504 205.076V194.228H190.216L190.232 195.604C190.333 195.423 190.464 195.244 190.624 195.068C190.784 194.887 190.973 194.721 191.192 194.572C191.416 194.417 191.669 194.295 191.952 194.204C192.24 194.113 192.557 194.068 192.904 194.068C193.554 194.068 194.128 194.22 194.624 194.524C195.125 194.823 195.514 195.284 195.792 195.908C196.074 196.527 196.216 197.313 196.216 198.268C196.216 199.228 196.074 200.033 195.792 200.684C195.514 201.335 195.117 201.828 194.6 202.164C194.082 202.495 193.469 202.66 192.76 202.66C192.418 202.66 192.112 202.612 191.84 202.516C191.568 202.42 191.328 202.295 191.12 202.14C190.912 201.98 190.733 201.809 190.584 201.628C190.44 201.441 190.32 201.257 190.224 201.076V205.076H188.504ZM192.4 201.356C193.034 201.356 193.554 201.111 193.96 200.62C194.37 200.124 194.576 199.351 194.576 198.3C194.576 197.399 194.386 196.687 194.008 196.164C193.634 195.636 193.098 195.372 192.4 195.372C191.68 195.372 191.136 195.647 190.768 196.196C190.4 196.74 190.216 197.441 190.216 198.3C190.216 198.86 190.296 199.372 190.456 199.836C190.621 200.295 190.866 200.663 191.192 200.94C191.517 201.217 191.92 201.356 192.4 201.356ZM200.291 202.612C199.8 202.612 199.405 202.548 199.107 202.42C198.813 202.292 198.589 202.121 198.435 201.908C198.28 201.689 198.176 201.444 198.123 201.172C198.075 200.895 198.051 200.609 198.051 200.316V190.612H199.739V200.14C199.739 200.524 199.813 200.817 199.963 201.02C200.117 201.223 200.352 201.337 200.667 201.364L201.099 201.38V202.468C200.965 202.511 200.827 202.545 200.683 202.572C200.544 202.599 200.413 202.612 200.291 202.612ZM204.097 198.764C204.097 199.26 204.177 199.705 204.337 200.1C204.502 200.489 204.75 200.799 205.081 201.028C205.411 201.252 205.822 201.364 206.313 201.364C206.803 201.364 207.227 201.252 207.585 201.028C207.947 200.804 208.185 200.471 208.297 200.028H209.881C209.785 200.593 209.558 201.073 209.201 201.468C208.849 201.863 208.422 202.161 207.921 202.364C207.419 202.561 206.894 202.66 206.345 202.66C205.561 202.66 204.87 202.492 204.273 202.156C203.675 201.815 203.209 201.329 202.873 200.7C202.542 200.071 202.377 199.321 202.377 198.452C202.377 197.593 202.529 196.836 202.833 196.18C203.137 195.519 203.577 195.001 204.153 194.628C204.729 194.255 205.422 194.068 206.233 194.068C207.033 194.068 207.705 194.239 208.249 194.58C208.798 194.921 209.214 195.401 209.497 196.02C209.779 196.633 209.921 197.359 209.921 198.196V198.764H204.097ZM204.097 197.652H208.289C208.289 197.22 208.214 196.828 208.065 196.476C207.915 196.119 207.686 195.839 207.377 195.636C207.073 195.428 206.689 195.324 206.225 195.324C205.75 195.324 205.355 195.439 205.041 195.668C204.726 195.897 204.489 196.191 204.329 196.548C204.174 196.905 204.097 197.273 204.097 197.652ZM214.058 202.66C213.525 202.66 213.05 202.564 212.634 202.372C212.223 202.18 211.901 201.903 211.666 201.54C211.431 201.177 211.314 200.74 211.314 200.228C211.314 199.311 211.639 198.625 212.29 198.172C212.941 197.719 213.978 197.479 215.402 197.452L216.762 197.412V196.812C216.762 196.337 216.621 195.964 216.338 195.692C216.055 195.42 215.621 195.287 215.034 195.292C214.591 195.292 214.197 195.393 213.85 195.596C213.509 195.799 213.285 196.132 213.178 196.596H211.69C211.722 196.047 211.879 195.585 212.162 195.212C212.45 194.833 212.845 194.548 213.346 194.356C213.847 194.164 214.437 194.068 215.114 194.068C215.866 194.068 216.485 194.172 216.97 194.38C217.455 194.583 217.815 194.881 218.05 195.276C218.29 195.671 218.41 196.151 218.41 196.716V202.5H216.962L216.826 200.98C216.517 201.615 216.125 202.055 215.65 202.3C215.181 202.54 214.65 202.66 214.058 202.66ZM214.594 201.468C214.855 201.468 215.114 201.423 215.37 201.332C215.626 201.236 215.858 201.108 216.066 200.948C216.274 200.783 216.439 200.599 216.562 200.396C216.69 200.193 216.757 199.985 216.762 199.772V198.404L215.642 198.428C215.071 198.433 214.586 198.492 214.186 198.604C213.791 198.716 213.487 198.889 213.274 199.124C213.066 199.359 212.962 199.671 212.962 200.06C212.962 200.503 213.117 200.849 213.426 201.1C213.735 201.345 214.125 201.468 214.594 201.468ZM223.723 202.66C223.147 202.66 222.606 202.569 222.099 202.388C221.598 202.207 221.177 201.921 220.835 201.532C220.499 201.143 220.289 200.644 220.203 200.036H221.731C221.801 200.351 221.931 200.612 222.123 200.82C222.321 201.023 222.555 201.175 222.827 201.276C223.105 201.372 223.401 201.42 223.715 201.42C224.238 201.42 224.659 201.327 224.979 201.14C225.305 200.948 225.467 200.655 225.467 200.26C225.467 199.977 225.379 199.751 225.203 199.58C225.033 199.409 224.761 199.284 224.387 199.204L222.739 198.812C222.057 198.652 221.51 198.399 221.099 198.052C220.689 197.7 220.481 197.209 220.475 196.58C220.475 196.095 220.595 195.663 220.835 195.284C221.081 194.905 221.443 194.609 221.923 194.396C222.403 194.177 223.001 194.068 223.715 194.068C224.649 194.068 225.398 194.276 225.963 194.692C226.529 195.108 226.822 195.711 226.843 196.5H225.363C225.31 196.121 225.137 195.825 224.843 195.612C224.555 195.393 224.174 195.284 223.699 195.284C223.209 195.284 222.806 195.383 222.491 195.58C222.177 195.772 222.019 196.068 222.019 196.468C222.019 196.74 222.134 196.956 222.363 197.116C222.593 197.271 222.937 197.399 223.395 197.5L224.963 197.892C225.369 197.999 225.702 198.14 225.963 198.316C226.225 198.487 226.43 198.676 226.579 198.884C226.729 199.092 226.833 199.308 226.891 199.532C226.955 199.756 226.987 199.967 226.987 200.164C226.987 200.687 226.854 201.135 226.587 201.508C226.326 201.876 225.95 202.161 225.459 202.364C224.974 202.561 224.395 202.66 223.723 202.66ZM230.734 194.228V202.5H229.086V194.228H230.734ZM230.766 190.94V192.628H229.046V190.94H230.766ZM233.285 202.5V194.228H234.957V195.42C235.09 195.196 235.269 194.985 235.493 194.788C235.722 194.591 236.002 194.431 236.333 194.308C236.669 194.185 237.056 194.124 237.493 194.124C238.01 194.124 238.488 194.228 238.925 194.436C239.368 194.639 239.722 194.959 239.989 195.396C240.256 195.828 240.389 196.388 240.389 197.076V202.5H238.677V197.26C238.677 196.668 238.517 196.228 238.197 195.94C237.882 195.652 237.474 195.508 236.973 195.508C236.637 195.508 236.317 195.564 236.013 195.676C235.709 195.788 235.464 195.959 235.277 196.188C235.09 196.412 234.997 196.695 234.997 197.036V202.5H233.285ZM246.166 205.236C244.822 205.236 243.782 205.047 243.046 204.668C242.31 204.295 241.942 203.772 241.942 203.1C241.942 202.807 242.011 202.559 242.15 202.356C242.294 202.148 242.462 201.977 242.654 201.844C242.851 201.711 243.033 201.607 243.198 201.532C243.363 201.452 243.47 201.396 243.518 201.364C243.427 201.311 243.31 201.244 243.166 201.164C243.027 201.079 242.902 200.967 242.79 200.828C242.678 200.684 242.622 200.497 242.622 200.268C242.622 200.001 242.747 199.756 242.998 199.532C243.254 199.303 243.635 199.135 244.142 199.028C243.641 198.783 243.251 198.452 242.974 198.036C242.702 197.62 242.566 197.177 242.566 196.708C242.566 196.169 242.718 195.705 243.022 195.316C243.326 194.921 243.753 194.62 244.302 194.412C244.857 194.204 245.507 194.1 246.254 194.1C246.798 194.1 247.254 194.161 247.622 194.284C247.99 194.407 248.329 194.577 248.638 194.796C248.739 194.759 248.883 194.703 249.07 194.628C249.257 194.548 249.462 194.463 249.686 194.372C249.915 194.281 250.131 194.193 250.334 194.108C250.542 194.023 250.71 193.953 250.838 193.9L250.83 195.388L249.39 195.652C249.465 195.812 249.523 195.988 249.566 196.18C249.614 196.372 249.638 196.548 249.638 196.708C249.638 197.188 249.507 197.631 249.246 198.036C248.985 198.436 248.593 198.756 248.07 198.996C247.547 199.236 246.894 199.356 246.11 199.356C246.035 199.356 245.939 199.356 245.822 199.356C245.705 199.351 245.606 199.343 245.526 199.332C245.03 199.348 244.689 199.407 244.502 199.508C244.315 199.604 244.222 199.711 244.222 199.828C244.222 199.977 244.342 200.079 244.582 200.132C244.822 200.185 245.217 200.231 245.766 200.268C245.963 200.284 246.214 200.3 246.518 200.316C246.827 200.332 247.169 200.353 247.542 200.38C248.449 200.433 249.139 200.66 249.614 201.06C250.094 201.46 250.334 201.991 250.334 202.652C250.334 203.409 249.99 204.028 249.302 204.508C248.614 204.993 247.569 205.236 246.166 205.236ZM246.462 204.188C247.193 204.188 247.742 204.081 248.11 203.868C248.483 203.66 248.67 203.348 248.67 202.932C248.67 202.623 248.55 202.369 248.31 202.172C248.07 201.975 247.713 201.86 247.238 201.828L245.03 201.684C244.811 201.673 244.593 201.721 244.374 201.828C244.161 201.935 243.982 202.084 243.838 202.276C243.699 202.463 243.63 202.671 243.63 202.9C243.63 203.316 243.859 203.633 244.318 203.852C244.782 204.076 245.497 204.188 246.462 204.188ZM246.158 198.308C246.713 198.308 247.158 198.175 247.494 197.908C247.835 197.636 248.006 197.247 248.006 196.74C248.006 196.217 247.835 195.815 247.494 195.532C247.158 195.244 246.713 195.1 246.158 195.1C245.598 195.1 245.145 195.244 244.798 195.532C244.457 195.82 244.286 196.223 244.286 196.74C244.286 197.231 244.449 197.615 244.774 197.892C245.105 198.169 245.566 198.308 246.158 198.308ZM82.472 209.932H84.208V219.996H89.552V221.5H82.464L82.472 209.932ZM94.5825 221.66C93.8092 221.66 93.1318 221.495 92.5505 221.164C91.9745 220.828 91.5265 220.343 91.2065 219.708C90.8918 219.073 90.7345 218.305 90.7345 217.404C90.7345 216.535 90.8838 215.775 91.1825 215.124C91.4865 214.473 91.9265 213.969 92.5025 213.612C93.0785 213.249 93.7745 213.068 94.5905 213.068C95.3692 213.068 96.0438 213.239 96.6145 213.58C97.1852 213.916 97.6278 214.409 97.9425 215.06C98.2572 215.705 98.4145 216.487 98.4145 217.404C98.4145 218.241 98.2652 218.98 97.9665 219.62C97.6732 220.26 97.2412 220.761 96.6705 221.124C96.1052 221.481 95.4092 221.66 94.5825 221.66ZM94.5905 220.34C95.0598 220.34 95.4518 220.217 95.7665 219.972C96.0865 219.721 96.3265 219.372 96.4865 218.924C96.6465 218.471 96.7265 217.948 96.7265 217.356C96.7265 216.807 96.6545 216.308 96.5105 215.86C96.3718 215.407 96.1452 215.047 95.8305 214.78C95.5158 214.513 95.1025 214.38 94.5905 214.38C94.1105 214.38 93.7105 214.503 93.3905 214.748C93.0705 214.988 92.8278 215.332 92.6625 215.78C92.5025 216.223 92.4225 216.748 92.4225 217.356C92.4225 217.895 92.4945 218.391 92.6385 218.844C92.7825 219.297 93.0145 219.66 93.3345 219.932C93.6545 220.204 94.0732 220.34 94.5905 220.34ZM103.614 221.66C102.84 221.66 102.163 221.495 101.582 221.164C101.006 220.828 100.558 220.343 100.238 219.708C99.9231 219.073 99.7658 218.305 99.7658 217.404C99.7658 216.535 99.9151 215.775 100.214 215.124C100.518 214.473 100.958 213.969 101.534 213.612C102.11 213.249 102.806 213.068 103.622 213.068C104.4 213.068 105.075 213.239 105.646 213.58C106.216 213.916 106.659 214.409 106.974 215.06C107.288 215.705 107.446 216.487 107.446 217.404C107.446 218.241 107.296 218.98 106.998 219.62C106.704 220.26 106.272 220.761 105.702 221.124C105.136 221.481 104.44 221.66 103.614 221.66ZM103.622 220.34C104.091 220.34 104.483 220.217 104.798 219.972C105.118 219.721 105.358 219.372 105.518 218.924C105.678 218.471 105.758 217.948 105.758 217.356C105.758 216.807 105.686 216.308 105.542 215.86C105.403 215.407 105.176 215.047 104.862 214.78C104.547 214.513 104.134 214.38 103.622 214.38C103.142 214.38 102.742 214.503 102.422 214.748C102.102 214.988 101.859 215.332 101.694 215.78C101.534 216.223 101.454 216.748 101.454 217.356C101.454 217.895 101.526 218.391 101.67 218.844C101.814 219.297 102.046 219.66 102.366 219.932C102.686 220.204 103.104 220.34 103.622 220.34ZM116.749 221.5H114.973L112.485 217.508L110.997 219.052V221.5H109.285V209.612H110.997V217.172L114.653 213.228H116.573L113.581 216.42L116.749 221.5ZM121.192 221.66C120.616 221.66 120.075 221.569 119.568 221.388C119.067 221.207 118.645 220.921 118.304 220.532C117.968 220.143 117.757 219.644 117.672 219.036H119.2C119.269 219.351 119.4 219.612 119.592 219.82C119.789 220.023 120.024 220.175 120.296 220.276C120.573 220.372 120.869 220.42 121.184 220.42C121.707 220.42 122.128 220.327 122.448 220.14C122.773 219.948 122.936 219.655 122.936 219.26C122.936 218.977 122.848 218.751 122.672 218.58C122.501 218.409 122.229 218.284 121.856 218.204L120.208 217.812C119.525 217.652 118.979 217.399 118.568 217.052C118.157 216.7 117.949 216.209 117.944 215.58C117.944 215.095 118.064 214.663 118.304 214.284C118.549 213.905 118.912 213.609 119.392 213.396C119.872 213.177 120.469 213.068 121.184 213.068C122.117 213.068 122.867 213.276 123.432 213.692C123.997 214.108 124.291 214.711 124.312 215.5H122.832C122.779 215.121 122.605 214.825 122.312 214.612C122.024 214.393 121.643 214.284 121.168 214.284C120.677 214.284 120.275 214.383 119.96 214.58C119.645 214.772 119.488 215.068 119.488 215.468C119.488 215.74 119.603 215.956 119.832 216.116C120.061 216.271 120.405 216.399 120.864 216.5L122.432 216.892C122.837 216.999 123.171 217.14 123.432 217.316C123.693 217.487 123.899 217.676 124.048 217.884C124.197 218.092 124.301 218.308 124.36 218.532C124.424 218.756 124.456 218.967 124.456 219.164C124.456 219.687 124.323 220.135 124.056 220.508C123.795 220.876 123.419 221.161 122.928 221.364C122.443 221.561 121.864 221.66 121.192 221.66Z" fill="#61307F"/>
</g>
<defs>
<clipPath id="clip0_331_14466">
<rect y="0.5" width="259" height="294" rx="4" fill="white"/>
</clipPath>
</defs>
</svg>
