<svg width="350" height="477" viewBox="0 0 350 477" fill="none" xmlns="http://www.w3.org/2000/svg">
<rect x="0.5" y="0.5" width="349" height="476" rx="16.5" fill="url(#paint0_linear_1933_10199)"/>
<rect x="0.5" y="0.5" width="349" height="476" rx="16.5" stroke="#E2E2E2"/>
<mask id="path-2-outside-1_1933_10199" maskUnits="userSpaceOnUse" x="94.134" y="142.926" width="156.476" height="129.024" fill="black">
<rect fill="white" x="94.134" y="142.926" width="156.476" height="129.024"/>
<path d="M216.744 144.292C221.012 151.684 223.67 159.909 224.566 168.498C225.463 177.086 224.58 185.87 221.969 194.347C219.357 202.824 215.069 210.829 209.347 217.904C203.625 224.98 196.583 230.987 188.622 235.583C180.661 240.18 171.937 243.275 162.949 244.692C153.961 246.11 144.884 245.822 136.237 243.845C127.59 241.867 119.541 238.24 112.552 233.169C105.562 228.099 99.768 221.684 95.5 214.292L156.122 179.292L216.744 144.292Z"/>
</mask>
<path d="M216.744 144.292C221.012 151.684 223.67 159.909 224.566 168.498C225.463 177.086 224.58 185.87 221.969 194.347C219.357 202.824 215.069 210.829 209.347 217.904C203.625 224.98 196.583 230.987 188.622 235.583C180.661 240.18 171.937 243.275 162.949 244.692C153.961 246.11 144.884 245.822 136.237 243.845C127.59 241.867 119.541 238.24 112.552 233.169C105.562 228.099 99.768 221.684 95.5 214.292L156.122 179.292L216.744 144.292Z" fill="#C6C6C6"/>
<path d="M216.744 144.292C221.012 151.684 223.67 159.909 224.566 168.498C225.463 177.086 224.58 185.87 221.969 194.347C219.357 202.824 215.069 210.829 209.347 217.904C203.625 224.98 196.583 230.987 188.622 235.583C180.661 240.18 171.937 243.275 162.949 244.692C153.961 246.11 144.884 245.822 136.237 243.845C127.59 241.867 119.541 238.24 112.552 233.169C105.562 228.099 99.768 221.684 95.5 214.292L156.122 179.292L216.744 144.292Z" stroke="#ABABAB" stroke-width="2" mask="url(#path-2-outside-1_1933_10199)"/>
<g opacity="0.5">
<mask id="path-3-outside-2_1933_10199" maskUnits="userSpaceOnUse" x="56.134" y="65.2654" width="135.155" height="112.095" fill="black">
<rect fill="white" x="56.134" y="65.2654" width="135.155" height="112.095"/>
<path d="M161.78 67.25C165.438 73.5863 167.717 80.6365 168.485 87.9981C169.254 95.3597 168.497 102.888 166.259 110.155C164.021 117.421 160.344 124.282 155.44 130.347C150.536 136.411 144.499 141.56 137.676 145.5C130.852 149.44 123.375 152.093 115.67 153.308C107.966 154.523 100.186 154.276 92.7743 152.581C85.3624 150.886 78.464 147.777 72.4729 143.431C66.4819 139.085 61.5154 133.586 57.8571 127.25L109.819 97.25L161.78 67.25Z"/>
</mask>
<path d="M161.78 67.25C165.438 73.5863 167.717 80.6365 168.485 87.9981C169.254 95.3597 168.497 102.888 166.259 110.155C164.021 117.421 160.344 124.282 155.44 130.347C150.536 136.411 144.499 141.56 137.676 145.5C130.852 149.44 123.375 152.093 115.67 153.308C107.966 154.523 100.186 154.276 92.7743 152.581C85.3624 150.886 78.464 147.777 72.4729 143.431C66.4819 139.085 61.5154 133.586 57.8571 127.25L109.819 97.25L161.78 67.25Z" fill="#FDF8FF"/>
<path d="M161.78 67.25C165.438 73.5863 167.717 80.6365 168.485 87.9981C169.254 95.3597 168.497 102.888 166.259 110.155C164.021 117.421 160.344 124.282 155.44 130.347C150.536 136.411 144.499 141.56 137.676 145.5C130.852 149.44 123.375 152.093 115.67 153.308C107.966 154.523 100.186 154.276 92.7743 152.581C85.3624 150.886 78.464 147.777 72.4729 143.431C66.4819 139.085 61.5154 133.586 57.8571 127.25L109.819 97.25L161.78 67.25Z" stroke="#CE95EC" stroke-width="2" mask="url(#path-3-outside-2_1933_10199)"/>
</g>
<mask id="path-4-inside-3_1933_10199" fill="white">
<path d="M280.363 228.523C285.634 237.652 288.95 247.792 290.12 258.363C291.291 268.934 290.293 279.728 287.185 290.13C284.077 300.533 278.919 310.339 272.005 318.989C265.091 327.639 256.557 334.964 246.89 340.545C237.223 346.126 226.613 349.855 215.664 351.517C204.716 353.18 193.645 352.744 183.082 350.235C172.519 347.725 162.672 343.192 154.103 336.893C145.534 330.594 138.41 322.652 133.139 313.523L206.751 271.023L280.363 228.523Z"/>
</mask>
<path d="M280.363 228.523C285.634 237.652 288.95 247.792 290.12 258.363C291.291 268.934 290.293 279.728 287.185 290.13C284.077 300.533 278.919 310.339 272.005 318.989C265.091 327.639 256.557 334.964 246.89 340.545C237.223 346.126 226.613 349.855 215.664 351.517C204.716 353.18 193.645 352.744 183.082 350.235C172.519 347.725 162.672 343.192 154.103 336.893C145.534 330.594 138.41 322.652 133.139 313.523L206.751 271.023L280.363 228.523Z" fill="#F9EDFE" stroke="#E2B7F7" stroke-width="2" mask="url(#path-4-inside-3_1933_10199)"/>
<path d="M39.76 434.408C38.208 434.408 36.808 434.088 35.56 433.448C34.312 432.808 33.32 431.864 32.584 430.616C31.864 429.368 31.504 427.848 31.504 426.056C31.504 424.712 31.72 423.52 32.152 422.48C32.6 421.44 33.208 420.568 33.976 419.864C34.76 419.144 35.656 418.608 36.664 418.256C37.672 417.888 38.744 417.704 39.88 417.704C40.76 417.704 41.584 417.808 42.352 418.016C43.12 418.208 43.856 418.496 44.56 418.88L44.656 422.024H44.008L43 420.128C42.84 419.808 42.664 419.52 42.472 419.264C42.296 419.008 42.064 418.824 41.776 418.712C41.376 418.52 40.904 418.424 40.36 418.424C39.416 418.424 38.552 418.664 37.768 419.144C37 419.624 36.384 420.424 35.92 421.544C35.456 422.648 35.224 424.16 35.224 426.08C35.224 427.984 35.44 429.496 35.872 430.616C36.32 431.736 36.92 432.536 37.672 433.016C38.424 433.48 39.272 433.712 40.216 433.712C40.648 433.712 41 433.68 41.272 433.616C41.544 433.552 41.816 433.464 42.088 433.352C42.408 433.224 42.656 433.04 42.832 432.8C43.008 432.544 43.16 432.256 43.288 431.936L44.2 429.752H44.848L44.752 433.208C44.064 433.592 43.304 433.888 42.472 434.096C41.64 434.304 40.736 434.408 39.76 434.408ZM45.5118 434V433.496L46.1598 433.304C46.4958 433.208 46.7518 433.064 46.9277 432.872C47.1198 432.68 47.2718 432.416 47.3838 432.08L52.2318 418.064H54.2238L59.0478 432.176C59.1758 432.528 59.3198 432.8 59.4798 432.992C59.6398 433.168 59.8958 433.312 60.2478 433.424L60.6078 433.52V434H54.5118V433.52L54.9198 433.4C55.2718 433.288 55.4798 433.112 55.5438 432.872C55.6238 432.632 55.6078 432.336 55.4958 431.984L54.4878 428.888H49.1838L48.1518 431.936C48.0398 432.288 48.0078 432.576 48.0558 432.8C48.1038 433.024 48.3038 433.2 48.6558 433.328L49.1838 433.496V434H45.5118ZM49.4238 428.192H54.2718L51.9198 420.968L49.4238 428.192ZM66.5937 434.408C65.7137 434.408 64.8177 434.296 63.9057 434.072C63.0097 433.864 62.2577 433.584 61.6497 433.232L61.7937 429.896H62.4897L63.2337 431.552C63.4577 432.016 63.6897 432.4 63.9297 432.704C64.1697 433.008 64.4897 433.24 64.8897 433.4C65.1617 433.512 65.4177 433.592 65.6577 433.64C65.9137 433.672 66.1937 433.688 66.4977 433.688C67.4737 433.688 68.2417 433.44 68.8017 432.944C69.3777 432.432 69.6657 431.76 69.6657 430.928C69.6657 430.176 69.4657 429.584 69.0657 429.152C68.6817 428.72 68.0577 428.304 67.1937 427.904L66.2097 427.472C64.8657 426.88 63.8017 426.192 63.0177 425.408C62.2497 424.624 61.8657 423.584 61.8657 422.288C61.8657 421.328 62.1057 420.512 62.5857 419.84C63.0817 419.152 63.7617 418.624 64.6257 418.256C65.4897 417.888 66.4977 417.704 67.6497 417.704C68.4977 417.704 69.2897 417.816 70.0257 418.04C70.7777 418.264 71.4337 418.568 71.9937 418.952L71.8257 421.928H71.1297L70.2417 420.128C69.9857 419.6 69.7377 419.224 69.4977 419C69.2737 418.76 68.9937 418.608 68.6577 418.544C68.4657 418.512 68.2977 418.488 68.1537 418.472C68.0257 418.456 67.8497 418.448 67.6257 418.448C66.8417 418.448 66.1617 418.68 65.5857 419.144C65.0257 419.592 64.7457 420.216 64.7457 421.016C64.7457 421.784 64.9617 422.408 65.3937 422.888C65.8257 423.368 66.4497 423.792 67.2657 424.16L68.3457 424.616C69.8977 425.288 71.0097 426.008 71.6817 426.776C72.3537 427.528 72.6897 428.496 72.6897 429.68C72.6897 431.088 72.1537 432.232 71.0817 433.112C70.0257 433.976 68.5297 434.408 66.5937 434.408ZM73.8098 434V433.496L74.2898 433.328C74.5778 433.248 74.7778 433.112 74.8898 432.92C75.0018 432.712 75.0658 432.432 75.0818 432.08V420.008C75.0658 419.672 75.0098 419.416 74.9138 419.24C74.8178 419.048 74.6178 418.904 74.3138 418.808L73.8098 418.64V418.136H85.2338L85.4018 421.976H84.7298L83.7698 419.816C83.6418 419.512 83.4978 419.28 83.3378 419.12C83.1778 418.944 82.9378 418.856 82.6178 418.856H78.5378C78.5218 419.848 78.5138 420.872 78.5138 421.928C78.5138 422.968 78.5138 424.144 78.5138 425.456H80.8898C81.2098 425.456 81.4498 425.376 81.6098 425.216C81.7858 425.04 81.9458 424.808 82.0898 424.52L82.4978 423.608H83.0258V428.048H82.4978L82.0658 427.136C81.9378 426.848 81.7938 426.616 81.6338 426.44C81.4738 426.264 81.2338 426.176 80.9138 426.176H78.5138C78.5138 427.328 78.5138 428.32 78.5138 429.152C78.5138 429.984 78.5138 430.728 78.5138 431.384C78.5298 432.024 78.5378 432.656 78.5378 433.28H83.1458C83.4658 433.28 83.7138 433.2 83.8898 433.04C84.0658 432.864 84.2098 432.624 84.3218 432.32L85.2098 430.16H85.8818L85.7138 434H73.8098ZM97.4843 434.408C96.6043 434.408 95.7083 434.296 94.7963 434.072C93.9003 433.864 93.1483 433.584 92.5403 433.232L92.6843 429.896H93.3803L94.1243 431.552C94.3483 432.016 94.5803 432.4 94.8203 432.704C95.0603 433.008 95.3803 433.24 95.7803 433.4C96.0523 433.512 96.3083 433.592 96.5483 433.64C96.8043 433.672 97.0843 433.688 97.3883 433.688C98.3643 433.688 99.1323 433.44 99.6923 432.944C100.268 432.432 100.556 431.76 100.556 430.928C100.556 430.176 100.356 429.584 99.9563 429.152C99.5723 428.72 98.9483 428.304 98.0843 427.904L97.1003 427.472C95.7563 426.88 94.6923 426.192 93.9083 425.408C93.1403 424.624 92.7563 423.584 92.7563 422.288C92.7563 421.328 92.9963 420.512 93.4763 419.84C93.9723 419.152 94.6523 418.624 95.5163 418.256C96.3803 417.888 97.3883 417.704 98.5403 417.704C99.3883 417.704 100.18 417.816 100.916 418.04C101.668 418.264 102.324 418.568 102.884 418.952L102.716 421.928H102.02L101.132 420.128C100.876 419.6 100.628 419.224 100.388 419C100.164 418.76 99.8843 418.608 99.5483 418.544C99.3563 418.512 99.1883 418.488 99.0443 418.472C98.9163 418.456 98.7403 418.448 98.5163 418.448C97.7323 418.448 97.0523 418.68 96.4763 419.144C95.9163 419.592 95.6363 420.216 95.6363 421.016C95.6363 421.784 95.8523 422.408 96.2843 422.888C96.7163 423.368 97.3403 423.792 98.1563 424.16L99.2363 424.616C100.788 425.288 101.9 426.008 102.572 426.776C103.244 427.528 103.58 428.496 103.58 429.68C103.58 431.088 103.044 432.232 101.972 433.112C100.916 433.976 99.4203 434.408 97.4843 434.408ZM107.706 434V433.496L108.666 433.304C109.338 433.16 109.674 432.768 109.674 432.128V425.576C109.674 424.456 109.674 423.336 109.674 422.216C109.674 421.096 109.666 419.976 109.65 418.856H107.754C107.242 418.856 106.866 418.992 106.626 419.264C106.386 419.536 106.146 419.92 105.906 420.416L105.066 422.192H104.394L104.514 418.136H118.29L118.41 422.192H117.738L116.898 420.416C116.658 419.92 116.418 419.536 116.178 419.264C115.938 418.992 115.562 418.856 115.05 418.856H113.13V432.128C113.13 432.784 113.466 433.176 114.138 433.304L115.122 433.496V434H107.706ZM126.744 434.408C125.544 434.408 124.48 434.192 123.552 433.76C122.64 433.328 121.92 432.648 121.392 431.72C120.88 430.776 120.624 429.536 120.624 428V425.408C120.624 424.512 120.624 423.608 120.624 422.696C120.624 421.784 120.616 420.864 120.6 419.936C120.6 419.312 120.304 418.92 119.712 418.76L119.184 418.64V418.136H125.664V418.64L124.992 418.784C124.384 418.928 124.08 419.328 124.08 419.984C124.064 420.88 124.056 421.784 124.056 422.696C124.056 423.592 124.056 424.496 124.056 425.408V428.456C124.056 430.008 124.368 431.128 124.992 431.816C125.632 432.504 126.536 432.848 127.704 432.848C128.936 432.848 129.896 432.48 130.584 431.744C131.288 430.992 131.64 429.88 131.64 428.408V420.056C131.64 419.736 131.576 419.456 131.448 419.216C131.32 418.976 131.096 418.824 130.776 418.76L130.2 418.64V418.136H133.896V418.64L133.224 418.784C132.92 418.848 132.712 418.992 132.6 419.216C132.488 419.44 132.432 419.712 132.432 420.032V428.264C132.432 430.248 131.912 431.768 130.872 432.824C129.832 433.88 128.456 434.408 126.744 434.408ZM134.583 434V433.496L135.063 433.328C135.575 433.168 135.831 432.768 135.831 432.128C135.847 431.216 135.855 430.288 135.855 429.344C135.855 428.384 135.855 427.408 135.855 426.416V425.576C135.855 424.648 135.855 423.72 135.855 422.792C135.855 421.864 135.847 420.936 135.831 420.008C135.831 419.352 135.583 418.944 135.087 418.784L134.583 418.64V418.136H140.895C142.575 418.136 144.023 418.448 145.239 419.072C146.455 419.696 147.391 420.6 148.047 421.784C148.703 422.952 149.031 424.368 149.031 426.032C149.031 427.728 148.671 429.168 147.951 430.352C147.247 431.536 146.247 432.44 144.951 433.064C143.671 433.688 142.175 434 140.463 434H134.583ZM139.311 433.304H140.535C141.671 433.304 142.591 433.08 143.295 432.632C144.015 432.184 144.543 431.432 144.879 430.376C145.215 429.304 145.383 427.864 145.383 426.056C145.383 424.248 145.215 422.816 144.879 421.76C144.543 420.704 144.023 419.952 143.319 419.504C142.631 419.056 141.735 418.832 140.631 418.832H139.311C139.295 419.936 139.287 421.056 139.287 422.192C139.287 423.312 139.287 424.44 139.287 425.576V426.392C139.287 427.592 139.287 428.768 139.287 429.92C139.287 431.056 139.295 432.184 139.311 433.304ZM152.406 434V433.496L153.102 433.328C153.422 433.248 153.646 433.112 153.774 432.92C153.902 432.728 153.974 432.472 153.99 432.152V427.808L150.126 419.912C149.966 419.592 149.814 419.352 149.67 419.192C149.526 419.032 149.318 418.904 149.046 418.808L148.614 418.64V418.136H154.974V418.64L154.542 418.784C154.19 418.896 153.998 419.08 153.966 419.336C153.934 419.576 154.006 419.888 154.182 420.272L156.918 426.32L159.87 420.104C160.014 419.816 160.078 419.536 160.062 419.264C160.046 418.992 159.878 418.816 159.558 418.736L159.222 418.64V418.136H162.366V418.64L161.886 418.784C161.566 418.88 161.334 419.024 161.19 419.216C161.062 419.408 160.926 419.664 160.782 419.984L157.446 426.92V432.152C157.446 432.808 157.734 433.2 158.31 433.328L159.03 433.496V434H152.406ZM173.312 434.336C172.368 434.336 171.48 434.072 170.648 433.544C169.816 433 169.144 432.144 168.632 430.976C168.12 429.808 167.864 428.28 167.864 426.392C167.864 424.488 168.12 422.952 168.632 421.784C169.144 420.616 169.816 419.76 170.648 419.216C171.48 418.672 172.368 418.4 173.312 418.4C174.256 418.4 175.144 418.672 175.976 419.216C176.808 419.76 177.48 420.616 177.992 421.784C178.504 422.952 178.76 424.488 178.76 426.392C178.76 428.28 178.504 429.808 177.992 430.976C177.48 432.144 176.808 433 175.976 433.544C175.144 434.072 174.256 434.336 173.312 434.336ZM173.312 433.664C173.728 433.664 174.08 433.56 174.368 433.352C174.656 433.144 174.888 432.784 175.064 432.272C175.256 431.744 175.392 431.008 175.472 430.064C175.568 429.104 175.616 427.88 175.616 426.392C175.616 424.888 175.568 423.664 175.472 422.72C175.392 421.76 175.256 421.016 175.064 420.488C174.888 419.96 174.656 419.592 174.368 419.384C174.08 419.176 173.728 419.072 173.312 419.072C172.912 419.072 172.56 419.176 172.256 419.384C171.968 419.576 171.736 419.936 171.56 420.464C171.384 420.992 171.248 421.736 171.152 422.696C171.072 423.656 171.032 424.888 171.032 426.392C171.032 427.88 171.072 429.104 171.152 430.064C171.248 431.008 171.384 431.744 171.56 432.272C171.736 432.8 171.968 433.168 172.256 433.376C172.56 433.568 172.912 433.664 173.312 433.664ZM186.225 434V430.088H179.889V428.624L186.921 418.568H189.153V428.24H191.457V430.088H189.153V434H186.225ZM181.161 428.24H186.225V420.992L181.161 428.24Z" fill="#5E5E5E"/>
<defs>
<linearGradient id="paint0_linear_1933_10199" x1="230.5" y1="327" x2="226.5" y2="18.5" gradientUnits="userSpaceOnUse">
<stop stop-color="#C6C6C6"/>
<stop offset="1" stop-color="white"/>
</linearGradient>
</defs>
</svg>
