<svg width="348" height="475" viewBox="0 0 348 475" fill="none" xmlns="http://www.w3.org/2000/svg">
<rect width="348" height="475" rx="16" fill="url(#paint0_linear_1281_3373)"/>
<path d="M35.3557 418.636C36.0037 418.636 36.5717 418.552 37.0597 418.384C37.5557 418.216 37.9677 417.98 38.2957 417.676C38.6317 417.364 38.8837 416.996 39.0517 416.572C39.2197 416.14 39.3037 415.664 39.3037 415.144C39.3037 414.096 38.9757 413.272 38.3197 412.672C37.6717 412.072 36.6837 411.772 35.3557 411.772H32.6917V418.636H35.3557ZM35.3557 409.768C36.4597 409.768 37.4197 409.896 38.2357 410.152C39.0517 410.408 39.7277 410.772 40.2637 411.244C40.7997 411.708 41.1957 412.272 41.4517 412.936C41.7157 413.6 41.8477 414.336 41.8477 415.144C41.8477 415.952 41.7077 416.696 41.4277 417.376C41.1477 418.048 40.7357 418.628 40.1917 419.116C39.6477 419.604 38.9677 419.984 38.1517 420.256C37.3437 420.52 36.4117 420.652 35.3557 420.652H32.6917V427H30.1357V409.768H35.3557ZM49.551 418.072C50.207 418.072 50.783 417.992 51.279 417.832C51.783 417.672 52.203 417.448 52.539 417.16C52.875 416.864 53.127 416.516 53.295 416.116C53.463 415.708 53.547 415.26 53.547 414.772C53.547 413.78 53.219 413.032 52.563 412.528C51.915 412.024 50.939 411.772 49.635 411.772H47.223V418.072H49.551ZM57.591 427H55.311C54.855 427 54.523 426.82 54.315 426.46L50.055 420.484C49.919 420.284 49.771 420.144 49.611 420.064C49.451 419.976 49.211 419.932 48.891 419.932H47.223V427H44.667V409.768H49.635C50.747 409.768 51.703 409.884 52.503 410.116C53.311 410.34 53.975 410.664 54.495 411.088C55.023 411.504 55.411 412.008 55.659 412.6C55.915 413.192 56.043 413.856 56.043 414.592C56.043 415.192 55.951 415.756 55.767 416.284C55.583 416.812 55.311 417.288 54.951 417.712C54.599 418.128 54.167 418.488 53.655 418.792C53.143 419.096 52.563 419.328 51.915 419.488C52.235 419.68 52.511 419.948 52.743 420.292L57.591 427ZM75.6761 418.384C75.6761 419.672 75.4681 420.856 75.0521 421.936C74.6441 423.008 74.0641 423.936 73.3121 424.72C72.5601 425.496 71.6601 426.1 70.6121 426.532C69.5641 426.964 68.4001 427.18 67.1201 427.18C65.8481 427.18 64.6841 426.964 63.6281 426.532C62.5801 426.1 61.6801 425.496 60.9281 424.72C60.1841 423.936 59.6041 423.008 59.1881 421.936C58.7721 420.856 58.5641 419.672 58.5641 418.384C58.5641 417.104 58.7721 415.924 59.1881 414.844C59.6041 413.764 60.1841 412.836 60.9281 412.06C61.6801 411.276 62.5801 410.668 63.6281 410.236C64.6841 409.796 65.8481 409.576 67.1201 409.576C68.4001 409.576 69.5641 409.796 70.6121 410.236C71.6601 410.668 72.5601 411.276 73.3121 412.06C74.0641 412.836 74.6441 413.764 75.0521 414.844C75.4681 415.924 75.6761 417.104 75.6761 418.384ZM73.0601 418.384C73.0601 417.36 72.9201 416.44 72.6401 415.624C72.3601 414.808 71.9601 414.116 71.4401 413.548C70.9281 412.98 70.3041 412.544 69.5681 412.24C68.8401 411.936 68.0241 411.784 67.1201 411.784C66.2161 411.784 65.3961 411.936 64.6601 412.24C63.9321 412.544 63.3081 412.98 62.7881 413.548C62.2681 414.116 61.8681 414.808 61.5881 415.624C61.3081 416.44 61.1681 417.36 61.1681 418.384C61.1681 419.416 61.3081 420.34 61.5881 421.156C61.8681 421.964 62.2681 422.652 62.7881 423.22C63.3081 423.788 63.9321 424.224 64.6601 424.528C65.3961 424.824 66.2161 424.972 67.1201 424.972C68.0241 424.972 68.8401 424.824 69.5681 424.528C70.3041 424.224 70.9281 423.788 71.4401 423.22C71.9601 422.652 72.3601 421.964 72.6401 421.156C72.9201 420.34 73.0601 419.416 73.0601 418.384ZM84.15 421C84.15 421.96 84.03 422.824 83.79 423.592C83.55 424.36 83.198 425.012 82.734 425.548C82.278 426.076 81.706 426.484 81.018 426.772C80.338 427.052 79.554 427.192 78.666 427.192C77.866 427.192 77.042 427.08 76.194 426.856L76.338 425.344C76.354 425.2 76.406 425.084 76.494 424.996C76.59 424.9 76.73 424.852 76.914 424.852C77.05 424.852 77.234 424.888 77.466 424.96C77.706 425.024 78.018 425.056 78.402 425.056C78.914 425.056 79.366 424.98 79.758 424.828C80.158 424.676 80.494 424.44 80.766 424.12C81.038 423.792 81.242 423.376 81.378 422.872C81.522 422.368 81.594 421.764 81.594 421.06V409.768H84.15V421ZM98.9293 424.924L98.9173 427H88.2373V409.768H98.9173V411.844H90.8053V417.304H97.3333V419.308H90.8053V424.924H98.9293ZM113.75 423.304C113.894 423.304 114.018 423.36 114.122 423.472L115.13 424.576C114.426 425.408 113.566 426.052 112.55 426.508C111.542 426.964 110.326 427.192 108.902 427.192C107.654 427.192 106.522 426.976 105.506 426.544C104.498 426.112 103.634 425.508 102.914 424.732C102.202 423.956 101.65 423.028 101.258 421.948C100.866 420.868 100.67 419.68 100.67 418.384C100.67 417.088 100.874 415.9 101.282 414.82C101.698 413.74 102.278 412.812 103.022 412.036C103.766 411.26 104.654 410.656 105.686 410.224C106.726 409.792 107.874 409.576 109.13 409.576C110.354 409.576 111.442 409.776 112.394 410.176C113.346 410.576 114.174 411.108 114.878 411.772L114.038 412.96C113.982 413.048 113.91 413.12 113.822 413.176C113.742 413.232 113.634 413.26 113.498 413.26C113.346 413.26 113.166 413.184 112.958 413.032C112.758 412.88 112.49 412.712 112.154 412.528C111.826 412.336 111.418 412.164 110.93 412.012C110.442 411.86 109.834 411.784 109.106 411.784C108.25 411.784 107.466 411.936 106.754 412.24C106.042 412.536 105.426 412.968 104.906 413.536C104.394 414.096 103.994 414.788 103.706 415.612C103.426 416.428 103.286 417.352 103.286 418.384C103.286 419.432 103.434 420.364 103.73 421.18C104.026 421.996 104.434 422.688 104.954 423.256C105.474 423.824 106.086 424.256 106.79 424.552C107.494 424.848 108.254 424.996 109.07 424.996C109.566 424.996 110.01 424.968 110.402 424.912C110.802 424.848 111.166 424.756 111.494 424.636C111.83 424.516 112.146 424.364 112.442 424.18C112.738 423.988 113.03 423.76 113.318 423.496C113.382 423.44 113.45 423.396 113.522 423.364C113.594 423.324 113.67 423.304 113.75 423.304ZM129.446 411.904H123.974V427H121.43V411.904H115.934V409.768H129.446V411.904ZM148.369 418.384C148.369 419.888 148.205 421.192 147.877 422.296C147.557 423.4 147.113 424.316 146.545 425.044C145.985 425.764 145.321 426.3 144.553 426.652C143.793 427.004 142.973 427.18 142.093 427.18C141.213 427.18 140.389 427.004 139.621 426.652C138.861 426.3 138.201 425.764 137.641 425.044C137.081 424.316 136.641 423.4 136.321 422.296C136.001 421.192 135.841 419.888 135.841 418.384C135.841 416.88 136.001 415.576 136.321 414.472C136.641 413.36 137.081 412.444 137.641 411.724C138.201 410.996 138.861 410.456 139.621 410.104C140.389 409.752 141.213 409.576 142.093 409.576C142.973 409.576 143.793 409.752 144.553 410.104C145.321 410.456 145.985 410.996 146.545 411.724C147.113 412.444 147.557 413.36 147.877 414.472C148.205 415.576 148.369 416.88 148.369 418.384ZM145.945 418.384C145.945 417.088 145.837 416.004 145.621 415.132C145.413 414.26 145.129 413.56 144.769 413.032C144.417 412.496 144.009 412.116 143.545 411.892C143.081 411.668 142.597 411.556 142.093 411.556C141.589 411.556 141.105 411.668 140.641 411.892C140.177 412.116 139.765 412.496 139.405 413.032C139.053 413.56 138.773 414.26 138.565 415.132C138.357 416.004 138.253 417.088 138.253 418.384C138.253 419.68 138.357 420.764 138.565 421.636C138.773 422.508 139.053 423.208 139.405 423.736C139.765 424.264 140.177 424.64 140.641 424.864C141.105 425.088 141.589 425.2 142.093 425.2C142.597 425.2 143.081 425.088 143.545 424.864C144.009 424.64 144.417 424.264 144.769 423.736C145.129 423.208 145.413 422.508 145.621 421.636C145.837 420.764 145.945 419.68 145.945 418.384ZM161.33 425.212V427H152.018V425.212H155.666V413.92C155.666 413.56 155.678 413.188 155.702 412.804L152.774 415.288C152.662 415.376 152.55 415.432 152.438 415.456C152.326 415.48 152.218 415.484 152.114 415.468C152.018 415.452 151.93 415.42 151.85 415.372C151.778 415.316 151.718 415.26 151.67 415.204L150.938 414.184L156.098 409.732H158.006V425.212H161.33Z" fill="#CE95EC"/>
<line x1="55.6464" y1="283.646" x2="290.646" y2="48.6465" stroke="#F9EDFE"/>
<line x1="56.3794" y1="127.674" x2="272.829" y2="379.864" stroke="#F9EDFE"/>
<defs>
<linearGradient id="paint0_linear_1281_3373" x1="224.5" y1="155" x2="324" y2="24" gradientUnits="userSpaceOnUse">
<stop stop-color="#432257"/>
<stop offset="1" stop-color="#61307F"/>
</linearGradient>
</defs>
</svg>
