<svg width="348" height="475" viewBox="0 0 348 475" fill="none" xmlns="http://www.w3.org/2000/svg">
<rect width="348" height="475" rx="16" fill="url(#paint0_linear_1281_3377)"/>
<path d="M77.2572 85.1289C86.4497 85.1458 95.5488 86.9731 104.035 90.5065C112.521 94.04 120.229 99.2103 126.717 105.722C133.205 112.234 138.347 119.961 141.849 128.46C145.351 136.959 147.145 146.065 147.128 155.257C147.112 164.45 145.284 173.549 141.751 182.035C138.217 190.522 133.047 198.229 126.535 204.717C120.023 211.205 112.297 216.347 103.797 219.849C95.2982 223.352 86.1924 225.146 76.9999 225.129L77.1285 155.129L77.2572 85.1289Z" fill="#6899A1"/>
<path d="M263 225C253.807 225 244.705 223.189 236.212 219.672C227.719 216.154 220.003 210.998 213.503 204.497C207.002 197.997 201.846 190.281 198.328 181.788C194.811 173.295 193 164.193 193 155C193 145.807 194.811 136.705 198.328 128.212C201.846 119.719 207.002 112.003 213.503 105.503C220.003 99.0024 227.719 93.8463 236.212 90.3284C244.705 86.8106 253.807 85 263 85L263 155V225Z" fill="#F2DAFD"/>
<path d="M244.001 268.002C244.001 277.194 242.19 286.297 238.672 294.789C235.155 303.282 229.998 310.999 223.498 317.499C216.998 323.999 209.281 329.155 200.788 332.673C192.295 336.19 183.193 338.001 174 338.001C164.808 338.001 155.705 336.19 147.213 332.672C138.72 329.154 131.003 323.998 124.503 317.498C118.003 310.998 112.847 303.281 109.329 294.788C105.812 286.295 104.001 277.193 104.001 268L174.001 268.001L244.001 268.002Z" fill="#F2DAFD"/>
<line x1="52" y1="250.5" x2="295.245" y2="250.5" stroke="#AECCD1"/>
<path d="M33.3557 423.636C34.0037 423.636 34.5717 423.552 35.0597 423.384C35.5557 423.216 35.9677 422.98 36.2957 422.676C36.6317 422.364 36.8837 421.996 37.0517 421.572C37.2197 421.14 37.3037 420.664 37.3037 420.144C37.3037 419.096 36.9757 418.272 36.3197 417.672C35.6717 417.072 34.6837 416.772 33.3557 416.772H30.6917V423.636H33.3557ZM33.3557 414.768C34.4597 414.768 35.4197 414.896 36.2357 415.152C37.0517 415.408 37.7277 415.772 38.2637 416.244C38.7997 416.708 39.1957 417.272 39.4517 417.936C39.7157 418.6 39.8477 419.336 39.8477 420.144C39.8477 420.952 39.7077 421.696 39.4277 422.376C39.1477 423.048 38.7357 423.628 38.1917 424.116C37.6477 424.604 36.9677 424.984 36.1517 425.256C35.3437 425.52 34.4117 425.652 33.3557 425.652H30.6917V432H28.1357V414.768H33.3557ZM47.551 423.072C48.207 423.072 48.783 422.992 49.279 422.832C49.783 422.672 50.203 422.448 50.539 422.16C50.875 421.864 51.127 421.516 51.295 421.116C51.463 420.708 51.547 420.26 51.547 419.772C51.547 418.78 51.219 418.032 50.563 417.528C49.915 417.024 48.939 416.772 47.635 416.772H45.223V423.072H47.551ZM55.591 432H53.311C52.855 432 52.523 431.82 52.315 431.46L48.055 425.484C47.919 425.284 47.771 425.144 47.611 425.064C47.451 424.976 47.211 424.932 46.891 424.932H45.223V432H42.667V414.768H47.635C48.747 414.768 49.703 414.884 50.503 415.116C51.311 415.34 51.975 415.664 52.495 416.088C53.023 416.504 53.411 417.008 53.659 417.6C53.915 418.192 54.043 418.856 54.043 419.592C54.043 420.192 53.951 420.756 53.767 421.284C53.583 421.812 53.311 422.288 52.951 422.712C52.599 423.128 52.167 423.488 51.655 423.792C51.143 424.096 50.563 424.328 49.915 424.488C50.235 424.68 50.511 424.948 50.743 425.292L55.591 432ZM73.6761 423.384C73.6761 424.672 73.4681 425.856 73.0521 426.936C72.6441 428.008 72.0641 428.936 71.3121 429.72C70.5601 430.496 69.6601 431.1 68.6121 431.532C67.5641 431.964 66.4001 432.18 65.1201 432.18C63.8481 432.18 62.6841 431.964 61.6281 431.532C60.5801 431.1 59.6801 430.496 58.9281 429.72C58.1841 428.936 57.6041 428.008 57.1881 426.936C56.7721 425.856 56.5641 424.672 56.5641 423.384C56.5641 422.104 56.7721 420.924 57.1881 419.844C57.6041 418.764 58.1841 417.836 58.9281 417.06C59.6801 416.276 60.5801 415.668 61.6281 415.236C62.6841 414.796 63.8481 414.576 65.1201 414.576C66.4001 414.576 67.5641 414.796 68.6121 415.236C69.6601 415.668 70.5601 416.276 71.3121 417.06C72.0641 417.836 72.6441 418.764 73.0521 419.844C73.4681 420.924 73.6761 422.104 73.6761 423.384ZM71.0601 423.384C71.0601 422.36 70.9201 421.44 70.6401 420.624C70.3601 419.808 69.9601 419.116 69.4401 418.548C68.9281 417.98 68.3041 417.544 67.5681 417.24C66.8401 416.936 66.0241 416.784 65.1201 416.784C64.2161 416.784 63.3961 416.936 62.6601 417.24C61.9321 417.544 61.3081 417.98 60.7881 418.548C60.2681 419.116 59.8681 419.808 59.5881 420.624C59.3081 421.44 59.1681 422.36 59.1681 423.384C59.1681 424.416 59.3081 425.34 59.5881 426.156C59.8681 426.964 60.2681 427.652 60.7881 428.22C61.3081 428.788 61.9321 429.224 62.6601 429.528C63.3961 429.824 64.2161 429.972 65.1201 429.972C66.0241 429.972 66.8401 429.824 67.5681 429.528C68.3041 429.224 68.9281 428.788 69.4401 428.22C69.9601 427.652 70.3601 426.964 70.6401 426.156C70.9201 425.34 71.0601 424.416 71.0601 423.384ZM82.15 426C82.15 426.96 82.03 427.824 81.79 428.592C81.55 429.36 81.198 430.012 80.734 430.548C80.278 431.076 79.706 431.484 79.018 431.772C78.338 432.052 77.554 432.192 76.666 432.192C75.866 432.192 75.042 432.08 74.194 431.856L74.338 430.344C74.354 430.2 74.406 430.084 74.494 429.996C74.59 429.9 74.73 429.852 74.914 429.852C75.05 429.852 75.234 429.888 75.466 429.96C75.706 430.024 76.018 430.056 76.402 430.056C76.914 430.056 77.366 429.98 77.758 429.828C78.158 429.676 78.494 429.44 78.766 429.12C79.038 428.792 79.242 428.376 79.378 427.872C79.522 427.368 79.594 426.764 79.594 426.06V414.768H82.15V426ZM96.9293 429.924L96.9173 432H86.2373V414.768H96.9173V416.844H88.8053V422.304H95.3333V424.308H88.8053V429.924H96.9293ZM111.75 428.304C111.894 428.304 112.018 428.36 112.122 428.472L113.13 429.576C112.426 430.408 111.566 431.052 110.55 431.508C109.542 431.964 108.326 432.192 106.902 432.192C105.654 432.192 104.522 431.976 103.506 431.544C102.498 431.112 101.634 430.508 100.914 429.732C100.202 428.956 99.6498 428.028 99.2578 426.948C98.8658 425.868 98.6698 424.68 98.6698 423.384C98.6698 422.088 98.8738 420.9 99.2818 419.82C99.6978 418.74 100.278 417.812 101.022 417.036C101.766 416.26 102.654 415.656 103.686 415.224C104.726 414.792 105.874 414.576 107.13 414.576C108.354 414.576 109.442 414.776 110.394 415.176C111.346 415.576 112.174 416.108 112.878 416.772L112.038 417.96C111.982 418.048 111.91 418.12 111.822 418.176C111.742 418.232 111.634 418.26 111.498 418.26C111.346 418.26 111.166 418.184 110.958 418.032C110.758 417.88 110.49 417.712 110.154 417.528C109.826 417.336 109.418 417.164 108.93 417.012C108.442 416.86 107.834 416.784 107.106 416.784C106.25 416.784 105.466 416.936 104.754 417.24C104.042 417.536 103.426 417.968 102.906 418.536C102.394 419.096 101.994 419.788 101.706 420.612C101.426 421.428 101.286 422.352 101.286 423.384C101.286 424.432 101.434 425.364 101.73 426.18C102.026 426.996 102.434 427.688 102.954 428.256C103.474 428.824 104.086 429.256 104.79 429.552C105.494 429.848 106.254 429.996 107.07 429.996C107.566 429.996 108.01 429.968 108.402 429.912C108.802 429.848 109.166 429.756 109.494 429.636C109.83 429.516 110.146 429.364 110.442 429.18C110.738 428.988 111.03 428.76 111.318 428.496C111.382 428.44 111.45 428.396 111.522 428.364C111.594 428.324 111.67 428.304 111.75 428.304ZM127.446 416.904H121.974V432H119.43V416.904H113.934V414.768H127.446V416.904ZM146.369 423.384C146.369 424.888 146.205 426.192 145.877 427.296C145.557 428.4 145.113 429.316 144.545 430.044C143.985 430.764 143.321 431.3 142.553 431.652C141.793 432.004 140.973 432.18 140.093 432.18C139.213 432.18 138.389 432.004 137.621 431.652C136.861 431.3 136.201 430.764 135.641 430.044C135.081 429.316 134.641 428.4 134.321 427.296C134.001 426.192 133.841 424.888 133.841 423.384C133.841 421.88 134.001 420.576 134.321 419.472C134.641 418.36 135.081 417.444 135.641 416.724C136.201 415.996 136.861 415.456 137.621 415.104C138.389 414.752 139.213 414.576 140.093 414.576C140.973 414.576 141.793 414.752 142.553 415.104C143.321 415.456 143.985 415.996 144.545 416.724C145.113 417.444 145.557 418.36 145.877 419.472C146.205 420.576 146.369 421.88 146.369 423.384ZM143.945 423.384C143.945 422.088 143.837 421.004 143.621 420.132C143.413 419.26 143.129 418.56 142.769 418.032C142.417 417.496 142.009 417.116 141.545 416.892C141.081 416.668 140.597 416.556 140.093 416.556C139.589 416.556 139.105 416.668 138.641 416.892C138.177 417.116 137.765 417.496 137.405 418.032C137.053 418.56 136.773 419.26 136.565 420.132C136.357 421.004 136.253 422.088 136.253 423.384C136.253 424.68 136.357 425.764 136.565 426.636C136.773 427.508 137.053 428.208 137.405 428.736C137.765 429.264 138.177 429.64 138.641 429.864C139.105 430.088 139.589 430.2 140.093 430.2C140.597 430.2 141.081 430.088 141.545 429.864C142.009 429.64 142.417 429.264 142.769 428.736C143.129 428.208 143.413 427.508 143.621 426.636C143.837 425.764 143.945 424.68 143.945 423.384ZM155.778 425.712V418.992C155.778 418.76 155.782 418.516 155.79 418.26C155.806 417.996 155.834 417.724 155.874 417.444L149.838 425.712H155.778ZM160.326 425.712V427.068C160.326 427.204 160.282 427.32 160.194 427.416C160.106 427.512 159.982 427.56 159.822 427.56H157.83V432H155.778V427.56H148.218C148.042 427.56 147.894 427.512 147.774 427.416C147.654 427.312 147.574 427.184 147.534 427.032L147.294 425.832L155.622 414.756H157.83V425.712H160.326Z" fill="#CE95EC"/>
<defs>
<linearGradient id="paint0_linear_1281_3377" x1="219.5" y1="205" x2="333" y2="24.5" gradientUnits="userSpaceOnUse">
<stop stop-color="#432257"/>
<stop offset="1" stop-color="#61307F"/>
</linearGradient>
</defs>
</svg>
