<svg width="348" height="475" viewBox="0 0 348 475" fill="none" xmlns="http://www.w3.org/2000/svg">
<rect width="348" height="475" rx="16" fill="url(#paint0_linear_1281_3374)"/>
<circle cx="103" cy="230" r="70" fill="#6899A1"/>
<g clip-path="url(#clip0_1281_3374)">
<rect width="334" height="157" transform="translate(7 73)" fill="#244D53"/>
<circle cx="255" cy="230" r="70" fill="#AECCD1"/>
</g>
<path d="M40.3557 422.636C41.0037 422.636 41.5717 422.552 42.0597 422.384C42.5557 422.216 42.9677 421.98 43.2957 421.676C43.6317 421.364 43.8837 420.996 44.0517 420.572C44.2197 420.14 44.3037 419.664 44.3037 419.144C44.3037 418.096 43.9757 417.272 43.3197 416.672C42.6717 416.072 41.6837 415.772 40.3557 415.772H37.6917V422.636H40.3557ZM40.3557 413.768C41.4597 413.768 42.4197 413.896 43.2357 414.152C44.0517 414.408 44.7277 414.772 45.2637 415.244C45.7997 415.708 46.1957 416.272 46.4517 416.936C46.7157 417.6 46.8477 418.336 46.8477 419.144C46.8477 419.952 46.7077 420.696 46.4277 421.376C46.1477 422.048 45.7357 422.628 45.1917 423.116C44.6477 423.604 43.9677 423.984 43.1517 424.256C42.3437 424.52 41.4117 424.652 40.3557 424.652H37.6917V431H35.1357V413.768H40.3557ZM54.551 422.072C55.207 422.072 55.783 421.992 56.279 421.832C56.783 421.672 57.203 421.448 57.539 421.16C57.875 420.864 58.127 420.516 58.295 420.116C58.463 419.708 58.547 419.26 58.547 418.772C58.547 417.78 58.219 417.032 57.563 416.528C56.915 416.024 55.939 415.772 54.635 415.772H52.223V422.072H54.551ZM62.591 431H60.311C59.855 431 59.523 430.82 59.315 430.46L55.055 424.484C54.919 424.284 54.771 424.144 54.611 424.064C54.451 423.976 54.211 423.932 53.891 423.932H52.223V431H49.667V413.768H54.635C55.747 413.768 56.703 413.884 57.503 414.116C58.311 414.34 58.975 414.664 59.495 415.088C60.023 415.504 60.411 416.008 60.659 416.6C60.915 417.192 61.043 417.856 61.043 418.592C61.043 419.192 60.951 419.756 60.767 420.284C60.583 420.812 60.311 421.288 59.951 421.712C59.599 422.128 59.167 422.488 58.655 422.792C58.143 423.096 57.563 423.328 56.915 423.488C57.235 423.68 57.511 423.948 57.743 424.292L62.591 431ZM80.6761 422.384C80.6761 423.672 80.4681 424.856 80.0521 425.936C79.6441 427.008 79.0641 427.936 78.3121 428.72C77.5601 429.496 76.6601 430.1 75.6121 430.532C74.5641 430.964 73.4001 431.18 72.1201 431.18C70.8481 431.18 69.6841 430.964 68.6281 430.532C67.5801 430.1 66.6801 429.496 65.9281 428.72C65.1841 427.936 64.6041 427.008 64.1881 425.936C63.7721 424.856 63.5641 423.672 63.5641 422.384C63.5641 421.104 63.7721 419.924 64.1881 418.844C64.6041 417.764 65.1841 416.836 65.9281 416.06C66.6801 415.276 67.5801 414.668 68.6281 414.236C69.6841 413.796 70.8481 413.576 72.1201 413.576C73.4001 413.576 74.5641 413.796 75.6121 414.236C76.6601 414.668 77.5601 415.276 78.3121 416.06C79.0641 416.836 79.6441 417.764 80.0521 418.844C80.4681 419.924 80.6761 421.104 80.6761 422.384ZM78.0601 422.384C78.0601 421.36 77.9201 420.44 77.6401 419.624C77.3601 418.808 76.9601 418.116 76.4401 417.548C75.9281 416.98 75.3041 416.544 74.5681 416.24C73.8401 415.936 73.0241 415.784 72.1201 415.784C71.2161 415.784 70.3961 415.936 69.6601 416.24C68.9321 416.544 68.3081 416.98 67.7881 417.548C67.2681 418.116 66.8681 418.808 66.5881 419.624C66.3081 420.44 66.1681 421.36 66.1681 422.384C66.1681 423.416 66.3081 424.34 66.5881 425.156C66.8681 425.964 67.2681 426.652 67.7881 427.22C68.3081 427.788 68.9321 428.224 69.6601 428.528C70.3961 428.824 71.2161 428.972 72.1201 428.972C73.0241 428.972 73.8401 428.824 74.5681 428.528C75.3041 428.224 75.9281 427.788 76.4401 427.22C76.9601 426.652 77.3601 425.964 77.6401 425.156C77.9201 424.34 78.0601 423.416 78.0601 422.384ZM89.15 425C89.15 425.96 89.03 426.824 88.79 427.592C88.55 428.36 88.198 429.012 87.734 429.548C87.278 430.076 86.706 430.484 86.018 430.772C85.338 431.052 84.554 431.192 83.666 431.192C82.866 431.192 82.042 431.08 81.194 430.856L81.338 429.344C81.354 429.2 81.406 429.084 81.494 428.996C81.59 428.9 81.73 428.852 81.914 428.852C82.05 428.852 82.234 428.888 82.466 428.96C82.706 429.024 83.018 429.056 83.402 429.056C83.914 429.056 84.366 428.98 84.758 428.828C85.158 428.676 85.494 428.44 85.766 428.12C86.038 427.792 86.242 427.376 86.378 426.872C86.522 426.368 86.594 425.764 86.594 425.06V413.768H89.15V425ZM103.929 428.924L103.917 431H93.2373V413.768H103.917V415.844H95.8053V421.304H102.333V423.308H95.8053V428.924H103.929ZM118.75 427.304C118.894 427.304 119.018 427.36 119.122 427.472L120.13 428.576C119.426 429.408 118.566 430.052 117.55 430.508C116.542 430.964 115.326 431.192 113.902 431.192C112.654 431.192 111.522 430.976 110.506 430.544C109.498 430.112 108.634 429.508 107.914 428.732C107.202 427.956 106.65 427.028 106.258 425.948C105.866 424.868 105.67 423.68 105.67 422.384C105.67 421.088 105.874 419.9 106.282 418.82C106.698 417.74 107.278 416.812 108.022 416.036C108.766 415.26 109.654 414.656 110.686 414.224C111.726 413.792 112.874 413.576 114.13 413.576C115.354 413.576 116.442 413.776 117.394 414.176C118.346 414.576 119.174 415.108 119.878 415.772L119.038 416.96C118.982 417.048 118.91 417.12 118.822 417.176C118.742 417.232 118.634 417.26 118.498 417.26C118.346 417.26 118.166 417.184 117.958 417.032C117.758 416.88 117.49 416.712 117.154 416.528C116.826 416.336 116.418 416.164 115.93 416.012C115.442 415.86 114.834 415.784 114.106 415.784C113.25 415.784 112.466 415.936 111.754 416.24C111.042 416.536 110.426 416.968 109.906 417.536C109.394 418.096 108.994 418.788 108.706 419.612C108.426 420.428 108.286 421.352 108.286 422.384C108.286 423.432 108.434 424.364 108.73 425.18C109.026 425.996 109.434 426.688 109.954 427.256C110.474 427.824 111.086 428.256 111.79 428.552C112.494 428.848 113.254 428.996 114.07 428.996C114.566 428.996 115.01 428.968 115.402 428.912C115.802 428.848 116.166 428.756 116.494 428.636C116.83 428.516 117.146 428.364 117.442 428.18C117.738 427.988 118.03 427.76 118.318 427.496C118.382 427.44 118.45 427.396 118.522 427.364C118.594 427.324 118.67 427.304 118.75 427.304ZM134.446 415.904H128.974V431H126.43V415.904H120.934V413.768H134.446V415.904ZM153.369 422.384C153.369 423.888 153.205 425.192 152.877 426.296C152.557 427.4 152.113 428.316 151.545 429.044C150.985 429.764 150.321 430.3 149.553 430.652C148.793 431.004 147.973 431.18 147.093 431.18C146.213 431.18 145.389 431.004 144.621 430.652C143.861 430.3 143.201 429.764 142.641 429.044C142.081 428.316 141.641 427.4 141.321 426.296C141.001 425.192 140.841 423.888 140.841 422.384C140.841 420.88 141.001 419.576 141.321 418.472C141.641 417.36 142.081 416.444 142.641 415.724C143.201 414.996 143.861 414.456 144.621 414.104C145.389 413.752 146.213 413.576 147.093 413.576C147.973 413.576 148.793 413.752 149.553 414.104C150.321 414.456 150.985 414.996 151.545 415.724C152.113 416.444 152.557 417.36 152.877 418.472C153.205 419.576 153.369 420.88 153.369 422.384ZM150.945 422.384C150.945 421.088 150.837 420.004 150.621 419.132C150.413 418.26 150.129 417.56 149.769 417.032C149.417 416.496 149.009 416.116 148.545 415.892C148.081 415.668 147.597 415.556 147.093 415.556C146.589 415.556 146.105 415.668 145.641 415.892C145.177 416.116 144.765 416.496 144.405 417.032C144.053 417.56 143.773 418.26 143.565 419.132C143.357 420.004 143.253 421.088 143.253 422.384C143.253 423.68 143.357 424.764 143.565 425.636C143.773 426.508 144.053 427.208 144.405 427.736C144.765 428.264 145.177 428.64 145.641 428.864C146.105 429.088 146.589 429.2 147.093 429.2C147.597 429.2 148.081 429.088 148.545 428.864C149.009 428.64 149.417 428.264 149.769 427.736C150.129 427.208 150.413 426.508 150.621 425.636C150.837 424.764 150.945 423.68 150.945 422.384ZM165.898 428.78C166.154 428.78 166.354 428.856 166.498 429.008C166.642 429.152 166.714 429.344 166.714 429.584V431H155.146V430.196C155.146 430.036 155.178 429.868 155.242 429.692C155.306 429.508 155.414 429.344 155.566 429.2L161.014 423.74C161.47 423.284 161.882 422.844 162.25 422.42C162.618 421.996 162.93 421.576 163.186 421.16C163.442 420.736 163.638 420.304 163.774 419.864C163.918 419.424 163.99 418.96 163.99 418.472C163.99 417.992 163.914 417.572 163.762 417.212C163.61 416.844 163.402 416.54 163.138 416.3C162.874 416.06 162.562 415.88 162.202 415.76C161.842 415.64 161.454 415.58 161.038 415.58C160.622 415.58 160.238 415.64 159.886 415.76C159.542 415.88 159.234 416.048 158.962 416.264C158.69 416.48 158.462 416.736 158.278 417.032C158.094 417.328 157.962 417.648 157.882 417.992C157.77 418.296 157.626 418.5 157.45 418.604C157.282 418.708 157.034 418.732 156.706 418.676L155.482 418.46C155.594 417.66 155.814 416.956 156.142 416.348C156.47 415.74 156.882 415.232 157.378 414.824C157.874 414.408 158.442 414.096 159.082 413.888C159.73 413.68 160.426 413.576 161.17 413.576C161.922 413.576 162.614 413.688 163.246 413.912C163.886 414.128 164.438 414.444 164.902 414.86C165.366 415.276 165.73 415.784 165.994 416.384C166.258 416.976 166.39 417.648 166.39 418.4C166.39 419.04 166.294 419.636 166.102 420.188C165.918 420.732 165.662 421.252 165.334 421.748C165.014 422.244 164.638 422.728 164.206 423.2C163.782 423.664 163.33 424.136 162.85 424.616L158.482 429.08C158.818 428.992 159.154 428.92 159.49 428.864C159.834 428.808 160.158 428.78 160.462 428.78H165.898Z" fill="#89B2B9"/>
<defs>
<linearGradient id="paint0_linear_1281_3374" x1="209.5" y1="238" x2="324.5" y2="464.5" gradientUnits="userSpaceOnUse">
<stop stop-color="#244D53"/>
<stop offset="1" stop-color="#34666D"/>
</linearGradient>
<clipPath id="clip0_1281_3374">
<rect width="334" height="157" fill="white" transform="translate(7 73)"/>
</clipPath>
</defs>
</svg>
