<svg width="348" height="475" viewBox="0 0 348 475" fill="none" xmlns="http://www.w3.org/2000/svg">
<rect width="348" height="475" rx="16" fill="url(#paint0_linear_1281_3375)"/>
<path d="M36.3557 421.636C37.0037 421.636 37.5717 421.552 38.0597 421.384C38.5557 421.216 38.9677 420.98 39.2957 420.676C39.6317 420.364 39.8837 419.996 40.0517 419.572C40.2197 419.14 40.3037 418.664 40.3037 418.144C40.3037 417.096 39.9757 416.272 39.3197 415.672C38.6717 415.072 37.6837 414.772 36.3557 414.772H33.6917V421.636H36.3557ZM36.3557 412.768C37.4597 412.768 38.4197 412.896 39.2357 413.152C40.0517 413.408 40.7277 413.772 41.2637 414.244C41.7997 414.708 42.1957 415.272 42.4517 415.936C42.7157 416.6 42.8477 417.336 42.8477 418.144C42.8477 418.952 42.7077 419.696 42.4277 420.376C42.1477 421.048 41.7357 421.628 41.1917 422.116C40.6477 422.604 39.9677 422.984 39.1517 423.256C38.3437 423.52 37.4117 423.652 36.3557 423.652H33.6917V430H31.1357V412.768H36.3557ZM50.551 421.072C51.207 421.072 51.783 420.992 52.279 420.832C52.783 420.672 53.203 420.448 53.539 420.16C53.875 419.864 54.127 419.516 54.295 419.116C54.463 418.708 54.547 418.26 54.547 417.772C54.547 416.78 54.219 416.032 53.563 415.528C52.915 415.024 51.939 414.772 50.635 414.772H48.223V421.072H50.551ZM58.591 430H56.311C55.855 430 55.523 429.82 55.315 429.46L51.055 423.484C50.919 423.284 50.771 423.144 50.611 423.064C50.451 422.976 50.211 422.932 49.891 422.932H48.223V430H45.667V412.768H50.635C51.747 412.768 52.703 412.884 53.503 413.116C54.311 413.34 54.975 413.664 55.495 414.088C56.023 414.504 56.411 415.008 56.659 415.6C56.915 416.192 57.043 416.856 57.043 417.592C57.043 418.192 56.951 418.756 56.767 419.284C56.583 419.812 56.311 420.288 55.951 420.712C55.599 421.128 55.167 421.488 54.655 421.792C54.143 422.096 53.563 422.328 52.915 422.488C53.235 422.68 53.511 422.948 53.743 423.292L58.591 430ZM76.6761 421.384C76.6761 422.672 76.4681 423.856 76.0521 424.936C75.6441 426.008 75.0641 426.936 74.3121 427.72C73.5601 428.496 72.6601 429.1 71.6121 429.532C70.5641 429.964 69.4001 430.18 68.1201 430.18C66.8481 430.18 65.6841 429.964 64.6281 429.532C63.5801 429.1 62.6801 428.496 61.9281 427.72C61.1841 426.936 60.6041 426.008 60.1881 424.936C59.7721 423.856 59.5641 422.672 59.5641 421.384C59.5641 420.104 59.7721 418.924 60.1881 417.844C60.6041 416.764 61.1841 415.836 61.9281 415.06C62.6801 414.276 63.5801 413.668 64.6281 413.236C65.6841 412.796 66.8481 412.576 68.1201 412.576C69.4001 412.576 70.5641 412.796 71.6121 413.236C72.6601 413.668 73.5601 414.276 74.3121 415.06C75.0641 415.836 75.6441 416.764 76.0521 417.844C76.4681 418.924 76.6761 420.104 76.6761 421.384ZM74.0601 421.384C74.0601 420.36 73.9201 419.44 73.6401 418.624C73.3601 417.808 72.9601 417.116 72.4401 416.548C71.9281 415.98 71.3041 415.544 70.5681 415.24C69.8401 414.936 69.0241 414.784 68.1201 414.784C67.2161 414.784 66.3961 414.936 65.6601 415.24C64.9321 415.544 64.3081 415.98 63.7881 416.548C63.2681 417.116 62.8681 417.808 62.5881 418.624C62.3081 419.44 62.1681 420.36 62.1681 421.384C62.1681 422.416 62.3081 423.34 62.5881 424.156C62.8681 424.964 63.2681 425.652 63.7881 426.22C64.3081 426.788 64.9321 427.224 65.6601 427.528C66.3961 427.824 67.2161 427.972 68.1201 427.972C69.0241 427.972 69.8401 427.824 70.5681 427.528C71.3041 427.224 71.9281 426.788 72.4401 426.22C72.9601 425.652 73.3601 424.964 73.6401 424.156C73.9201 423.34 74.0601 422.416 74.0601 421.384ZM85.15 424C85.15 424.96 85.03 425.824 84.79 426.592C84.55 427.36 84.198 428.012 83.734 428.548C83.278 429.076 82.706 429.484 82.018 429.772C81.338 430.052 80.554 430.192 79.666 430.192C78.866 430.192 78.042 430.08 77.194 429.856L77.338 428.344C77.354 428.2 77.406 428.084 77.494 427.996C77.59 427.9 77.73 427.852 77.914 427.852C78.05 427.852 78.234 427.888 78.466 427.96C78.706 428.024 79.018 428.056 79.402 428.056C79.914 428.056 80.366 427.98 80.758 427.828C81.158 427.676 81.494 427.44 81.766 427.12C82.038 426.792 82.242 426.376 82.378 425.872C82.522 425.368 82.594 424.764 82.594 424.06V412.768H85.15V424ZM99.9293 427.924L99.9173 430H89.2373V412.768H99.9173V414.844H91.8053V420.304H98.3333V422.308H91.8053V427.924H99.9293ZM114.75 426.304C114.894 426.304 115.018 426.36 115.122 426.472L116.13 427.576C115.426 428.408 114.566 429.052 113.55 429.508C112.542 429.964 111.326 430.192 109.902 430.192C108.654 430.192 107.522 429.976 106.506 429.544C105.498 429.112 104.634 428.508 103.914 427.732C103.202 426.956 102.65 426.028 102.258 424.948C101.866 423.868 101.67 422.68 101.67 421.384C101.67 420.088 101.874 418.9 102.282 417.82C102.698 416.74 103.278 415.812 104.022 415.036C104.766 414.26 105.654 413.656 106.686 413.224C107.726 412.792 108.874 412.576 110.13 412.576C111.354 412.576 112.442 412.776 113.394 413.176C114.346 413.576 115.174 414.108 115.878 414.772L115.038 415.96C114.982 416.048 114.91 416.12 114.822 416.176C114.742 416.232 114.634 416.26 114.498 416.26C114.346 416.26 114.166 416.184 113.958 416.032C113.758 415.88 113.49 415.712 113.154 415.528C112.826 415.336 112.418 415.164 111.93 415.012C111.442 414.86 110.834 414.784 110.106 414.784C109.25 414.784 108.466 414.936 107.754 415.24C107.042 415.536 106.426 415.968 105.906 416.536C105.394 417.096 104.994 417.788 104.706 418.612C104.426 419.428 104.286 420.352 104.286 421.384C104.286 422.432 104.434 423.364 104.73 424.18C105.026 424.996 105.434 425.688 105.954 426.256C106.474 426.824 107.086 427.256 107.79 427.552C108.494 427.848 109.254 427.996 110.07 427.996C110.566 427.996 111.01 427.968 111.402 427.912C111.802 427.848 112.166 427.756 112.494 427.636C112.83 427.516 113.146 427.364 113.442 427.18C113.738 426.988 114.03 426.76 114.318 426.496C114.382 426.44 114.45 426.396 114.522 426.364C114.594 426.324 114.67 426.304 114.75 426.304ZM130.446 414.904H124.974V430H122.43V414.904H116.934V412.768H130.446V414.904ZM149.369 421.384C149.369 422.888 149.205 424.192 148.877 425.296C148.557 426.4 148.113 427.316 147.545 428.044C146.985 428.764 146.321 429.3 145.553 429.652C144.793 430.004 143.973 430.18 143.093 430.18C142.213 430.18 141.389 430.004 140.621 429.652C139.861 429.3 139.201 428.764 138.641 428.044C138.081 427.316 137.641 426.4 137.321 425.296C137.001 424.192 136.841 422.888 136.841 421.384C136.841 419.88 137.001 418.576 137.321 417.472C137.641 416.36 138.081 415.444 138.641 414.724C139.201 413.996 139.861 413.456 140.621 413.104C141.389 412.752 142.213 412.576 143.093 412.576C143.973 412.576 144.793 412.752 145.553 413.104C146.321 413.456 146.985 413.996 147.545 414.724C148.113 415.444 148.557 416.36 148.877 417.472C149.205 418.576 149.369 419.88 149.369 421.384ZM146.945 421.384C146.945 420.088 146.837 419.004 146.621 418.132C146.413 417.26 146.129 416.56 145.769 416.032C145.417 415.496 145.009 415.116 144.545 414.892C144.081 414.668 143.597 414.556 143.093 414.556C142.589 414.556 142.105 414.668 141.641 414.892C141.177 415.116 140.765 415.496 140.405 416.032C140.053 416.56 139.773 417.26 139.565 418.132C139.357 419.004 139.253 420.088 139.253 421.384C139.253 422.68 139.357 423.764 139.565 424.636C139.773 425.508 140.053 426.208 140.405 426.736C140.765 427.264 141.177 427.64 141.641 427.864C142.105 428.088 142.589 428.2 143.093 428.2C143.597 428.2 144.081 428.088 144.545 427.864C145.009 427.64 145.417 427.264 145.769 426.736C146.129 426.208 146.413 425.508 146.621 424.636C146.837 423.764 146.945 422.68 146.945 421.384ZM151.554 417.46C151.674 416.66 151.898 415.956 152.226 415.348C152.554 414.74 152.966 414.232 153.462 413.824C153.958 413.408 154.526 413.096 155.166 412.888C155.814 412.68 156.51 412.576 157.254 412.576C157.998 412.576 158.682 412.684 159.306 412.9C159.93 413.108 160.462 413.408 160.902 413.8C161.35 414.184 161.698 414.648 161.946 415.192C162.194 415.736 162.318 416.336 162.318 416.992C162.318 417.544 162.25 418.032 162.114 418.456C161.978 418.88 161.782 419.252 161.526 419.572C161.278 419.892 160.974 420.164 160.614 420.388C160.254 420.604 159.85 420.784 159.402 420.928C160.498 421.232 161.322 421.728 161.874 422.416C162.426 423.096 162.702 423.96 162.702 425.008C162.702 425.816 162.55 426.544 162.246 427.192C161.942 427.832 161.526 428.376 160.998 428.824C160.47 429.264 159.854 429.604 159.15 429.844C158.454 430.076 157.71 430.192 156.918 430.192C156.014 430.192 155.238 430.084 154.59 429.868C153.942 429.644 153.39 429.336 152.934 428.944C152.478 428.544 152.098 428.068 151.794 427.516C151.498 426.956 151.246 426.344 151.038 425.68L152.058 425.248C152.322 425.136 152.578 425.104 152.826 425.152C153.074 425.2 153.254 425.34 153.366 425.572C153.486 425.812 153.622 426.084 153.774 426.388C153.934 426.684 154.146 426.968 154.41 427.24C154.674 427.504 155.002 427.728 155.394 427.912C155.794 428.096 156.294 428.188 156.894 428.188C157.47 428.188 157.974 428.096 158.406 427.912C158.838 427.72 159.198 427.476 159.486 427.18C159.774 426.876 159.99 426.54 160.134 426.172C160.278 425.804 160.35 425.44 160.35 425.08C160.35 424.632 160.294 424.22 160.182 423.844C160.07 423.468 159.854 423.148 159.534 422.884C159.222 422.612 158.786 422.4 158.226 422.248C157.666 422.096 156.938 422.02 156.042 422.02V420.316C156.778 420.308 157.398 420.232 157.902 420.088C158.414 419.944 158.826 419.744 159.138 419.488C159.45 419.232 159.674 418.928 159.81 418.576C159.954 418.224 160.026 417.832 160.026 417.4C160.026 416.928 159.954 416.516 159.81 416.164C159.666 415.812 159.462 415.52 159.198 415.288C158.942 415.048 158.634 414.872 158.274 414.76C157.922 414.64 157.538 414.58 157.122 414.58C156.706 414.58 156.322 414.64 155.97 414.76C155.618 414.88 155.306 415.048 155.034 415.264C154.762 415.48 154.534 415.736 154.35 416.032C154.166 416.328 154.034 416.648 153.954 416.992C153.842 417.296 153.698 417.5 153.522 417.604C153.354 417.708 153.11 417.732 152.79 417.676L151.554 417.46Z" fill="#89B2B9"/>
<line x1="38.6464" y1="306.646" x2="293.646" y2="51.6465" stroke="#AECCD1"/>
<line x1="164.354" y1="38.6464" x2="336.354" y2="210.646" stroke="#AECCD1"/>
<path d="M205.332 188.338C211.853 194.817 217.034 202.517 220.579 210.999C224.125 219.48 225.964 228.577 225.994 237.769C226.024 246.962 224.242 256.07 220.752 264.574C217.261 273.078 212.13 280.812 205.651 287.333C199.172 293.854 191.472 299.035 182.99 302.58C174.509 306.125 165.412 307.965 156.22 307.994C147.027 308.024 137.919 306.243 129.415 302.752C120.911 299.262 113.178 294.13 106.657 287.651L155.994 237.995L205.332 188.338Z" fill="#F2DAFD"/>
<defs>
<linearGradient id="paint0_linear_1281_3375" x1="166.5" y1="203" x2="311.5" y2="466.5" gradientUnits="userSpaceOnUse">
<stop stop-color="#244D53"/>
<stop offset="1" stop-color="#34666D"/>
</linearGradient>
</defs>
</svg>
