<svg width="251" height="295" viewBox="0 0 251 295" fill="none" xmlns="http://www.w3.org/2000/svg">
<g clip-path="url(#clip0_331_14470)">
<rect y="0.5" width="251" height="294" rx="4" fill="#EFDEE5"/>
<path d="M157 241.108C157 290.813 116.706 331.108 67 331.108C17.2944 331.108 -23 290.813 -23 241.108C-23 191.402 -10.0474 72.5 39.6582 72.5C89.3639 72.5 157 191.402 157 241.108Z" fill="#D6E5E8"/>
<path d="M290 246.987C290 290.886 230.265 353.64 186.365 353.64C106.878 319.431 120.965 263.72 120.965 219.82C120.965 175.921 166.614 167.5 210.513 167.5C254.412 167.5 290 203.087 290 246.987Z" fill="#FBEFDA"/>
<path d="M138.011 29.932C138.054 29.932 138.179 29.9347 138.387 29.94C138.6 29.94 138.856 29.94 139.155 29.94C139.454 29.9347 139.758 29.9347 140.067 29.94C140.382 29.94 140.662 29.9427 140.907 29.948C142.32 29.9693 143.47 30.204 144.355 30.652C145.24 31.1 145.888 31.7453 146.299 32.588C146.715 33.4253 146.923 34.4467 146.923 35.652C146.923 36.9053 146.702 37.9693 146.259 38.844C145.816 39.7133 145.139 40.3747 144.227 40.828C143.32 41.276 142.171 41.5 140.779 41.5H138.011V29.932ZM139.755 31.372V40.06H140.795C141.67 40.06 142.43 39.9187 143.075 39.636C143.726 39.348 144.23 38.884 144.587 38.244C144.944 37.5987 145.123 36.7373 145.123 35.66C145.123 34.604 144.952 33.764 144.611 33.14C144.27 32.5107 143.779 32.06 143.139 31.788C142.504 31.5107 141.739 31.372 140.843 31.372H139.755ZM149.854 44.14C149.347 44.14 148.995 44.1027 148.798 44.028C148.606 43.9533 148.51 43.916 148.51 43.916V42.812L149.35 42.828C149.67 42.844 149.931 42.8253 150.134 42.772C150.342 42.7187 150.505 42.644 150.622 42.548C150.745 42.4573 150.838 42.3587 150.902 42.252C150.966 42.1453 151.014 42.0467 151.046 41.956L151.302 41.26L148.078 33.228H149.79L152.11 39.34L154.414 33.228H156.094L152.646 41.964C152.411 42.54 152.153 42.9853 151.87 43.3C151.593 43.6147 151.286 43.8333 150.95 43.956C150.614 44.0787 150.249 44.14 149.854 44.14ZM157.566 41.5V33.228H159.238V34.42C159.372 34.196 159.55 33.9853 159.774 33.788C160.004 33.5907 160.284 33.4307 160.614 33.308C160.95 33.1853 161.337 33.124 161.774 33.124C162.292 33.124 162.769 33.228 163.206 33.436C163.649 33.6387 164.004 33.9587 164.27 34.396C164.537 34.828 164.67 35.388 164.67 36.076V41.5H162.958V36.26C162.958 35.668 162.798 35.228 162.478 34.94C162.164 34.652 161.756 34.508 161.254 34.508C160.918 34.508 160.598 34.564 160.294 34.676C159.99 34.788 159.745 34.9587 159.558 35.188C159.372 35.412 159.278 35.6947 159.278 36.036V41.5H157.566ZM169.152 41.66C168.619 41.66 168.144 41.564 167.728 41.372C167.317 41.18 166.995 40.9027 166.76 40.54C166.525 40.1773 166.408 39.74 166.408 39.228C166.408 38.3107 166.733 37.6253 167.384 37.172C168.035 36.7187 169.072 36.4787 170.496 36.452L171.856 36.412V35.812C171.856 35.3373 171.715 34.964 171.432 34.692C171.149 34.42 170.715 34.2867 170.128 34.292C169.685 34.292 169.291 34.3933 168.944 34.596C168.603 34.7987 168.379 35.132 168.272 35.596H166.784C166.816 35.0467 166.973 34.5853 167.256 34.212C167.544 33.8333 167.939 33.548 168.44 33.356C168.941 33.164 169.531 33.068 170.208 33.068C170.96 33.068 171.579 33.172 172.064 33.38C172.549 33.5827 172.909 33.8813 173.144 34.276C173.384 34.6707 173.504 35.1507 173.504 35.716V41.5H172.056L171.92 39.98C171.611 40.6147 171.219 41.0547 170.744 41.3C170.275 41.54 169.744 41.66 169.152 41.66ZM169.688 40.468C169.949 40.468 170.208 40.4227 170.464 40.332C170.72 40.236 170.952 40.108 171.16 39.948C171.368 39.7827 171.533 39.5987 171.656 39.396C171.784 39.1933 171.851 38.9853 171.856 38.772V37.404L170.736 37.428C170.165 37.4333 169.68 37.492 169.28 37.604C168.885 37.716 168.581 37.8893 168.368 38.124C168.16 38.3587 168.056 38.6707 168.056 39.06C168.056 39.5027 168.211 39.8493 168.52 40.1C168.829 40.3453 169.219 40.468 169.688 40.468ZM175.91 41.5V33.228H177.574V34.42C177.809 34.0573 178.129 33.7427 178.534 33.476C178.939 33.204 179.462 33.068 180.102 33.068C180.401 33.068 180.702 33.1187 181.006 33.22C181.315 33.3213 181.598 33.4733 181.854 33.676C182.115 33.8733 182.321 34.1187 182.47 34.412C182.731 34.0173 183.081 33.6947 183.518 33.444C183.955 33.1933 184.446 33.068 184.99 33.068C185.283 33.068 185.587 33.116 185.902 33.212C186.217 33.3027 186.507 33.46 186.774 33.684C187.046 33.9027 187.265 34.2067 187.43 34.596C187.601 34.9853 187.686 35.4787 187.686 36.076V41.5H185.966V36.26C185.966 35.8067 185.889 35.452 185.734 35.196C185.585 34.94 185.387 34.7613 185.142 34.66C184.902 34.5533 184.646 34.5 184.374 34.5C184.129 34.5 183.873 34.548 183.606 34.644C183.339 34.74 183.113 34.9 182.926 35.124C182.739 35.348 182.646 35.652 182.646 36.036V41.5H180.934V35.892C180.934 35.588 180.851 35.332 180.686 35.124C180.526 34.916 180.323 34.7613 180.078 34.66C179.838 34.5533 179.598 34.5 179.358 34.5C179.091 34.5 178.825 34.5533 178.558 34.66C178.291 34.7667 178.067 34.9347 177.886 35.164C177.71 35.388 177.622 35.6787 177.622 36.036V41.5H175.91ZM191.687 33.228V41.5H190.039V33.228H191.687ZM191.719 29.94V31.628H189.999V29.94H191.719ZM197.512 33.068C198.131 33.068 198.68 33.1907 199.16 33.436C199.646 33.676 200.038 34.012 200.336 34.444C200.635 34.876 200.816 35.38 200.88 35.956H199.4C199.352 35.684 199.248 35.4307 199.088 35.196C198.934 34.9613 198.723 34.7747 198.456 34.636C198.195 34.492 197.883 34.42 197.52 34.42C196.859 34.42 196.32 34.6627 195.904 35.148C195.488 35.6333 195.28 36.3773 195.28 37.38C195.28 38.2973 195.472 39.028 195.856 39.572C196.246 40.116 196.811 40.388 197.552 40.388C197.91 40.388 198.219 40.3133 198.48 40.164C198.747 40.0147 198.958 39.8227 199.112 39.588C199.267 39.3533 199.366 39.1107 199.408 38.86H200.864C200.806 39.4147 200.624 39.9027 200.32 40.324C200.022 40.7453 199.63 41.0733 199.144 41.308C198.664 41.5427 198.12 41.66 197.512 41.66C196.76 41.66 196.094 41.4973 195.512 41.172C194.931 40.8413 194.475 40.3587 194.144 39.724C193.819 39.084 193.656 38.308 193.656 37.396C193.656 36.5373 193.808 35.7827 194.112 35.132C194.416 34.4813 194.856 33.9747 195.432 33.612C196.014 33.2493 196.707 33.068 197.512 33.068ZM208.543 41.66C208.009 41.66 207.535 41.564 207.118 41.372C206.708 41.18 206.385 40.9027 206.151 40.54C205.916 40.1773 205.799 39.74 205.799 39.228C205.799 38.3107 206.124 37.6253 206.775 37.172C207.425 36.7187 208.463 36.4787 209.887 36.452L211.247 36.412V35.812C211.247 35.3373 211.105 34.964 210.823 34.692C210.54 34.42 210.105 34.2867 209.519 34.292C209.076 34.292 208.681 34.3933 208.335 34.596C207.993 34.7987 207.769 35.132 207.663 35.596H206.175C206.207 35.0467 206.364 34.5853 206.647 34.212C206.935 33.8333 207.329 33.548 207.831 33.356C208.332 33.164 208.921 33.068 209.599 33.068C210.351 33.068 210.969 33.172 211.455 33.38C211.94 33.5827 212.3 33.8813 212.535 34.276C212.775 34.6707 212.895 35.1507 212.895 35.716V41.5H211.447L211.311 39.98C211.001 40.6147 210.609 41.0547 210.135 41.3C209.665 41.54 209.135 41.66 208.543 41.66ZM209.079 40.468C209.34 40.468 209.599 40.4227 209.855 40.332C210.111 40.236 210.343 40.108 210.551 39.948C210.759 39.7827 210.924 39.5987 211.047 39.396C211.175 39.1933 211.241 38.9853 211.247 38.772V37.404L210.127 37.428C209.556 37.4333 209.071 37.492 208.671 37.604C208.276 37.716 207.972 37.8893 207.759 38.124C207.551 38.3587 207.447 38.6707 207.447 39.06C207.447 39.5027 207.601 39.8493 207.911 40.1C208.22 40.3453 208.609 40.468 209.079 40.468ZM215.301 41.5V33.228H216.973V34.42C217.106 34.196 217.285 33.9853 217.509 33.788C217.738 33.5907 218.018 33.4307 218.349 33.308C218.685 33.1853 219.071 33.124 219.509 33.124C220.026 33.124 220.503 33.228 220.941 33.436C221.383 33.6387 221.738 33.9587 222.005 34.396C222.271 34.828 222.405 35.388 222.405 36.076V41.5H220.693V36.26C220.693 35.668 220.533 35.228 220.213 34.94C219.898 34.652 219.49 34.508 218.989 34.508C218.653 34.508 218.333 34.564 218.029 34.676C217.725 34.788 217.479 34.9587 217.293 35.188C217.106 35.412 217.013 35.6947 217.013 36.036V41.5H215.301ZM227.614 41.66C226.526 41.66 225.67 41.2893 225.046 40.548C224.422 39.8013 224.11 38.7267 224.11 37.324C224.11 36.4653 224.235 35.7187 224.486 35.084C224.736 34.444 225.11 33.948 225.606 33.596C226.107 33.244 226.726 33.068 227.462 33.068C227.835 33.068 228.166 33.1133 228.454 33.204C228.747 33.2947 229.003 33.412 229.222 33.556C229.446 33.7 229.63 33.8547 229.774 34.02C229.923 34.1853 230.038 34.34 230.118 34.484V29.612H231.838V41.5H230.558L230.366 39.804C230.307 39.9853 230.216 40.1827 230.094 40.396C229.971 40.6093 229.803 40.812 229.59 41.004C229.382 41.196 229.115 41.3533 228.79 41.476C228.464 41.5987 228.072 41.66 227.614 41.66ZM227.942 40.372C228.71 40.372 229.264 40.132 229.606 39.652C229.947 39.1667 230.118 38.372 230.118 37.268C230.112 36.644 230.035 36.116 229.886 35.684C229.736 35.252 229.504 34.9267 229.19 34.708C228.88 34.484 228.472 34.372 227.966 34.372C227.331 34.372 226.814 34.6013 226.414 35.06C226.014 35.5133 225.814 36.2493 225.814 37.268C225.814 38.2707 225.995 39.0387 226.358 39.572C226.726 40.1053 227.254 40.372 227.942 40.372ZM158.053 60.5H156.253L154.205 55.66H151.301V60.5H149.589V48.932H154.181C155.04 48.932 155.752 49.0653 156.317 49.332C156.882 49.5933 157.304 49.9667 157.581 50.452C157.858 50.9373 157.997 51.5107 157.997 52.172C157.997 52.796 157.89 53.316 157.677 53.732C157.469 54.148 157.197 54.4867 156.861 54.748C156.53 55.0093 156.181 55.2147 155.813 55.364L158.053 60.5ZM153.717 54.276C154.522 54.276 155.146 54.1027 155.589 53.756C156.032 53.404 156.253 52.9027 156.253 52.252C156.253 51.612 156.05 51.1267 155.645 50.796C155.245 50.4653 154.701 50.3 154.013 50.3H151.301V54.276H153.717ZM161.222 56.764C161.222 57.26 161.302 57.7053 161.462 58.1C161.627 58.4893 161.875 58.7987 162.206 59.028C162.536 59.252 162.947 59.364 163.438 59.364C163.928 59.364 164.352 59.252 164.71 59.028C165.072 58.804 165.31 58.4707 165.422 58.028H167.006C166.91 58.5933 166.683 59.0733 166.326 59.468C165.974 59.8627 165.547 60.1613 165.046 60.364C164.544 60.5613 164.019 60.66 163.47 60.66C162.686 60.66 161.995 60.492 161.398 60.156C160.8 59.8147 160.334 59.3293 159.998 58.7C159.667 58.0707 159.502 57.3213 159.502 56.452C159.502 55.5933 159.654 54.836 159.958 54.18C160.262 53.5187 160.702 53.0013 161.278 52.628C161.854 52.2547 162.547 52.068 163.358 52.068C164.158 52.068 164.83 52.2387 165.374 52.58C165.923 52.9213 166.339 53.4013 166.622 54.02C166.904 54.6333 167.046 55.3587 167.046 56.196V56.764H161.222ZM161.222 55.652H165.414C165.414 55.22 165.339 54.828 165.19 54.476C165.04 54.1187 164.811 53.8387 164.502 53.636C164.198 53.428 163.814 53.324 163.35 53.324C162.875 53.324 162.48 53.4387 162.166 53.668C161.851 53.8973 161.614 54.1907 161.454 54.548C161.299 54.9053 161.222 55.2733 161.222 55.652ZM171.942 60.66C171.366 60.66 170.825 60.5693 170.318 60.388C169.817 60.2067 169.395 59.9213 169.054 59.532C168.718 59.1427 168.507 58.644 168.422 58.036H169.95C170.019 58.3507 170.15 58.612 170.342 58.82C170.539 59.0227 170.774 59.1747 171.046 59.276C171.323 59.372 171.619 59.42 171.934 59.42C172.457 59.42 172.878 59.3267 173.198 59.14C173.523 58.948 173.686 58.6547 173.686 58.26C173.686 57.9773 173.598 57.7507 173.422 57.58C173.251 57.4093 172.979 57.284 172.606 57.204L170.958 56.812C170.275 56.652 169.729 56.3987 169.318 56.052C168.907 55.7 168.699 55.2093 168.694 54.58C168.694 54.0947 168.814 53.6627 169.054 53.284C169.299 52.9053 169.662 52.6093 170.142 52.396C170.622 52.1773 171.219 52.068 171.934 52.068C172.867 52.068 173.617 52.276 174.182 52.692C174.747 53.108 175.041 53.7107 175.062 54.5H173.582C173.529 54.1213 173.355 53.8253 173.062 53.612C172.774 53.3933 172.393 53.284 171.918 53.284C171.427 53.284 171.025 53.3827 170.71 53.58C170.395 53.772 170.238 54.068 170.238 54.468C170.238 54.74 170.353 54.956 170.582 55.116C170.811 55.2707 171.155 55.3987 171.614 55.5L173.182 55.892C173.587 55.9987 173.921 56.14 174.182 56.316C174.443 56.4867 174.649 56.676 174.798 56.884C174.947 57.092 175.051 57.308 175.11 57.532C175.174 57.756 175.206 57.9667 175.206 58.164C175.206 58.6867 175.073 59.1347 174.806 59.508C174.545 59.876 174.169 60.1613 173.678 60.364C173.193 60.5613 172.614 60.66 171.942 60.66ZM177.144 63.076V52.228H178.856L178.872 53.604C178.974 53.4227 179.104 53.244 179.264 53.068C179.424 52.8867 179.614 52.7213 179.832 52.572C180.056 52.4173 180.31 52.2947 180.592 52.204C180.88 52.1133 181.198 52.068 181.544 52.068C182.195 52.068 182.768 52.22 183.264 52.524C183.766 52.8227 184.155 53.284 184.432 53.908C184.715 54.5267 184.856 55.3133 184.856 56.268C184.856 57.228 184.715 58.0333 184.432 58.684C184.155 59.3347 183.758 59.828 183.24 60.164C182.723 60.4947 182.11 60.66 181.4 60.66C181.059 60.66 180.752 60.612 180.48 60.516C180.208 60.42 179.968 60.2947 179.76 60.14C179.552 59.98 179.374 59.8093 179.224 59.628C179.08 59.4413 178.96 59.2573 178.864 59.076V63.076H177.144ZM181.04 59.356C181.675 59.356 182.195 59.1107 182.6 58.62C183.011 58.124 183.216 57.3507 183.216 56.3C183.216 55.3987 183.027 54.6867 182.648 54.164C182.275 53.636 181.739 53.372 181.04 53.372C180.32 53.372 179.776 53.6467 179.408 54.196C179.04 54.74 178.856 55.4413 178.856 56.3C178.856 56.86 178.936 57.372 179.096 57.836C179.262 58.2947 179.507 58.6627 179.832 58.94C180.158 59.2173 180.56 59.356 181.04 59.356ZM190.051 60.66C189.278 60.66 188.601 60.4947 188.019 60.164C187.443 59.828 186.995 59.3427 186.675 58.708C186.361 58.0733 186.203 57.3053 186.203 56.404C186.203 55.5347 186.353 54.7747 186.651 54.124C186.955 53.4733 187.395 52.9693 187.971 52.612C188.547 52.2493 189.243 52.068 190.059 52.068C190.838 52.068 191.513 52.2387 192.083 52.58C192.654 52.916 193.097 53.4093 193.411 54.06C193.726 54.7053 193.883 55.4867 193.883 56.404C193.883 57.2413 193.734 57.98 193.435 58.62C193.142 59.26 192.71 59.7613 192.139 60.124C191.574 60.4813 190.878 60.66 190.051 60.66ZM190.059 59.34C190.529 59.34 190.921 59.2173 191.235 58.972C191.555 58.7213 191.795 58.372 191.955 57.924C192.115 57.4707 192.195 56.948 192.195 56.356C192.195 55.8067 192.123 55.308 191.979 54.86C191.841 54.4067 191.614 54.0467 191.299 53.78C190.985 53.5133 190.571 53.38 190.059 53.38C189.579 53.38 189.179 53.5027 188.859 53.748C188.539 53.988 188.297 54.332 188.131 54.78C187.971 55.2227 187.891 55.748 187.891 56.356C187.891 56.8947 187.963 57.3907 188.107 57.844C188.251 58.2973 188.483 58.66 188.803 58.932C189.123 59.204 189.542 59.34 190.059 59.34ZM195.723 60.5V52.228H197.395V53.42C197.528 53.196 197.707 52.9853 197.931 52.788C198.16 52.5907 198.44 52.4307 198.771 52.308C199.107 52.1853 199.493 52.124 199.931 52.124C200.448 52.124 200.925 52.228 201.363 52.436C201.805 52.6387 202.16 52.9587 202.427 53.396C202.693 53.828 202.826 54.388 202.826 55.076V60.5H201.115V55.26C201.115 54.668 200.955 54.228 200.635 53.94C200.32 53.652 199.912 53.508 199.411 53.508C199.075 53.508 198.755 53.564 198.451 53.676C198.147 53.788 197.901 53.9587 197.715 54.188C197.528 54.412 197.435 54.6947 197.435 55.036V60.5H195.723ZM207.926 60.66C207.35 60.66 206.809 60.5693 206.302 60.388C205.801 60.2067 205.38 59.9213 205.038 59.532C204.702 59.1427 204.492 58.644 204.406 58.036H205.934C206.004 58.3507 206.134 58.612 206.326 58.82C206.524 59.0227 206.758 59.1747 207.03 59.276C207.308 59.372 207.604 59.42 207.918 59.42C208.441 59.42 208.862 59.3267 209.182 59.14C209.508 58.948 209.67 58.6547 209.67 58.26C209.67 57.9773 209.582 57.7507 209.406 57.58C209.236 57.4093 208.964 57.284 208.59 57.204L206.942 56.812C206.26 56.652 205.713 56.3987 205.302 56.052C204.892 55.7 204.684 55.2093 204.678 54.58C204.678 54.0947 204.798 53.6627 205.038 53.284C205.284 52.9053 205.646 52.6093 206.126 52.396C206.606 52.1773 207.204 52.068 207.918 52.068C208.852 52.068 209.601 52.276 210.166 52.692C210.732 53.108 211.025 53.7107 211.046 54.5H209.566C209.513 54.1213 209.34 53.8253 209.046 53.612C208.758 53.3933 208.377 53.284 207.902 53.284C207.412 53.284 207.009 53.3827 206.694 53.58C206.38 53.772 206.222 54.068 206.222 54.468C206.222 54.74 206.337 54.956 206.566 55.116C206.796 55.2707 207.14 55.3987 207.598 55.5L209.166 55.892C209.572 55.9987 209.905 56.14 210.166 56.316C210.428 56.4867 210.633 56.676 210.782 56.884C210.932 57.092 211.036 57.308 211.094 57.532C211.158 57.756 211.19 57.9667 211.19 58.164C211.19 58.6867 211.057 59.1347 210.79 59.508C210.529 59.876 210.153 60.1613 209.662 60.364C209.177 60.5613 208.598 60.66 207.926 60.66ZM214.937 52.228V60.5H213.289V52.228H214.937ZM214.969 48.94V50.628H213.249V48.94H214.969ZM224.034 52.228L221.026 60.5H219.578L216.562 52.228H218.146L220.242 58.332H220.354L222.45 52.228H224.034ZM226.519 56.764C226.519 57.26 226.599 57.7053 226.759 58.1C226.924 58.4893 227.172 58.7987 227.503 59.028C227.833 59.252 228.244 59.364 228.735 59.364C229.225 59.364 229.649 59.252 230.007 59.028C230.369 58.804 230.607 58.4707 230.719 58.028H232.303C232.207 58.5933 231.98 59.0733 231.623 59.468C231.271 59.8627 230.844 60.1613 230.343 60.364C229.841 60.5613 229.316 60.66 228.766 60.66C227.983 60.66 227.292 60.492 226.695 60.156C226.097 59.8147 225.631 59.3293 225.295 58.7C224.964 58.0707 224.799 57.3213 224.799 56.452C224.799 55.5933 224.951 54.836 225.255 54.18C225.559 53.5187 225.999 53.0013 226.575 52.628C227.151 52.2547 227.844 52.068 228.655 52.068C229.455 52.068 230.127 52.2387 230.671 52.58C231.22 52.9213 231.636 53.4013 231.919 54.02C232.201 54.6333 232.343 55.3587 232.343 56.196V56.764H226.519ZM226.519 55.652H230.711C230.711 55.22 230.636 54.828 230.487 54.476C230.337 54.1187 230.108 53.8387 229.799 53.636C229.495 53.428 229.111 53.324 228.647 53.324C228.172 53.324 227.777 53.4387 227.463 53.668C227.148 53.8973 226.911 54.1907 226.751 54.548C226.596 54.9053 226.519 55.2733 226.519 55.652ZM174.433 67.932C174.475 67.932 174.601 67.9347 174.809 67.94C175.022 67.94 175.278 67.94 175.577 67.94C175.875 67.9347 176.179 67.9347 176.489 67.94C176.803 67.94 177.083 67.9427 177.329 67.948C178.742 67.9693 179.891 68.204 180.777 68.652C181.662 69.1 182.31 69.7453 182.721 70.588C183.137 71.4253 183.345 72.4467 183.345 73.652C183.345 74.9053 183.123 75.9693 182.681 76.844C182.238 77.7133 181.561 78.3747 180.649 78.828C179.742 79.276 178.593 79.5 177.201 79.5H174.433V67.932ZM176.177 69.372V78.06H177.217C178.091 78.06 178.851 77.9187 179.497 77.636C180.147 77.348 180.651 76.884 181.009 76.244C181.366 75.5987 181.545 74.7373 181.545 73.66C181.545 72.604 181.374 71.764 181.033 71.14C180.691 70.5107 180.201 70.06 179.561 69.788C178.926 69.5107 178.161 69.372 177.265 69.372H176.177ZM186.628 75.764C186.628 76.26 186.708 76.7053 186.868 77.1C187.033 77.4893 187.281 77.7987 187.612 78.028C187.943 78.252 188.353 78.364 188.844 78.364C189.335 78.364 189.759 78.252 190.116 78.028C190.479 77.804 190.716 77.4707 190.828 77.028H192.412C192.316 77.5933 192.089 78.0733 191.732 78.468C191.38 78.8627 190.953 79.1613 190.452 79.364C189.951 79.5613 189.425 79.66 188.876 79.66C188.092 79.66 187.401 79.492 186.804 79.156C186.207 78.8147 185.74 78.3293 185.404 77.7C185.073 77.0707 184.908 76.3213 184.908 75.452C184.908 74.5933 185.06 73.836 185.364 73.18C185.668 72.5187 186.108 72.0013 186.684 71.628C187.26 71.2547 187.953 71.068 188.764 71.068C189.564 71.068 190.236 71.2387 190.78 71.58C191.329 71.9213 191.745 72.4013 192.028 73.02C192.311 73.6333 192.452 74.3587 192.452 75.196V75.764H186.628ZM186.628 74.652H190.82C190.82 74.22 190.745 73.828 190.596 73.476C190.447 73.1187 190.217 72.8387 189.908 72.636C189.604 72.428 189.22 72.324 188.756 72.324C188.281 72.324 187.887 72.4387 187.572 72.668C187.257 72.8973 187.02 73.1907 186.86 73.548C186.705 73.9053 186.628 74.2733 186.628 74.652ZM197.348 79.66C196.772 79.66 196.231 79.5693 195.724 79.388C195.223 79.2067 194.802 78.9213 194.46 78.532C194.124 78.1427 193.914 77.644 193.828 77.036H195.356C195.426 77.3507 195.556 77.612 195.748 77.82C195.946 78.0227 196.18 78.1747 196.452 78.276C196.73 78.372 197.026 78.42 197.34 78.42C197.863 78.42 198.284 78.3267 198.604 78.14C198.93 77.948 199.092 77.6547 199.092 77.26C199.092 76.9773 199.004 76.7507 198.828 76.58C198.658 76.4093 198.386 76.284 198.012 76.204L196.364 75.812C195.682 75.652 195.135 75.3987 194.724 75.052C194.314 74.7 194.106 74.2093 194.1 73.58C194.1 73.0947 194.22 72.6627 194.46 72.284C194.706 71.9053 195.068 71.6093 195.548 71.396C196.028 71.1773 196.626 71.068 197.34 71.068C198.274 71.068 199.023 71.276 199.588 71.692C200.154 72.108 200.447 72.7107 200.468 73.5H198.988C198.935 73.1213 198.762 72.8253 198.468 72.612C198.18 72.3933 197.799 72.284 197.324 72.284C196.834 72.284 196.431 72.3827 196.116 72.58C195.802 72.772 195.644 73.068 195.644 73.468C195.644 73.74 195.759 73.956 195.988 74.116C196.218 74.2707 196.562 74.3987 197.02 74.5L198.588 74.892C198.994 74.9987 199.327 75.14 199.588 75.316C199.85 75.4867 200.055 75.676 200.204 75.884C200.354 76.092 200.458 76.308 200.516 76.532C200.58 76.756 200.612 76.9667 200.612 77.164C200.612 77.6867 200.479 78.1347 200.212 78.508C199.951 78.876 199.575 79.1613 199.084 79.364C198.599 79.5613 198.02 79.66 197.348 79.66ZM204.359 71.228V79.5H202.711V71.228H204.359ZM204.391 67.94V69.628H202.671V67.94H204.391ZM210.369 82.236C209.025 82.236 207.985 82.0467 207.249 81.668C206.513 81.2947 206.145 80.772 206.145 80.1C206.145 79.8067 206.214 79.5587 206.353 79.356C206.497 79.148 206.665 78.9773 206.857 78.844C207.054 78.7107 207.236 78.6067 207.401 78.532C207.566 78.452 207.673 78.396 207.721 78.364C207.63 78.3107 207.513 78.244 207.369 78.164C207.23 78.0787 207.105 77.9667 206.993 77.828C206.881 77.684 206.825 77.4973 206.825 77.268C206.825 77.0013 206.95 76.756 207.201 76.532C207.457 76.3027 207.838 76.1347 208.345 76.028C207.844 75.7827 207.454 75.452 207.177 75.036C206.905 74.62 206.769 74.1773 206.769 73.708C206.769 73.1693 206.921 72.7053 207.225 72.316C207.529 71.9213 207.956 71.62 208.505 71.412C209.06 71.204 209.71 71.1 210.457 71.1C211.001 71.1 211.457 71.1613 211.825 71.284C212.193 71.4067 212.532 71.5773 212.841 71.796C212.942 71.7587 213.086 71.7027 213.273 71.628C213.46 71.548 213.665 71.4627 213.889 71.372C214.118 71.2813 214.334 71.1933 214.537 71.108C214.745 71.0227 214.913 70.9533 215.041 70.9L215.033 72.388L213.593 72.652C213.668 72.812 213.726 72.988 213.769 73.18C213.817 73.372 213.841 73.548 213.841 73.708C213.841 74.188 213.71 74.6307 213.449 75.036C213.188 75.436 212.796 75.756 212.273 75.996C211.75 76.236 211.097 76.356 210.313 76.356C210.238 76.356 210.142 76.356 210.025 76.356C209.908 76.3507 209.809 76.3427 209.729 76.332C209.233 76.348 208.892 76.4067 208.705 76.508C208.518 76.604 208.425 76.7107 208.425 76.828C208.425 76.9773 208.545 77.0787 208.785 77.132C209.025 77.1853 209.42 77.2307 209.969 77.268C210.166 77.284 210.417 77.3 210.721 77.316C211.03 77.332 211.372 77.3533 211.745 77.38C212.652 77.4333 213.342 77.66 213.817 78.06C214.297 78.46 214.537 78.9907 214.537 79.652C214.537 80.4093 214.193 81.028 213.505 81.508C212.817 81.9933 211.772 82.236 210.369 82.236ZM210.665 81.188C211.396 81.188 211.945 81.0813 212.313 80.868C212.686 80.66 212.873 80.348 212.873 79.932C212.873 79.6227 212.753 79.3693 212.513 79.172C212.273 78.9747 211.916 78.86 211.441 78.828L209.233 78.684C209.014 78.6733 208.796 78.7213 208.577 78.828C208.364 78.9347 208.185 79.084 208.041 79.276C207.902 79.4627 207.833 79.6707 207.833 79.9C207.833 80.316 208.062 80.6333 208.521 80.852C208.985 81.076 209.7 81.188 210.665 81.188ZM210.361 75.308C210.916 75.308 211.361 75.1747 211.697 74.908C212.038 74.636 212.209 74.2467 212.209 73.74C212.209 73.2173 212.038 72.8147 211.697 72.532C211.361 72.244 210.916 72.1 210.361 72.1C209.801 72.1 209.348 72.244 209.001 72.532C208.66 72.82 208.489 73.2227 208.489 73.74C208.489 74.2307 208.652 74.6147 208.977 74.892C209.308 75.1693 209.769 75.308 210.361 75.308ZM216.754 79.5V71.228H218.426V72.42C218.559 72.196 218.738 71.9853 218.962 71.788C219.191 71.5907 219.471 71.4307 219.802 71.308C220.138 71.1853 220.524 71.124 220.962 71.124C221.479 71.124 221.956 71.228 222.394 71.436C222.836 71.6387 223.191 71.9587 223.458 72.396C223.724 72.828 223.858 73.388 223.858 74.076V79.5H222.146V74.26C222.146 73.668 221.986 73.228 221.666 72.94C221.351 72.652 220.943 72.508 220.442 72.508C220.106 72.508 219.786 72.564 219.482 72.676C219.178 72.788 218.932 72.9587 218.746 73.188C218.559 73.412 218.466 73.6947 218.466 74.036V79.5H216.754ZM228.958 79.66C228.382 79.66 227.84 79.5693 227.334 79.388C226.832 79.2067 226.411 78.9213 226.07 78.532C225.734 78.1427 225.523 77.644 225.438 77.036H226.966C227.035 77.3507 227.166 77.612 227.358 77.82C227.555 78.0227 227.79 78.1747 228.062 78.276C228.339 78.372 228.635 78.42 228.95 78.42C229.472 78.42 229.894 78.3267 230.214 78.14C230.539 77.948 230.702 77.6547 230.702 77.26C230.702 76.9773 230.614 76.7507 230.438 76.58C230.267 76.4093 229.995 76.284 229.622 76.204L227.974 75.812C227.291 75.652 226.744 75.3987 226.334 75.052C225.923 74.7 225.715 74.2093 225.71 73.58C225.71 73.0947 225.83 72.6627 226.07 72.284C226.315 71.9053 226.678 71.6093 227.158 71.396C227.638 71.1773 228.235 71.068 228.95 71.068C229.883 71.068 230.632 71.276 231.198 71.692C231.763 72.108 232.056 72.7107 232.078 73.5H230.598C230.544 73.1213 230.371 72.8253 230.078 72.612C229.79 72.3933 229.408 72.284 228.934 72.284C228.443 72.284 228.04 72.3827 227.726 72.58C227.411 72.772 227.254 73.068 227.254 73.468C227.254 73.74 227.368 73.956 227.598 74.116C227.827 74.2707 228.171 74.3987 228.63 74.5L230.198 74.892C230.603 74.9987 230.936 75.14 231.198 75.316C231.459 75.4867 231.664 75.676 231.814 75.884C231.963 76.092 232.067 76.308 232.126 76.532C232.19 76.756 232.222 76.9667 232.222 77.164C232.222 77.6867 232.088 78.1347 231.822 78.508C231.56 78.876 231.184 79.1613 230.694 79.364C230.208 79.5613 229.63 79.66 228.958 79.66Z" fill="#61307F"/>
</g>
<defs>
<clipPath id="clip0_331_14470">
<rect y="0.5" width="251" height="294" rx="4" fill="white"/>
</clipPath>
</defs>
</svg>
