<svg width="78" height="78" viewBox="0 0 78 78" fill="none" xmlns="http://www.w3.org/2000/svg">
<path d="M39.3721 23.623C39.5088 23.623 39.6523 23.6299 39.8027 23.6436C42.168 23.7939 43.3506 25.168 43.3506 27.7656C43.3506 30.5547 42.1611 33.6582 39.7822 37.0762C38.2236 39.3047 36.5762 41.1299 34.8398 42.5518C34.9492 43.4268 35.0859 44.2402 35.25 44.9922C36.2207 49.6406 37.9639 51.9648 40.4795 51.9648C41.4502 51.9648 42.373 51.6846 43.248 51.124C44.834 50.0986 46.0986 48.3213 47.042 45.792C46.3721 45.6963 45.7568 45.498 45.1963 45.1973C43.7471 44.4043 43.0225 43.1191 43.0225 41.3418C43.0225 40.4395 43.3506 39.6533 44.0068 38.9834C44.7451 38.2314 45.6133 37.8555 46.6113 37.8555C47.5957 37.8555 48.4434 38.1289 49.1543 38.6758C50.1113 39.4277 50.5898 40.4668 50.5898 41.793C50.5762 42.3398 50.5693 42.6201 50.5693 42.6338C50.8018 42.5244 51.0889 42.3672 51.4307 42.1621C51.9639 41.8203 52.4082 41.6494 52.7637 41.6494C52.9551 41.6494 53.1465 41.7041 53.3379 41.8135C53.7891 42.0596 54.0146 42.4492 54.0146 42.9824C54.0146 43.2969 53.8984 43.5977 53.666 43.8848C53.0371 44.6641 51.8135 45.2451 49.9951 45.6279C49.3799 47.8564 48.4092 49.8047 47.083 51.4727C45.21 53.8242 43.0908 55 40.7256 55C37.335 54.9863 34.8535 52.874 33.2812 48.6631C32.2012 45.7373 31.6611 42.2578 31.6611 38.2246C31.6611 37.9922 31.6748 37.6982 31.7021 37.3428C31.8936 34.4717 32.4336 31.833 33.3223 29.4268C34.7578 25.5576 36.7744 23.623 39.3721 23.623ZM34.9834 35.6201C34.833 36.7275 34.7373 37.7939 34.6963 38.8193C35.5576 37.958 36.4258 36.9189 37.3008 35.7021C39.4746 32.6807 40.5615 30.1172 40.5615 28.0117C40.5615 27.9023 40.5342 27.7725 40.4795 27.6221C40.2607 27.0205 39.9053 26.7197 39.4131 26.7197C38.3057 26.7334 37.376 27.4717 36.624 28.9346C35.9404 30.3018 35.3936 32.5303 34.9834 35.6201ZM46.8984 40.7061C46.7617 40.7061 46.6182 40.7334 46.4678 40.7881C46.0303 40.9521 45.8115 41.2529 45.8115 41.6904C45.8252 42.4697 46.4814 42.9209 47.7803 43.0439C47.7803 42.9482 47.7871 42.8047 47.8008 42.6133C47.8281 42.3262 47.8418 42.1211 47.8418 41.998C47.8418 41.9297 47.835 41.8545 47.8213 41.7725C47.7529 41.0615 47.4453 40.7061 46.8984 40.7061Z" fill="#F9EDFE"/>
<path d="M40.3926 67.9915C56.9361 67.9915 70.3926 55.0363 70.3926 39.0002C70.3926 22.9641 56.9361 10.0088 40.3926 10.0088C23.8491 10.0088 10.3926 22.9641 10.3926 39.0002C10.3926 55.0363 23.8491 67.9915 40.3926 67.9915Z" stroke="url(#paint0_linear_1124_4936)" stroke-width="1.5"/>
<mask id="path-4-outside-1_1124_4936" maskUnits="userSpaceOnUse" x="3.57227" y="8.37939" width="68" height="67" fill="black">
<rect fill="white" x="3.57227" y="8.37939" width="68" height="67"/>
<path d="M68.5121 58.8317C65.5186 62.7884 61.6654 66.0656 57.2225 68.4337C52.7795 70.8018 47.8541 72.2036 42.7912 72.541C37.7283 72.8783 32.6501 72.1431 27.9124 70.3868C23.1746 68.6304 18.8917 65.8954 15.3636 62.3733C11.8354 58.8511 9.14731 54.6269 7.48744 49.9964C5.82756 45.3659 5.23605 40.4411 5.75431 35.5667C6.27258 30.6923 7.88809 25.9863 10.4877 21.778C13.0874 17.5697 16.6083 13.9609 20.8041 11.2043L25.7461 18.2165C22.6088 20.2777 19.9761 22.9761 18.0323 26.1227C16.0885 29.2693 14.8805 32.7882 14.493 36.4329C14.1055 40.0775 14.5478 43.76 15.7889 47.2223C17.03 50.6846 19.04 53.8431 21.6781 56.4768C24.3162 59.1104 27.5186 61.1554 31.0611 62.4687C34.6037 63.7819 38.4007 64.3317 42.1864 64.0794C45.9721 63.8271 49.6549 62.779 52.977 61.0083C56.2991 59.2376 59.1802 56.7872 61.4185 53.8286L68.5121 58.8317Z"/>
</mask>
<path d="M68.5121 58.8317C65.5186 62.7884 61.6654 66.0656 57.2225 68.4337C52.7795 70.8018 47.8541 72.2036 42.7912 72.541C37.7283 72.8783 32.6501 72.1431 27.9124 70.3868C23.1746 68.6304 18.8917 65.8954 15.3636 62.3733C11.8354 58.8511 9.14731 54.6269 7.48744 49.9964C5.82756 45.3659 5.23605 40.4411 5.75431 35.5667C6.27258 30.6923 7.88809 25.9863 10.4877 21.778C13.0874 17.5697 16.6083 13.9609 20.8041 11.2043L25.7461 18.2165C22.6088 20.2777 19.9761 22.9761 18.0323 26.1227C16.0885 29.2693 14.8805 32.7882 14.493 36.4329C14.1055 40.0775 14.5478 43.76 15.7889 47.2223C17.03 50.6846 19.04 53.8431 21.6781 56.4768C24.3162 59.1104 27.5186 61.1554 31.0611 62.4687C34.6037 63.7819 38.4007 64.3317 42.1864 64.0794C45.9721 63.8271 49.6549 62.779 52.977 61.0083C56.2991 59.2376 59.1802 56.7872 61.4185 53.8286L68.5121 58.8317Z" stroke="url(#paint1_linear_1124_4936)" stroke-width="4" mask="url(#path-4-outside-1_1124_4936)"/>
<path d="M33.6703 13.7489C33.9929 13.6651 34.2819 13.6589 34.5374 13.7302C34.7948 13.7984 35.0042 13.9203 35.1656 14.0961C35.3295 14.2711 35.4407 14.4709 35.499 14.6955C35.558 14.9226 35.5621 15.1557 35.5112 15.3949C35.4623 15.6308 35.342 15.8466 35.1504 16.0424C34.9614 16.2375 34.6966 16.3793 34.3559 16.4678L33.2486 16.7555L33.1823 16.4999C33.2513 16.4792 33.3022 16.4578 33.335 16.4355C33.3671 16.4106 33.3874 16.3723 33.396 16.3204C33.4046 16.2686 33.3958 16.1924 33.3696 16.0917L32.9845 14.6089C32.9469 14.4644 32.9219 14.3469 32.9094 14.2565L32.6221 14.3435L32.5446 14.0454L33.6703 13.7489ZM33.6912 14.0203C33.6034 14.0431 33.5459 14.0815 33.5186 14.1354C33.4938 14.1887 33.4986 14.2811 33.5328 14.4128L33.9199 15.9033C33.9575 16.0478 33.9825 16.1653 33.995 16.2558C34.0072 16.2498 34.0314 16.2422 34.0675 16.2328L34.235 16.1934C34.2692 16.1873 34.3121 16.1775 34.3638 16.1641C34.5444 16.1172 34.683 16.0302 34.7795 15.9032C34.876 15.7762 34.9329 15.6291 34.9501 15.4621C34.9692 15.2918 34.9554 15.1164 34.9084 14.9357C34.8065 14.5434 34.6511 14.2738 34.4421 14.127C34.2331 13.9801 33.9828 13.9446 33.6912 14.0203Z" fill="#F2DAFD"/>
<path d="M40.2078 13.6083C40.199 13.4112 40.145 13.2775 40.0457 13.2072C39.949 13.1341 39.8342 13.1032 39.7012 13.1145L39.5576 13.1249C39.4937 13.1304 39.4435 13.142 39.407 13.1597C39.3703 13.1747 39.3424 13.2079 39.3233 13.2595C39.307 13.311 39.301 13.386 39.3054 13.4845L39.3322 14.0839L39.7997 14.063C39.795 14.0178 39.7845 13.9022 39.7682 13.7161L40.0759 13.7023L40.1193 14.6733L39.8556 14.6851C39.8508 14.5786 39.83 14.5008 39.7931 14.4517C39.7589 14.4025 39.7148 14.3725 39.6609 14.3615C39.6069 14.3479 39.536 14.3444 39.4483 14.351L39.3445 14.3597L39.3739 15.015C39.3803 15.1589 39.3802 15.2763 39.3736 15.3674L39.9091 15.3434C40.0449 15.3373 40.1575 15.2869 40.2466 15.1922C40.3384 15.0946 40.3798 14.946 40.3708 14.7462L40.6306 14.7346L40.6499 15.6146L38.54 15.709L38.5282 15.4452C38.6 15.4393 38.6543 15.4289 38.691 15.4139C38.7276 15.3963 38.7555 15.363 38.7746 15.3141C38.7938 15.2652 38.8011 15.1888 38.7964 15.0849L38.7279 13.5544C38.7213 13.4052 38.7212 13.2851 38.7278 13.1941L38.4287 13.2194L38.4149 12.9118L40.4129 12.8224L40.4716 13.5965L40.2078 13.6083Z" fill="#F2DAFD"/>
<path d="M45.202 13.1488C45.3151 13.1676 45.4306 13.2044 45.5485 13.2591C45.6669 13.3112 45.7619 13.3743 45.8334 13.4484L45.8373 13.4491L45.8484 13.2847L46.1562 13.3358L46.0034 14.2552L45.7429 14.2119C45.7446 13.9905 45.6956 13.8134 45.5961 13.6806C45.4991 13.5483 45.3599 13.467 45.1784 13.4368C45.06 13.4172 44.952 13.433 44.8542 13.4843C44.7595 13.5335 44.7041 13.6067 44.6879 13.704C44.6687 13.8198 44.7012 13.9252 44.7854 14.0203C44.8696 14.1154 45.0196 14.2295 45.2353 14.3627C45.4835 14.5121 45.6789 14.6703 45.8215 14.8372C45.9671 15.002 46.0209 15.1988 45.9828 15.4277C45.957 15.5829 45.892 15.714 45.7877 15.821C45.6834 15.928 45.5493 16.0031 45.3853 16.0461C45.2218 16.0865 45.0401 16.0901 44.8402 16.0568C44.7323 16.0389 44.6194 16.0026 44.5015 15.9478C44.3861 15.8935 44.2822 15.8276 44.1897 15.75L44.1857 15.7494L44.17 15.9171L43.8662 15.8665L44.0197 14.9432L44.2801 14.9865C44.2785 15.2079 44.3338 15.3874 44.4461 15.525C44.5588 15.66 44.7098 15.7432 44.8992 15.7747C45.036 15.7974 45.155 15.7807 45.2563 15.7246C45.358 15.6658 45.4173 15.5851 45.4344 15.4825C45.4484 15.3983 45.4302 15.321 45.3797 15.2504C45.3319 15.1803 45.274 15.122 45.206 15.0756C45.1407 15.0295 45.0344 14.9619 44.887 14.8725C44.6169 14.7086 44.4165 14.5402 44.2858 14.3671C44.1577 14.1944 44.1135 13.9883 44.1533 13.749C44.1735 13.628 44.2232 13.5159 44.3025 13.4129C44.3822 13.3072 44.4968 13.2276 44.6463 13.174C44.7984 13.1209 44.9836 13.1125 45.202 13.1488Z" fill="#F2DAFD"/>
<path d="M51.1026 15.1823C51.0346 15.1585 50.9804 15.1472 50.9398 15.1484C50.9001 15.1472 50.8616 15.165 50.8242 15.2019C50.7868 15.2388 50.7491 15.3056 50.7111 15.4024L50.1512 16.8284C50.0966 16.9674 50.0477 17.0772 50.0047 17.1577C50.087 17.1814 50.1816 17.2142 50.2883 17.2561L50.1757 17.5428L49.1072 17.1232L49.2037 16.8775C49.2716 16.9013 49.3255 16.9139 49.3651 16.9151C49.4057 16.9139 49.4447 16.8948 49.4821 16.8579C49.5195 16.821 49.5572 16.7542 49.5952 16.6574L50.1551 15.2314C50.2097 15.0924 50.2586 14.9826 50.3016 14.9021L50.018 14.8037L50.1306 14.517L51.1991 14.9366L51.1026 15.1823Z" fill="#F2DAFD"/>
<path d="M55.7839 17.3165C55.8796 17.3797 55.9779 17.4654 56.079 17.5737C56.1823 17.6834 56.2593 17.7918 56.3101 17.8988L56.3134 17.901L56.3926 17.752L56.6497 17.9218L56.1361 18.6995L55.9191 18.5562C56.0092 18.3569 56.0302 18.1726 55.9821 18.0035C55.9341 17.8343 55.8295 17.695 55.6686 17.5855C55.5217 17.4885 55.3677 17.4507 55.2066 17.4721C55.0469 17.4913 54.8937 17.5563 54.747 17.6672C54.6003 17.778 54.4719 17.9169 54.3616 18.0838C54.1662 18.3798 54.0694 18.6594 54.0713 18.9227C54.0732 19.186 54.1843 19.3904 54.4046 19.5358C54.4758 19.5829 54.5622 19.6287 54.6637 19.6734C54.7675 19.7195 54.8578 19.7472 54.9348 19.7565L55.1398 19.4461C55.2221 19.3215 55.2926 19.2243 55.3515 19.1545C55.2907 19.1207 55.2347 19.0869 55.1835 19.0531L55.0946 18.9992L55.2643 18.7422L56.1522 19.3285L56.0067 19.5488C55.9496 19.5143 55.901 19.4934 55.8611 19.4862C55.8211 19.4789 55.7794 19.4913 55.7359 19.5233C55.6939 19.5531 55.6457 19.6091 55.5913 19.6915L55.2386 20.2255L55.1585 20.1726C55.1073 20.1389 55.0525 20.1106 54.9939 20.0879C54.9376 20.0667 54.8625 20.0427 54.7684 20.0157C54.6307 19.9727 54.5177 19.9332 54.4295 19.8974C54.3414 19.8615 54.2472 19.8105 54.1471 19.7444C53.9112 19.5887 53.7421 19.4019 53.6398 19.1842C53.5398 18.9679 53.5029 18.7406 53.5292 18.5024C53.5592 18.2634 53.6484 18.0315 53.7969 17.8067C53.9364 17.5953 54.1128 17.4226 54.326 17.2885C54.5428 17.1537 54.7777 17.0835 55.0306 17.078C55.2858 17.0739 55.5369 17.1534 55.7839 17.3165Z" fill="#F2DAFD"/>
<path d="M61.3321 22.5705C61.2797 22.5211 61.2347 22.4887 61.1971 22.4733C61.1614 22.4561 61.119 22.4567 61.0698 22.4752C61.0206 22.4936 60.959 22.5394 60.8849 22.6123L59.2974 24.1757L59.0589 23.9334L59.3264 21.8735C59.3404 21.7661 59.3602 21.6437 59.3858 21.5062L59.3829 21.5034L58.5051 22.3792C58.3987 22.484 58.3094 22.5644 58.2373 22.6204C58.3029 22.6756 58.3759 22.744 58.4564 22.8257L58.2369 23.0418L57.597 22.392L57.7851 22.2068C57.8375 22.2562 57.8816 22.2895 57.9173 22.3068C57.9549 22.3222 57.9983 22.3206 58.0474 22.3021C58.0966 22.2836 58.1582 22.2379 58.2323 22.1649L59.3183 21.0843C59.4456 20.9589 59.5348 20.8785 59.586 20.8431L59.3641 20.6349L59.5836 20.4188L60.0242 20.8662L59.783 22.8217C59.7571 23.0044 59.7323 23.1598 59.7087 23.2878L59.7115 23.2907L60.615 22.401C60.7385 22.2793 60.8268 22.198 60.8799 22.1569L60.6608 21.9516L60.8803 21.7355L61.5202 22.3853L61.3321 22.5705Z" fill="#F2DAFD"/>
<path d="M66.3655 33.8683C66.3483 33.7984 66.3282 33.7467 66.3049 33.7134C66.2843 33.6795 66.2484 33.657 66.197 33.6458C66.1457 33.6346 66.0691 33.6395 65.9673 33.6606L64.4669 33.9703C64.3207 34.0005 64.2021 34.0195 64.1111 34.0274C64.1362 34.1093 64.1603 34.2065 64.1835 34.3188L63.8819 34.381L63.6498 33.2567L63.9083 33.2034C63.9255 33.2733 63.9444 33.3253 63.965 33.3591C63.9882 33.3925 64.0255 33.4147 64.0768 33.4259C64.1281 33.4371 64.2047 33.4322 64.3066 33.4111L64.9412 33.2801L64.7071 32.2053L64.1273 32.325C63.981 32.3552 63.8624 32.3742 63.7715 32.3821C63.7966 32.464 63.8207 32.5612 63.8439 32.6735L63.5422 32.7357L63.3102 31.6114L63.5687 31.5581C63.5859 31.628 63.6048 31.68 63.6254 31.7138C63.6486 31.7471 63.6858 31.7694 63.7372 31.7806C63.7885 31.7918 63.8651 31.7869 63.9669 31.7658L65.4673 31.4561C65.6135 31.4259 65.7321 31.4069 65.8231 31.399L65.7507 31.1076L66.0523 31.0454L66.2844 32.1697L66.0259 32.223C66.0087 32.1531 65.9885 32.1014 65.9653 32.0681C65.9447 32.0342 65.9087 32.0117 65.8574 32.0005C65.8061 31.9893 65.7295 31.9942 65.6276 32.0152L65.0165 32.1414L65.2389 33.2187L65.8069 33.1014C65.9819 33.0653 66.1005 33.0463 66.1627 33.0443L66.0903 32.7529L66.392 32.6907L66.6241 33.815L66.3655 33.8683Z" fill="#F2DAFD"/>
<path d="M66.6283 39.533C66.6261 39.4609 66.6171 39.4062 66.6013 39.3688C66.5882 39.3314 66.5577 39.3019 66.5098 39.2803C66.4619 39.2586 66.386 39.2475 66.282 39.2469L65.282 39.2411C64.8447 39.2385 64.5266 39.1353 64.3278 38.9314C64.1317 38.7303 64.0346 38.4577 64.0366 38.1137C64.0391 37.6951 64.1515 37.3984 64.3739 37.2237C64.5989 37.0517 64.902 36.9668 65.2834 36.969L66.2513 36.9747C66.4007 36.9756 66.5206 36.9816 66.6112 36.9928L66.601 36.6928L66.909 36.6946L66.9023 37.8425L66.6383 37.841C66.636 37.7716 66.627 37.7169 66.6112 37.6768C66.5981 37.6394 66.5676 37.6099 66.5197 37.5883C66.4719 37.5667 66.3959 37.5556 66.2919 37.555L65.192 37.5485C64.6266 37.5452 64.3427 37.7675 64.34 38.2155C64.3388 38.4262 64.4098 38.5893 64.5532 38.7048C64.6965 38.8229 64.9095 38.8829 65.1921 38.8845L66.2401 38.8907C66.4188 38.8917 66.5387 38.8978 66.6 38.9088L66.5898 38.6047L66.8978 38.6065L66.8923 39.5345L66.6283 39.533Z" fill="#F2DAFD"/>
<path d="M66.2809 43.7711C66.2151 44.0843 66.1056 44.3169 65.9522 44.469C65.7988 44.6211 65.6114 44.6729 65.39 44.6245C65.2623 44.5965 65.1544 44.5224 65.066 44.4021C64.9797 44.285 64.9321 44.1285 64.923 43.9327L64.9191 43.9319C64.8253 44.1734 64.7007 44.344 64.5451 44.4438C64.3895 44.5435 64.2258 44.5746 64.0538 44.537C63.8064 44.4828 63.6343 44.3524 63.5375 44.1456C63.4402 43.9415 63.4224 43.6987 63.4839 43.4173L63.7744 42.0887L64.0324 42.1451C64.0196 42.2161 64.0157 42.2712 64.0208 42.3105C64.0284 42.3504 64.0534 42.3859 64.0957 42.417C64.1381 42.4481 64.21 42.4747 64.3116 42.4969L65.8083 42.8243C65.9542 42.8562 66.0702 42.887 66.1565 42.9168L66.2089 42.6212L66.5098 42.687L66.2809 43.7711ZM66.0074 43.7113C66.0193 43.6566 66.0225 43.6108 66.0169 43.5741C66.0107 43.54 65.9851 43.5071 65.9402 43.4755C65.8973 43.447 65.8276 43.4222 65.7312 43.4011L65.1256 43.2687L65.085 43.4727C65.054 43.627 65.078 43.7482 65.157 43.8365C65.238 43.9279 65.3566 43.9907 65.5129 44.0249C65.6536 44.0556 65.7651 44.0391 65.8473 43.9752C65.9295 43.9113 65.9829 43.8233 66.0074 43.7113ZM64.7828 43.5253C64.8141 43.3821 64.8359 43.2763 64.8481 43.208L64.2112 43.0687C64.0705 43.0379 63.957 43.0076 63.8707 42.9778C63.8331 43.1498 63.8068 43.2764 63.7917 43.3577C63.7659 43.5131 63.7891 43.6383 63.8611 43.7332C63.9358 43.8287 64.0486 43.893 64.1997 43.926C64.3665 43.9625 64.4968 43.9405 64.5909 43.8601C64.6875 43.7802 64.7515 43.6686 64.7828 43.5253Z" fill="#F2DAFD"/>
<defs>
<linearGradient id="paint0_linear_1124_4936" x1="23.9202" y1="4.16015" x2="70.7202" y2="69.6801" gradientUnits="userSpaceOnUse">
<stop stop-color="#EABD1E"/>
<stop offset="1" stop-color="#6C14A3"/>
</linearGradient>
<linearGradient id="paint1_linear_1124_4936" x1="11.4405" y1="18.2" x2="59.4595" y2="69.6886" gradientUnits="userSpaceOnUse">
<stop stop-color="#EABD1E"/>
<stop offset="0.445" stop-color="#7F43A4"/>
</linearGradient>
</defs>
</svg>
