<svg width="78" height="78" viewBox="0 0 78 78" fill="none" xmlns="http://www.w3.org/2000/svg">
<path d="M39.3721 23.623C39.5088 23.623 39.6523 23.6299 39.8027 23.6436C42.168 23.7939 43.3506 25.168 43.3506 27.7656C43.3506 30.5547 42.1611 33.6582 39.7822 37.0762C38.2236 39.3047 36.5762 41.1299 34.8398 42.5518C34.9492 43.4268 35.0859 44.2402 35.25 44.9922C36.2207 49.6406 37.9639 51.9648 40.4795 51.9648C41.4502 51.9648 42.373 51.6846 43.248 51.124C44.834 50.0986 46.0986 48.3213 47.042 45.792C46.3721 45.6963 45.7568 45.498 45.1963 45.1973C43.7471 44.4043 43.0225 43.1191 43.0225 41.3418C43.0225 40.4395 43.3506 39.6533 44.0068 38.9834C44.7451 38.2314 45.6133 37.8555 46.6113 37.8555C47.5957 37.8555 48.4434 38.1289 49.1543 38.6758C50.1113 39.4277 50.5898 40.4668 50.5898 41.793C50.5762 42.3398 50.5693 42.6201 50.5693 42.6338C50.8018 42.5244 51.0889 42.3672 51.4307 42.1621C51.9639 41.8203 52.4082 41.6494 52.7637 41.6494C52.9551 41.6494 53.1465 41.7041 53.3379 41.8135C53.7891 42.0596 54.0146 42.4492 54.0146 42.9824C54.0146 43.2969 53.8984 43.5977 53.666 43.8848C53.0371 44.6641 51.8135 45.2451 49.9951 45.6279C49.3799 47.8564 48.4092 49.8047 47.083 51.4727C45.21 53.8242 43.0908 55 40.7256 55C37.335 54.9863 34.8535 52.874 33.2812 48.6631C32.2012 45.7373 31.6611 42.2578 31.6611 38.2246C31.6611 37.9922 31.6748 37.6982 31.7021 37.3428C31.8936 34.4717 32.4336 31.833 33.3223 29.4268C34.7578 25.5576 36.7744 23.623 39.3721 23.623ZM34.9834 35.6201C34.833 36.7275 34.7373 37.7939 34.6963 38.8193C35.5576 37.958 36.4258 36.9189 37.3008 35.7021C39.4746 32.6807 40.5615 30.1172 40.5615 28.0117C40.5615 27.9023 40.5342 27.7725 40.4795 27.6221C40.2607 27.0205 39.9053 26.7197 39.4131 26.7197C38.3057 26.7334 37.376 27.4717 36.624 28.9346C35.9404 30.3018 35.3936 32.5303 34.9834 35.6201ZM46.8984 40.7061C46.7617 40.7061 46.6182 40.7334 46.4678 40.7881C46.0303 40.9521 45.8115 41.2529 45.8115 41.6904C45.8252 42.4697 46.4814 42.9209 47.7803 43.0439C47.7803 42.9482 47.7871 42.8047 47.8008 42.6133C47.8281 42.3262 47.8418 42.1211 47.8418 41.998C47.8418 41.9297 47.835 41.8545 47.8213 41.7725C47.7529 41.0615 47.4453 40.7061 46.8984 40.7061Z" fill="#9C5AC3"/>
<path d="M40.3926 67.9914C56.9361 67.9914 70.3926 55.0361 70.3926 39C70.3926 22.964 56.9361 10.0087 40.3926 10.0087C23.8491 10.0087 10.3926 22.964 10.3926 39C10.3926 55.0361 23.8491 67.9914 40.3926 67.9914Z" stroke="url(#paint0_linear_327_14145)" stroke-width="1.5"/>
<mask id="path-4-outside-1_327_14145" maskUnits="userSpaceOnUse" x="3.57227" y="8.37927" width="68" height="67" fill="black">
<rect fill="white" x="3.57227" y="8.37927" width="68" height="67"/>
<path d="M68.5121 58.8316C65.5186 62.7883 61.6654 66.0655 57.2225 68.4336C52.7795 70.8017 47.8541 72.2035 42.7912 72.5409C37.7283 72.8782 32.6501 72.143 27.9124 70.3867C23.1746 68.6303 18.8917 65.8953 15.3636 62.3731C11.8354 58.851 9.14731 54.6268 7.48744 49.9963C5.82756 45.3658 5.23605 40.4409 5.75431 35.5666C6.27258 30.6922 7.88809 25.9861 10.4877 21.7778C13.0874 17.5695 16.6083 13.9608 20.8041 11.2042L25.7461 18.2164C22.6088 20.2776 19.9761 22.9759 18.0323 26.1226C16.0885 29.2692 14.8805 32.7881 14.493 36.4327C14.1055 40.0774 14.5478 43.7598 15.7889 47.2222C17.03 50.6845 19.04 53.843 21.6781 56.4766C24.3162 59.1103 27.5186 61.1553 31.0611 62.4685C34.6037 63.7818 38.4007 64.3315 42.1864 64.0793C45.9721 63.827 49.6549 62.7789 52.977 61.0082C56.2991 59.2375 59.1802 56.7871 61.4185 53.8285L68.5121 58.8316Z"/>
</mask>
<path d="M68.5121 58.8316C65.5186 62.7883 61.6654 66.0655 57.2225 68.4336C52.7795 70.8017 47.8541 72.2035 42.7912 72.5409C37.7283 72.8782 32.6501 72.143 27.9124 70.3867C23.1746 68.6303 18.8917 65.8953 15.3636 62.3731C11.8354 58.851 9.14731 54.6268 7.48744 49.9963C5.82756 45.3658 5.23605 40.4409 5.75431 35.5666C6.27258 30.6922 7.88809 25.9861 10.4877 21.7778C13.0874 17.5695 16.6083 13.9608 20.8041 11.2042L25.7461 18.2164C22.6088 20.2776 19.9761 22.9759 18.0323 26.1226C16.0885 29.2692 14.8805 32.7881 14.493 36.4327C14.1055 40.0774 14.5478 43.7598 15.7889 47.2222C17.03 50.6845 19.04 53.843 21.6781 56.4766C24.3162 59.1103 27.5186 61.1553 31.0611 62.4685C34.6037 63.7818 38.4007 64.3315 42.1864 64.0793C45.9721 63.827 49.6549 62.7789 52.977 61.0082C56.2991 59.2375 59.1802 56.7871 61.4185 53.8285L68.5121 58.8316Z" stroke="url(#paint1_linear_327_14145)" stroke-width="4" mask="url(#path-4-outside-1_327_14145)"/>
<path d="M33.6703 13.749C33.9929 13.6652 34.2819 13.659 34.5374 13.7304C34.7948 13.7985 35.0042 13.9204 35.1656 14.0962C35.3295 14.2713 35.4407 14.4711 35.499 14.6956C35.558 14.9227 35.5621 15.1559 35.5112 15.395C35.4623 15.6309 35.342 15.8467 35.1504 16.0425C34.9614 16.2376 34.6966 16.3794 34.3559 16.4679L33.2486 16.7556L33.1823 16.5001C33.2513 16.4794 33.3022 16.4579 33.335 16.4356C33.3671 16.4107 33.3874 16.3724 33.396 16.3206C33.4046 16.2687 33.3958 16.1925 33.3696 16.0918L32.9845 14.609C32.9469 14.4645 32.9219 14.347 32.9094 14.2566L32.6221 14.3436L32.5446 14.0455L33.6703 13.749ZM33.6912 14.0204C33.6034 14.0432 33.5459 14.0816 33.5186 14.1355C33.4938 14.1888 33.4986 14.2813 33.5328 14.4129L33.9199 15.9034C33.9575 16.048 33.9825 16.1654 33.995 16.2559C34.0072 16.2499 34.0314 16.2423 34.0675 16.2329L34.235 16.1935C34.2692 16.1874 34.3121 16.1776 34.3638 16.1642C34.5444 16.1173 34.683 16.0303 34.7795 15.9033C34.876 15.7763 34.9329 15.6293 34.9501 15.4622C34.9692 15.292 34.9554 15.1165 34.9084 14.9358C34.8065 14.5435 34.6511 14.2739 34.4421 14.1271C34.2331 13.9802 33.9828 13.9447 33.6912 14.0204Z" fill="#5C4400"/>
<path d="M40.2078 13.6082C40.199 13.4111 40.145 13.2773 40.0457 13.207C39.949 13.134 39.8342 13.1031 39.7012 13.1143L39.5576 13.1248C39.4937 13.1303 39.4435 13.1419 39.407 13.1595C39.3703 13.1745 39.3424 13.2078 39.3233 13.2594C39.307 13.3108 39.301 13.3858 39.3054 13.4844L39.3322 14.0838L39.7997 14.0629C39.795 14.0177 39.7845 13.9021 39.7682 13.716L40.0759 13.7022L40.1193 14.6732L39.8556 14.685C39.8508 14.5785 39.83 14.5006 39.7931 14.4516C39.7589 14.4024 39.7148 14.3723 39.6609 14.3614C39.6069 14.3478 39.536 14.3443 39.4483 14.3509L39.3445 14.3595L39.3739 15.0149C39.3803 15.1587 39.3802 15.2762 39.3736 15.3672L39.9091 15.3433C40.0449 15.3372 40.1575 15.2868 40.2466 15.192C40.3384 15.0945 40.3798 14.9458 40.3708 14.746L40.6306 14.7344L40.6499 15.6144L38.54 15.7088L38.5282 15.4451C38.6 15.4392 38.6543 15.4288 38.691 15.4138C38.7276 15.3961 38.7555 15.3629 38.7746 15.314C38.7938 15.2651 38.8011 15.1887 38.7964 15.0848L38.7279 13.5543C38.7213 13.4051 38.7212 13.285 38.7278 13.1939L38.4287 13.2193L38.4149 12.9116L40.4129 12.8222L40.4716 13.5964L40.2078 13.6082Z" fill="#5C4400"/>
<path d="M45.202 13.1486C45.3151 13.1674 45.4306 13.2041 45.5485 13.2589C45.6669 13.311 45.7619 13.3741 45.8334 13.4482L45.8373 13.4488L45.8484 13.2844L46.1562 13.3356L46.0034 14.255L45.7429 14.2117C45.7446 13.9903 45.6956 13.8132 45.5961 13.6804C45.4991 13.548 45.3599 13.4668 45.1784 13.4366C45.06 13.4169 44.952 13.4327 44.8542 13.4841C44.7595 13.5332 44.7041 13.6064 44.6879 13.7038C44.6687 13.8195 44.7012 13.9249 44.7854 14.02C44.8696 14.1151 45.0196 14.2293 45.2353 14.3625C45.4835 14.5119 45.6789 14.67 45.8215 14.837C45.9671 15.0018 46.0209 15.1986 45.9828 15.4275C45.957 15.5827 45.892 15.7138 45.7877 15.8208C45.6834 15.9278 45.5493 16.0028 45.3853 16.0458C45.2218 16.0862 45.0401 16.0898 44.8402 16.0566C44.7323 16.0387 44.6194 16.0023 44.5015 15.9476C44.3861 15.8933 44.2822 15.8273 44.1897 15.7498L44.1857 15.7491L44.17 15.9168L43.8662 15.8663L44.0197 14.943L44.2801 14.9863C44.2785 15.2077 44.3338 15.3872 44.4461 15.5248C44.5588 15.6597 44.7098 15.743 44.8992 15.7745C45.036 15.7972 45.155 15.7805 45.2563 15.7243C45.358 15.6655 45.4173 15.5849 45.4344 15.4823C45.4484 15.3981 45.4302 15.3207 45.3797 15.2502C45.3319 15.18 45.274 15.1218 45.206 15.0753C45.1407 15.0293 45.0344 14.9616 44.887 14.8722C44.6169 14.7084 44.4165 14.5399 44.2858 14.3668C44.1577 14.1941 44.1135 13.9881 44.1533 13.7487C44.1735 13.6277 44.2232 13.5157 44.3025 13.4126C44.3822 13.3069 44.4968 13.2273 44.6463 13.1738C44.7984 13.1207 44.9836 13.1123 45.202 13.1486Z" fill="#5C4400"/>
<path d="M51.1026 15.1822C51.0346 15.1583 50.9804 15.147 50.9398 15.1483C50.9001 15.1471 50.8616 15.1649 50.8242 15.2018C50.7868 15.2386 50.7491 15.3055 50.7111 15.4023L50.1512 16.8283C50.0966 16.9673 50.0477 17.077 50.0047 17.1575C50.087 17.1813 50.1816 17.2141 50.2883 17.256L50.1757 17.5427L49.1072 17.1231L49.2037 16.8774C49.2716 16.9012 49.3255 16.9138 49.3651 16.915C49.4057 16.9137 49.4447 16.8947 49.4821 16.8578C49.5195 16.8209 49.5572 16.7541 49.5952 16.6573L50.1551 15.2313C50.2097 15.0923 50.2586 14.9825 50.3016 14.902L50.018 14.8035L50.1306 14.5168L51.1991 14.9364L51.1026 15.1822Z" fill="#5C4400"/>
<path d="M55.7848 17.3166C55.8805 17.3798 55.9789 17.4655 56.08 17.5738C56.1833 17.6836 56.2603 17.7919 56.311 17.899L56.3144 17.9012L56.3936 17.7522L56.6506 17.9219L56.1371 18.6996L55.9201 18.5563C56.0102 18.357 56.0312 18.1727 55.9831 18.0036C55.935 17.8344 55.8305 17.6951 55.6695 17.5856C55.5227 17.4886 55.3687 17.4508 55.2075 17.4723C55.0479 17.4914 54.8947 17.5565 54.748 17.6673C54.6013 17.7782 54.4728 17.917 54.3626 18.0839C54.1672 18.3799 54.0704 18.6595 54.0723 18.9228C54.0742 19.1861 54.1853 19.3905 54.4056 19.536C54.4768 19.583 54.5632 19.6288 54.6647 19.6735C54.7685 19.7196 54.8588 19.7473 54.9358 19.7566L55.1408 19.4462C55.2231 19.3216 55.2936 19.2244 55.3525 19.1546C55.2917 19.1208 55.2357 19.0871 55.1845 19.0533L55.0955 18.9993L55.2653 18.7423L56.1531 19.3286L56.0077 19.5489C55.9506 19.5144 55.902 19.4935 55.8621 19.4863C55.8221 19.4791 55.7804 19.4915 55.7369 19.5234C55.6948 19.5532 55.6466 19.6093 55.5923 19.6916L55.2396 20.2257L55.1595 20.1728C55.1083 20.139 55.0534 20.1107 54.9949 20.0881C54.9386 20.0669 54.8634 20.0428 54.7694 20.0158C54.6316 19.9728 54.5187 19.9334 54.4305 19.8975C54.3423 19.8617 54.2482 19.8107 54.148 19.7445C53.9122 19.5888 53.7431 19.402 53.6408 19.1843C53.5407 18.968 53.5039 18.7408 53.5302 18.5025C53.5602 18.2635 53.6494 18.0316 53.7978 17.8068C53.9374 17.5954 54.1138 17.4227 54.327 17.2886C54.5438 17.1538 54.7787 17.0836 55.0316 17.0781C55.2868 17.074 55.5378 17.1535 55.7848 17.3166Z" fill="#5C4400"/>
<path d="M61.3311 22.5704C61.2787 22.521 61.2337 22.4886 61.1961 22.4732C61.1604 22.4559 61.118 22.4566 61.0688 22.475C61.0196 22.4935 60.958 22.5392 60.8839 22.6122L59.2965 24.1756L59.0579 23.9333L59.3254 21.8734C59.3394 21.766 59.3592 21.6436 59.3848 21.5061L59.382 21.5033L58.5041 22.379C58.3977 22.4838 58.3084 22.5642 58.2364 22.6203C58.3019 22.6754 58.375 22.7439 58.4554 22.8256L58.236 23.0417L57.596 22.3919L57.7841 22.2067C57.8366 22.2561 57.8806 22.2894 57.9163 22.3067C57.9539 22.322 57.9973 22.3205 58.0465 22.302C58.0956 22.2835 58.1573 22.2378 58.2314 22.1648L59.3173 21.0842C59.4446 20.9588 59.5338 20.8784 59.585 20.843L59.3632 20.6348L59.5826 20.4187L60.0233 20.8661L59.782 22.8216C59.7561 23.0043 59.7313 23.1597 59.7077 23.2877L59.7105 23.2906L60.614 22.4008C60.7375 22.2792 60.8258 22.1979 60.8789 22.1568L60.6599 21.9515L60.8793 21.7353L61.5192 22.3851L61.3311 22.5704Z" fill="#5C4400"/>
<path d="M66.3655 33.8683C66.3483 33.7984 66.3282 33.7467 66.3049 33.7134C66.2843 33.6795 66.2484 33.657 66.197 33.6458C66.1457 33.6346 66.0691 33.6395 65.9673 33.6606L64.4669 33.9703C64.3207 34.0005 64.2021 34.0195 64.1111 34.0274C64.1362 34.1093 64.1603 34.2065 64.1835 34.3188L63.8819 34.381L63.6498 33.2567L63.9083 33.2034C63.9255 33.2733 63.9444 33.3253 63.965 33.3591C63.9882 33.3925 64.0255 33.4147 64.0768 33.4259C64.1281 33.4371 64.2047 33.4322 64.3066 33.4111L64.9412 33.2801L64.7071 32.2053L64.1273 32.325C63.981 32.3552 63.8624 32.3742 63.7715 32.3821C63.7966 32.464 63.8207 32.5612 63.8439 32.6735L63.5422 32.7357L63.3102 31.6114L63.5687 31.5581C63.5859 31.628 63.6048 31.68 63.6254 31.7138C63.6486 31.7471 63.6858 31.7694 63.7372 31.7806C63.7885 31.7918 63.8651 31.7869 63.9669 31.7658L65.4673 31.4561C65.6135 31.4259 65.7321 31.4069 65.8231 31.399L65.7507 31.1076L66.0523 31.0454L66.2844 32.1697L66.0259 32.223C66.0087 32.1531 65.9885 32.1014 65.9653 32.0681C65.9447 32.0342 65.9087 32.0117 65.8574 32.0005C65.8061 31.9893 65.7295 31.9942 65.6276 32.0152L65.0165 32.1414L65.2389 33.2187L65.8069 33.1014C65.9819 33.0653 66.1005 33.0463 66.1627 33.0443L66.0903 32.7529L66.392 32.6907L66.6241 33.815L66.3655 33.8683Z" fill="#5C4400"/>
<path d="M66.6283 39.533C66.6261 39.4609 66.6171 39.4062 66.6013 39.3688C66.5882 39.3314 66.5577 39.3019 66.5098 39.2803C66.4619 39.2586 66.386 39.2475 66.282 39.2469L65.282 39.2411C64.8447 39.2385 64.5266 39.1353 64.3278 38.9314C64.1317 38.7303 64.0346 38.4577 64.0366 38.1137C64.0391 37.6951 64.1515 37.3984 64.3739 37.2237C64.5989 37.0517 64.902 36.9668 65.2834 36.969L66.2513 36.9747C66.4007 36.9756 66.5206 36.9816 66.6112 36.9928L66.601 36.6928L66.909 36.6946L66.9023 37.8425L66.6383 37.841C66.636 37.7716 66.627 37.7169 66.6112 37.6768C66.5981 37.6394 66.5676 37.6099 66.5197 37.5883C66.4719 37.5667 66.3959 37.5556 66.2919 37.555L65.192 37.5485C64.6266 37.5452 64.3427 37.7675 64.34 38.2155C64.3388 38.4262 64.4098 38.5893 64.5532 38.7048C64.6965 38.8229 64.9095 38.8829 65.1921 38.8845L66.2401 38.8907C66.4188 38.8917 66.5387 38.8978 66.6 38.9088L66.5898 38.6047L66.8978 38.6065L66.8923 39.5345L66.6283 39.533Z" fill="#5C4400"/>
<path d="M66.2819 43.771C66.2161 44.0841 66.1065 44.3168 65.9532 44.4689C65.7998 44.6209 65.6124 44.6728 65.391 44.6243C65.2633 44.5964 65.1553 44.5223 65.067 44.402C64.9807 44.2848 64.933 44.1284 64.924 43.9326L64.9201 43.9317C64.8263 44.1733 64.7016 44.3439 64.5461 44.4436C64.3905 44.5434 64.2268 44.5744 64.0548 44.5368C63.8073 44.4827 63.6352 44.3523 63.5385 44.1455C63.4412 43.9413 63.4233 43.6986 63.4849 43.4172L63.7754 42.0886L64.0333 42.145C64.0206 42.2159 64.0167 42.271 64.0217 42.3104C64.0294 42.3503 64.0544 42.3857 64.0967 42.4168C64.1391 42.4479 64.211 42.4746 64.3126 42.4968L65.8092 42.8241C65.9551 42.856 66.0712 42.8869 66.1575 42.9167L66.2099 42.621L66.5108 42.6868L66.2819 43.771ZM66.0083 43.7111C66.0203 43.6564 66.0235 43.6107 66.0178 43.574C66.0117 43.5399 65.9861 43.507 65.9412 43.4753C65.8983 43.4469 65.8286 43.4221 65.7322 43.401L65.1265 43.2685L65.086 43.4726C65.055 43.6269 65.079 43.7481 65.1579 43.8364C65.239 43.9278 65.3576 43.9906 65.5139 44.0248C65.6546 44.0555 65.766 44.0389 65.8483 43.975C65.9305 43.9111 65.9838 43.8232 66.0083 43.7111ZM64.7838 43.5252C64.8151 43.3819 64.8369 43.2762 64.8491 43.2079L64.2121 43.0686C64.0715 43.0378 63.958 43.0075 63.8717 42.9777C63.8341 43.1497 63.8078 43.2763 63.7927 43.3576C63.7669 43.513 63.79 43.6382 63.8621 43.7331C63.9367 43.8286 64.0496 43.8929 64.2007 43.9259C64.3674 43.9624 64.4978 43.9404 64.5918 43.8599C64.6885 43.7801 64.7524 43.6685 64.7838 43.5252Z" fill="#5C4400"/>
<defs>
<linearGradient id="paint0_linear_327_14145" x1="23.9202" y1="4.16002" x2="70.7202" y2="69.68" gradientUnits="userSpaceOnUse">
<stop offset="0.31" stop-color="#6C14A3"/>
<stop offset="1" stop-color="#EABD1E"/>
</linearGradient>
<linearGradient id="paint1_linear_327_14145" x1="11.4405" y1="18.1999" x2="59.4595" y2="69.6885" gradientUnits="userSpaceOnUse">
<stop offset="0.185" stop-color="#7F43A4"/>
<stop offset="1" stop-color="#EABD1E"/>
</linearGradient>
</defs>
</svg>
