<svg width="80" height="81" viewBox="0 0 80 81" fill="none" xmlns="http://www.w3.org/2000/svg">
<g clip-path="url(#clip0_355_225)">
<path d="M80 40.1475C80 62.2389 62.0914 80.1475 40 80.1475C17.9086 80.1475 0 62.2389 0 40.1475C0 18.0561 17.9086 0.147461 40 0.147461C62.0914 0.147461 80 18.0561 80 40.1475Z" fill="#B38397"/>
<path d="M69.7136 50.3604C71.0644 50.3604 72.0252 51.6732 71.5172 52.9248C66.4666 65.3704 54.2582 74.1471 39.9999 74.1471C25.7417 74.1471 13.5333 65.3704 8.48267 52.9248C7.9747 51.6732 8.93552 50.3604 10.2863 50.3604H69.7136Z" fill="#EDEBDE"/>
<path d="M71.5172 27.3697C72.0252 28.6214 71.0644 29.9342 69.7136 29.9342H10.2863C8.93552 29.9342 7.97471 28.6214 8.48267 27.3697C13.5333 14.9242 25.7417 6.14746 39.9999 6.14746C54.2582 6.14746 66.4665 14.9242 71.5172 27.3697Z" fill="#EDEBDE"/>
<path d="M34 6.6752C35.9477 6.32841 37.9527 6.14746 40.0001 6.14746C42.0474 6.14746 44.0524 6.32841 46 6.67519V29.9342H34V6.6752Z" fill="#7F43A4"/>
<path d="M46.0007 50.3604H33.9995C33.9743 55.5783 33.0237 60.7509 31.1912 65.6377L28.7188 72.2307C32.2489 73.472 36.0457 74.1471 40.0002 74.1471C43.9546 74.1471 47.7514 73.472 51.2815 72.2307L48.8091 65.6377C46.9766 60.7509 46.0259 55.5783 46.0007 50.3604Z" fill="#7F43A4"/>
<path d="M46 6.6748C50.3408 7.44769 54.3967 9.04431 58 11.2973V29.9338H46V6.6748Z" fill="#244D53"/>
<path d="M51.2818 72.2307C56.7392 70.3118 61.5594 67.0399 65.3396 62.8175L64.7497 62.4421C60.6061 59.8052 58.0735 55.2618 58.002 50.3604H46.001C46.0262 55.5783 46.9769 60.7509 48.8095 65.6377L51.2818 72.2307Z" fill="#244D53"/>
<path d="M22 11.2973C25.6033 9.04432 29.6591 7.44769 34 6.6748V29.9338H22V11.2973Z" fill="#89B2B9"/>
<path d="M21.9979 50.3604H33.9989C33.9738 55.556 33.0311 60.7067 31.2139 65.5751L28.7181 72.2307C23.2606 70.3118 18.4405 67.0399 14.6602 62.8175L15.2501 62.4421C19.3937 59.8052 21.9264 55.2618 21.9979 50.3604Z" fill="#89B2B9"/>
</g>
<defs>
<clipPath id="clip0_355_225">
<rect width="80" height="80" fill="white" transform="translate(0 0.147461)"/>
</clipPath>
</defs>
</svg>
