<svg width="80" height="74" viewBox="0 0 80 74" fill="none" xmlns="http://www.w3.org/2000/svg">
<g clip-path="url(#clip0_1124_7300)">
<path d="M10.9463 55.6735C13.88 57.7198 18.6364 57.7198 21.5701 55.6735C24.5036 53.6272 24.5036 50.3095 21.5701 48.2632C18.6364 46.2169 13.88 46.2169 10.9463 48.2632C8.01268 50.3095 8.01268 53.6272 10.9463 55.6735Z" fill="#E4C372"/>
<path d="M41.394 27.8852C45.7946 30.9545 52.9291 30.9545 57.3297 27.8852C61.73 24.8156 61.73 19.8392 57.3297 16.7698C52.9291 13.7004 45.7946 13.7004 41.394 16.7698C36.9937 19.8392 36.9937 24.8156 41.394 27.8852Z" fill="#E4C372"/>
<path d="M25.2308 41.7793C28.8978 44.337 34.8433 44.337 38.5104 41.7793C42.1774 39.2214 42.1774 35.0743 38.5104 32.5164C34.8433 29.9587 28.8978 29.9587 25.2308 32.5164C21.5637 35.0743 21.5637 39.2214 25.2308 41.7793Z" fill="#E4C372"/>
<path d="M1.65018 39.927C3.85042 41.4616 7.41771 41.4616 9.61796 39.927C11.8182 38.3923 11.8182 35.9041 9.61796 34.3693C7.41771 32.8346 3.85042 32.8346 1.65018 34.3693C-0.550061 35.9041 -0.550059 38.3923 1.65018 39.927Z" fill="#E4C372"/>
<path d="M25.2308 12.1386C28.8978 14.6965 34.8433 14.6965 38.5104 12.1386C42.1774 9.58079 42.1774 5.43373 38.5104 2.8759C34.8433 0.318061 28.8978 0.318059 25.2308 2.8759C21.5637 5.43373 21.5637 9.58079 25.2308 12.1386Z" fill="#E4C372"/>
<path d="M10.9463 26.0328C13.88 28.0791 18.6364 28.0791 21.5701 26.0328C24.5036 23.9865 24.5036 20.6688 21.5701 18.6226C18.6364 16.5763 13.88 16.5763 10.9463 18.6226C8.01267 20.6688 8.01269 23.9865 10.9463 26.0328Z" fill="#E4C372"/>
<path d="M25.2308 71.4204C28.8978 73.9781 34.8433 73.9781 38.5104 71.4204C42.1774 68.8625 42.1774 64.7154 38.5104 62.1575C34.8433 59.5998 28.8978 59.5998 25.2308 62.1575C21.5637 64.7154 21.5637 68.8625 25.2308 71.4204Z" fill="#E4C372"/>
<path d="M60.7632 42.7055C65.1637 45.7748 72.2984 45.7748 76.6988 42.7055C81.0994 39.6361 81.0994 34.6596 76.6988 31.5902C72.2984 28.5207 65.1637 28.5207 60.7632 31.5902C56.3628 34.6596 56.3628 39.6361 60.7632 42.7055Z" fill="#E4C372"/>
<path d="M41.394 57.5261C45.7946 60.5956 52.9291 60.5956 57.3297 57.5261C61.73 54.4568 61.73 49.4804 57.3297 46.4109C52.9291 43.3416 45.7946 43.3416 41.394 46.4109C36.9937 49.4804 36.9937 54.4568 41.394 57.5261Z" fill="#E4C372"/>
</g>
<defs>
<clipPath id="clip0_1124_7300">
<rect width="80" height="72.381" fill="white" transform="translate(0 0.95752)"/>
</clipPath>
</defs>
</svg>
