<svg width="80" height="74" viewBox="0 0 80 74" fill="none" xmlns="http://www.w3.org/2000/svg">
<g clip-path="url(#clip0_355_214)">
<path d="M10.9463 55.6735C13.88 57.7198 18.6364 57.7198 21.5701 55.6735C24.5036 53.6272 24.5036 50.3095 21.5701 48.2632C18.6364 46.2169 13.88 46.2169 10.9463 48.2632C8.01268 50.3095 8.01268 53.6272 10.9463 55.6735Z" fill="#193439"/>
<path d="M41.395 27.8852C45.7956 30.9545 52.9301 30.9545 57.3306 27.8852C61.731 24.8156 61.731 19.8392 57.3306 16.7698C52.9301 13.7004 45.7956 13.7004 41.395 16.7698C36.9946 19.8392 36.9946 24.8156 41.395 27.8852Z" fill="#193439"/>
<path d="M25.2308 41.7788C28.8978 44.3365 34.8433 44.3365 38.5104 41.7788C42.1774 39.2209 42.1774 35.0738 38.5104 32.5159C34.8433 29.9582 28.8978 29.9582 25.2308 32.5159C21.5637 35.0738 21.5637 39.2209 25.2308 41.7788Z" fill="#193439"/>
<path d="M1.65018 39.9265C3.85042 41.4612 7.41771 41.4612 9.61796 39.9265C11.8182 38.3918 11.8182 35.9036 9.61796 34.3688C7.41771 32.8341 3.85042 32.8341 1.65018 34.3688C-0.550061 35.9036 -0.550059 38.3918 1.65018 39.9265Z" fill="#193439"/>
<path d="M25.2308 12.1381C28.8978 14.696 34.8433 14.696 38.5104 12.1381C42.1774 9.58031 42.1774 5.43324 38.5104 2.87541C34.8433 0.317572 28.8978 0.317571 25.2308 2.87541C21.5637 5.43324 21.5637 9.58031 25.2308 12.1381Z" fill="#193439"/>
<path d="M10.9463 26.0318C13.88 28.0781 18.6364 28.0781 21.5701 26.0318C24.5036 23.9855 24.5036 20.6678 21.5701 18.6216C18.6364 16.5753 13.88 16.5753 10.9463 18.6216C8.01267 20.6678 8.01269 23.9855 10.9463 26.0318Z" fill="#193439"/>
<path d="M25.2308 71.4194C28.8978 73.9771 34.8433 73.9771 38.5104 71.4194C42.1774 68.8615 42.1774 64.7145 38.5104 62.1566C34.8433 59.5989 28.8978 59.5989 25.2308 62.1566C21.5637 64.7145 21.5637 68.8615 25.2308 71.4194Z" fill="#193439"/>
<path d="M60.7642 42.7055C65.1647 45.7748 72.2994 45.7748 76.6998 42.7055C81.1003 39.6361 81.1003 34.6596 76.6998 31.5902C72.2994 28.5207 65.1647 28.5207 60.7642 31.5902C56.3638 34.6596 56.3638 39.6361 60.7642 42.7055Z" fill="#193439"/>
<path d="M41.395 57.5256C45.7956 60.5952 52.9301 60.5952 57.3306 57.5256C61.731 54.4563 61.731 49.4799 57.3306 46.4104C52.9301 43.3411 45.7956 43.3411 41.395 46.4104C36.9946 49.4799 36.9946 54.4563 41.395 57.5256Z" fill="#193439"/>
</g>
<defs>
<clipPath id="clip0_355_214">
<rect width="80" height="72.381" fill="white" transform="translate(0 0.957031)"/>
</clipPath>
</defs>
</svg>
