<svg width="235" height="231" viewBox="0 0 235 231" fill="none" xmlns="http://www.w3.org/2000/svg">
<g filter="url(#filter0_d_154_17)">
<circle cx="210" cy="22" r="20" fill="url(#paint0_linear_154_17)" shape-rendering="crispEdges"/>
<circle cx="210" cy="22" r="19.5" stroke="#CCC976" shape-rendering="crispEdges"/>
</g>
<g filter="url(#filter1_d_154_17)">
<path d="M14 40C14 36.2288 14 34.3431 15.1716 33.1716C16.3431 32 18.2288 32 22 32H209C212.771 32 214.657 32 215.828 33.1716C217 34.3431 217 36.2288 217 40V162C217 163.886 217 164.828 216.414 165.414C215.828 166 214.886 166 213 166H18C16.1144 166 15.1716 166 14.5858 165.414C14 164.828 14 163.886 14 162V40Z" fill="#D8ECEF"/>
</g>
<path d="M20 46C20 43.7909 21.7909 42 24 42H206C208.209 42 210 43.7909 210 46V159H20V46Z" fill="white"/>
<g filter="url(#filter2_d_154_17)">
<path d="M11.4512 165.659C10.8854 165.012 11.3446 164 12.2038 164H217.631C218.43 164 218.907 164.89 218.464 165.555L216.5 168.5L212.533 171.277C211.861 171.748 211.06 172 210.239 172H19.5208C18.5411 172 17.5955 171.64 16.8633 170.99L13.5 168L11.4512 165.659Z" fill="#D8ECEF"/>
<path d="M216.787 168.91L216.864 168.856L216.916 168.777L218.88 165.832C219.544 164.835 218.83 163.5 217.631 163.5H12.2038C10.915 163.5 10.2263 165.018 11.0749 165.988L13.1237 168.329L13.1444 168.353L13.1678 168.374L16.5312 171.363C17.3549 172.096 18.4187 172.5 19.5208 172.5H210.239C211.162 172.5 212.063 172.216 212.82 171.687L216.787 168.91Z" stroke="#A8C8CD"/>
</g>
<g filter="url(#filter3_d_154_17)">
<circle cx="28.4958" cy="189.496" r="30" transform="rotate(147.023 28.4958 189.496)" fill="url(#paint1_linear_154_17)" shape-rendering="crispEdges"/>
<circle cx="28.4958" cy="189.496" r="29.5" transform="rotate(147.023 28.4958 189.496)" stroke="#CCC976" shape-rendering="crispEdges"/>
</g>
<rect x="28.25" y="49.25" width="36.5" height="103.5" rx="1.75" fill="#D8ECEF" stroke="#E2E2E2" stroke-width="0.5"/>
<rect x="70" y="49" width="37" height="29" rx="2" fill="#D7F7FD"/>
<rect x="117" y="49" width="37" height="29" rx="2" fill="#E6F5E4"/>
<rect x="164" y="49" width="37" height="29" rx="2" fill="#D7F7FD"/>
<rect x="70.25" y="85.25" width="130.5" height="64.5" rx="1.75" fill="#D8ECEF" stroke="#E2E2E2" stroke-width="0.5"/>
<defs>
<filter id="filter0_d_154_17" x="187" y="0" width="48" height="48" filterUnits="userSpaceOnUse" color-interpolation-filters="sRGB">
<feFlood flood-opacity="0" result="BackgroundImageFix"/>
<feColorMatrix in="SourceAlpha" type="matrix" values="0 0 0 0 0 0 0 0 0 0 0 0 0 0 0 0 0 0 127 0" result="hardAlpha"/>
<feOffset dx="1" dy="2"/>
<feGaussianBlur stdDeviation="2"/>
<feComposite in2="hardAlpha" operator="out"/>
<feColorMatrix type="matrix" values="0 0 0 0 0 0 0 0 0 0 0 0 0 0 0 0 0 0 0.25 0"/>
<feBlend mode="normal" in2="BackgroundImageFix" result="effect1_dropShadow_154_17"/>
<feBlend mode="normal" in="SourceGraphic" in2="effect1_dropShadow_154_17" result="shape"/>
</filter>
<filter id="filter1_d_154_17" x="8" y="25" width="215" height="146" filterUnits="userSpaceOnUse" color-interpolation-filters="sRGB">
<feFlood flood-opacity="0" result="BackgroundImageFix"/>
<feColorMatrix in="SourceAlpha" type="matrix" values="0 0 0 0 0 0 0 0 0 0 0 0 0 0 0 0 0 0 127 0" result="hardAlpha"/>
<feMorphology radius="2" operator="dilate" in="SourceAlpha" result="effect1_dropShadow_154_17"/>
<feOffset dy="-1"/>
<feGaussianBlur stdDeviation="2"/>
<feComposite in2="hardAlpha" operator="out"/>
<feColorMatrix type="matrix" values="0 0 0 0 0 0 0 0 0 0 0 0 0 0 0 0 0 0 0.1 0"/>
<feBlend mode="normal" in2="BackgroundImageFix" result="effect1_dropShadow_154_17"/>
<feBlend mode="normal" in="SourceGraphic" in2="effect1_dropShadow_154_17" result="shape"/>
</filter>
<filter id="filter2_d_154_17" x="6.19983" y="163" width="217.435" height="18" filterUnits="userSpaceOnUse" color-interpolation-filters="sRGB">
<feFlood flood-opacity="0" result="BackgroundImageFix"/>
<feColorMatrix in="SourceAlpha" type="matrix" values="0 0 0 0 0 0 0 0 0 0 0 0 0 0 0 0 0 0 127 0" result="hardAlpha"/>
<feOffset dy="4"/>
<feGaussianBlur stdDeviation="2"/>
<feComposite in2="hardAlpha" operator="out"/>
<feColorMatrix type="matrix" values="0 0 0 0 0 0 0 0 0 0 0 0 0 0 0 0 0 0 0.25 0"/>
<feBlend mode="normal" in2="BackgroundImageFix" result="effect1_dropShadow_154_17"/>
<feBlend mode="normal" in="SourceGraphic" in2="effect1_dropShadow_154_17" result="shape"/>
</filter>
<filter id="filter3_d_154_17" x="-4.50781" y="157.492" width="68.0071" height="68.0071" filterUnits="userSpaceOnUse" color-interpolation-filters="sRGB">
<feFlood flood-opacity="0" result="BackgroundImageFix"/>
<feColorMatrix in="SourceAlpha" type="matrix" values="0 0 0 0 0 0 0 0 0 0 0 0 0 0 0 0 0 0 127 0" result="hardAlpha"/>
<feOffset dx="1" dy="2"/>
<feGaussianBlur stdDeviation="2"/>
<feComposite in2="hardAlpha" operator="out"/>
<feColorMatrix type="matrix" values="0 0 0 0 0 0 0 0 0 0 0 0 0 0 0 0 0 0 0.25 0"/>
<feBlend mode="normal" in2="BackgroundImageFix" result="effect1_dropShadow_154_17"/>
<feBlend mode="normal" in="SourceGraphic" in2="effect1_dropShadow_154_17" result="shape"/>
</filter>
<linearGradient id="paint0_linear_154_17" x1="223.667" y1="35" x2="196" y2="7.33333" gradientUnits="userSpaceOnUse">
<stop offset="0.36" stop-color="#FFF846"/>
<stop offset="0.825" stop-color="#F7F3ED" stop-opacity="0.45"/>
<stop offset="1" stop-color="#F4F1A8"/>
</linearGradient>
<linearGradient id="paint1_linear_154_17" x1="48.9958" y1="208.996" x2="-1.50424" y2="162.996" gradientUnits="userSpaceOnUse">
<stop offset="0.005" stop-color="#FFF846"/>
<stop offset="0.51" stop-color="#F4F1A8"/>
<stop offset="1" stop-color="#F7F3ED" stop-opacity="0"/>
</linearGradient>
</defs>
</svg>
