<svg width="28" height="29" viewBox="0 0 28 29" fill="none" xmlns="http://www.w3.org/2000/svg">
<g clip-path="url(#clip0_439_1498)">
<path d="M21.4375 0.100586H6.5625C2.93813 0.100586 0 3.03872 0 6.66309V21.5381C0 25.1625 2.93813 28.1006 6.5625 28.1006H21.4375C25.0619 28.1006 28 25.1625 28 21.5381V6.66309C28 3.03872 25.0619 0.100586 21.4375 0.100586Z" fill="#F4F2ED"/>
<path d="M4.55394 22.3083H8.03403V13.8565L3.0625 10.1279V20.8168C3.0625 21.6421 3.73122 22.3083 4.55394 22.3083Z" fill="#4285F4"/>
<path d="M19.9658 22.3084H23.446C24.2713 22.3084 24.9375 21.6396 24.9375 20.8169V10.1279L19.9658 13.8566" fill="#34A853"/>
<path d="M19.9658 7.39325V13.8563L24.9375 10.1277V8.13886C24.9375 6.29447 22.832 5.24294 21.3579 6.34915" fill="#FBBC04"/>
<path d="M8.03418 13.8558V7.3928L14 11.867L19.9659 7.39258V13.8557L14 18.3302" fill="#EA4335"/>
<path d="M3.0625 8.13886V10.1275L8.03403 13.8562V7.39325L6.64202 6.34915C5.16545 5.24294 3.0625 6.29447 3.0625 8.13886Z" fill="#C5221F"/>
</g>
<defs>
<clipPath id="clip0_439_1498">
<rect width="28" height="28" fill="white" transform="translate(0 0.100586)"/>
</clipPath>
</defs>
</svg>
