<svg width="28" height="29" viewBox="0 0 28 29" fill="none" xmlns="http://www.w3.org/2000/svg">
<g clip-path="url(#clip0_439_1494)">
<path d="M0.605748 13.9312C0.605092 16.3006 1.22419 18.6141 2.4014 20.6533L0.493164 27.6206L7.62331 25.7511C9.59541 26.8247 11.805 27.3872 14.0504 27.3873H14.0563C21.4688 27.3873 27.5027 21.3556 27.5059 13.9418C27.5073 10.3493 26.1095 6.97114 23.5699 4.42959C21.0308 1.88827 17.6538 0.487968 14.0558 0.486328C6.64241 0.486328 0.608917 6.51774 0.605857 13.9312" fill="url(#paint0_linear_439_1494)"/>
<path d="M0.126721 13.9271C0.125956 16.3818 0.767245 18.7781 1.98643 20.8903L0.00976562 28.1073L7.39557 26.1708C9.4306 27.2803 11.7218 27.8653 14.0533 27.8662H14.0593C21.7377 27.8662 27.9884 21.6175 27.9917 13.9383C27.993 10.2167 26.5449 6.71708 23.9146 4.08449C21.284 1.45222 17.7863 0.00153026 14.0593 0C6.37959 0 0.129782 6.24784 0.126721 13.9271ZM4.52524 20.5265L4.24946 20.0887C3.09018 18.2454 2.4783 16.1153 2.47917 13.928C2.48158 7.54517 7.67616 2.35223 14.0637 2.35223C17.157 2.35354 20.0641 3.55939 22.2506 5.74723C24.437 7.93528 25.6401 10.8439 25.6394 13.9374C25.6365 20.3202 20.4418 25.5138 14.0593 25.5138H14.0547C11.9765 25.5127 9.93832 24.9546 8.16081 23.9L7.73781 23.6491L3.35492 24.7982L4.52524 20.5265Z" fill="url(#paint1_linear_439_1494)"/>
<path d="M10.5757 8.10472C10.3149 7.52508 10.0405 7.51338 9.79245 7.50322C9.58936 7.49447 9.3572 7.49513 9.12525 7.49513C8.89309 7.49513 8.51588 7.58246 8.19704 7.9306C7.87787 8.27906 6.97852 9.12114 6.97852 10.8338C6.97852 12.5466 8.22601 14.2018 8.39991 14.4343C8.57403 14.6664 10.8082 18.2935 14.3466 19.6889C17.2873 20.8485 17.8858 20.6179 18.524 20.5597C19.1623 20.5018 20.5837 19.7179 20.8737 18.905C21.1639 18.0922 21.1639 17.3955 21.0769 17.2499C20.9899 17.1048 20.7578 17.0177 20.4096 16.8437C20.0614 16.6696 18.3499 15.8274 18.0308 15.7112C17.7117 15.5951 17.4796 15.5372 17.2474 15.8858C17.0153 16.2338 16.3486 17.0177 16.1454 17.2499C15.9425 17.4826 15.7393 17.5116 15.3912 17.3374C15.0429 17.1628 13.9217 16.7956 12.5916 15.6098C11.5567 14.687 10.8581 13.5475 10.655 13.199C10.4519 12.8509 10.6332 12.6623 10.8078 12.4888C10.9642 12.3328 11.156 12.0823 11.3303 11.8791C11.5038 11.6758 11.5618 11.5308 11.6778 11.2986C11.794 11.0662 11.7359 10.8629 11.649 10.6888C11.5618 10.5147 10.8853 8.79301 10.5757 8.10472Z" fill="white"/>
</g>
<defs>
<linearGradient id="paint0_linear_439_1494" x1="1351.13" y1="2713.91" x2="1351.13" y2="0.486328" gradientUnits="userSpaceOnUse">
<stop stop-color="#1FAF38"/>
<stop offset="1" stop-color="#60D669"/>
</linearGradient>
<linearGradient id="paint1_linear_439_1494" x1="1399.11" y1="2810.73" x2="1399.11" y2="0" gradientUnits="userSpaceOnUse">
<stop stop-color="#F9F9F9"/>
<stop offset="1" stop-color="white"/>
</linearGradient>
<clipPath id="clip0_439_1494">
<rect width="28" height="28.2005" fill="white"/>
</clipPath>
</defs>
</svg>
