<svg width="25" height="25" viewBox="0 0 25 25" fill="none" xmlns="http://www.w3.org/2000/svg">
<path d="M22.25 1.06259H2.75C2.30756 1.05808 1.8814 1.22928 1.56504 1.53862C1.24867 1.84795 1.06794 2.27016 1.0625 2.71259V22.2913C1.06892 22.7331 1.25009 23.1544 1.56634 23.4629C1.8826 23.7714 2.3082 23.9421 2.75 23.9376H22.25C22.6925 23.9411 23.1183 23.7693 23.4345 23.4598C23.7507 23.1503 23.9316 22.7282 23.9375 22.2857V2.70696C23.9296 2.26583 23.7479 1.84564 23.4319 1.53772C23.1159 1.22981 22.6912 1.05906 22.25 1.06259Z" fill="#0076B2"/>
<path d="M4.44871 9.63672H7.84434V20.5623H4.44871V9.63672ZM6.14746 4.19922C6.53692 4.19922 6.91764 4.31473 7.24144 4.53114C7.56523 4.74756 7.81757 5.05514 7.96653 5.41499C8.11548 5.77485 8.15436 6.17079 8.07824 6.55274C8.00213 6.93469 7.81444 7.28549 7.53891 7.56075C7.26339 7.83601 6.91242 8.02337 6.5304 8.09912C6.14837 8.17487 5.75246 8.13561 5.39275 7.98632C5.03304 7.83702 4.7257 7.58439 4.50959 7.26038C4.29349 6.93638 4.17834 6.55556 4.17871 6.16609C4.17921 5.64427 4.38685 5.144 4.75601 4.77519C5.12517 4.40638 5.62564 4.19922 6.14746 4.19922ZM9.97434 9.63672H13.2293V11.1367H13.2743C13.7281 10.278 14.8343 9.37234 16.4862 9.37234C19.925 9.36484 20.5625 11.628 20.5625 14.5623V20.5623H17.1668V15.2467C17.1668 13.9811 17.1443 12.3517 15.4025 12.3517C13.6606 12.3517 13.3643 13.7317 13.3643 15.1642V20.5623H9.97434V9.63672Z" fill="white"/>
</svg>
